<svg id="color_line" height="512" viewBox="0 0 74 74" width="512" xmlns="http://www.w3.org/2000/svg" data-name="color line"><path d="m43.426 51.032a4.179 4.179 0 0 1 -5.91 0l-15.516-15.516a4.179 4.179 0 0 1 0-5.91l3.337-3.337-14.817-14.816c-4.07 4.747-7.52 9.771-7.52 13.159-.009 15.16 30.268 45.437 45.428 45.428 3.389 0 8.413-3.449 13.163-7.517l-14.828-14.823z" fill="#9297ab"/><path d="m61.59 62.52c-4.75 4.07-9.77 7.52-13.16 7.52-15.16.01-45.44-30.27-45.43-45.43a6.627 6.627 0 0 1 .24-1.7c2.88 15.74 30.82 42.93 45.19 42.92 2.84 0 6.83-2.43 10.85-5.62z" fill="#84879c"/><path d="m27.748 23.858a3.075 3.075 0 0 0 0-4.349l-10.61-10.609a3.07 3.07 0 0 0 -4.434.086c-.738.806-1.469 1.633-2.184 2.467l14.817 14.816z" fill="#e1e6e9"/><path d="m25.336 26.769a.5.5 0 0 1 -.353-.146l-14.816-14.817a.5.5 0 0 1 -.026-.679c.718-.838 1.453-1.668 2.194-2.479a3.571 3.571 0 0 1 5.157-.1l10.608 10.608a3.575 3.575 0 0 1 0 5.056l-2.41 2.411a.5.5 0 0 1 -.354.146zm-14.136-15.342 14.136 14.135 2.058-2.057a2.576 2.576 0 0 0 0-3.642l-10.609-10.609a2.572 2.572 0 0 0 -3.712.069c-.631.69-1.257 1.393-1.873 2.104z" fill="#323c6b"/><path d="m64.144 55.906-10.622-10.622a3.074 3.074 0 0 0 -4.348 0l-2.411 2.416 14.828 14.823c.834-.714 1.66-1.445 2.466-2.182a3.071 3.071 0 0 0 .087-4.435z" fill="#e1e6e9"/><path d="m64.06 60.34c-.81.74-1.64 1.47-2.47 2.18l-14.83-14.82.13-.13 12.2 12.2c.83-.71 1.66-1.44 2.47-2.18a3.074 3.074 0 0 0 .69-3.58l1.89 1.9a3.06 3.06 0 0 1 -.08 4.43z" fill="#d5d6db"/><g fill="#323c6b"><path d="m71 31.339a.5.5 0 0 1 -.5-.5 26.409 26.409 0 0 0 -26.379-26.379.5.5 0 0 1 0-1 27.41 27.41 0 0 1 27.379 27.379.5.5 0 0 1 -.5.5z"/><path d="m61.933 33.239a.5.5 0 0 1 -.5-.5 19.234 19.234 0 0 0 -19.212-19.212.5.5 0 0 1 0-1 20.235 20.235 0 0 1 20.212 20.212.5.5 0 0 1 -.5.5z"/><path d="m52.863 35.14a.5.5 0 0 1 -.5-.5 12.058 12.058 0 0 0 -12.044-12.04.5.5 0 0 1 0-1 13.058 13.058 0 0 1 13.044 13.04.5.5 0 0 1 -.5.5z"/><path d="m48.434 73.54a17.736 17.736 0 0 1 -3.62-.405.5.5 0 1 1 .2-.979 16.708 16.708 0 0 0 3.406.384 13.471 13.471 0 0 0 6.09-1.878.5.5 0 1 1 .47.881 14.205 14.205 0 0 1 -6.546 1.997z"/><path d="m42.75 72.58a.507.507 0 0 1 -.148-.023c-.339-.105-.682-.227-1.025-.349l-.119-.042a.5.5 0 0 1 .334-.943l.121.043c.33.117.659.235.985.336a.5.5 0 0 1 -.148.978z"/><path d="m8.1 10.169a.5.5 0 0 1 -.382-.822l.322-.382a.5.5 0 0 1 .758.653l-.316.373a.5.5 0 0 1 -.382.178z"/><path d="m9.893 8.125a.5.5 0 0 1 -.372-.834l.6-.667a6.576 6.576 0 0 1 7.972-1.336.5.5 0 0 1 -.478.879 5.576 5.576 0 0 0 -6.756 1.133l-.594.661a.5.5 0 0 1 -.372.164z"/><path d="m48.434 70.54h-.014c-8.534 0-20.445-8.87-28.748-17.172s-17.172-20.221-17.172-28.756c0-3.03 2.567-7.567 7.641-13.485a.5.5 0 0 1 .36-.174.465.465 0 0 1 .373.146l14.816 14.817a.5.5 0 0 1 0 .707l-3.336 3.336a3.678 3.678 0 0 0 0 5.2l15.515 15.519a3.767 3.767 0 0 0 5.2 0l3.337-3.336a.5.5 0 0 1 .707 0l14.831 14.828a.5.5 0 0 1 -.028.733c-5.916 5.067-10.453 7.637-13.482 7.637zm-.006-1h.005c2.679 0 6.967-2.435 12.421-7.046l-14.091-14.094-2.984 2.983a4.678 4.678 0 0 1 -6.617 0l-15.516-15.514a4.68 4.68 0 0 1 0-6.617l2.983-2.983-14.08-14.08c-4.616 5.455-7.049 9.744-7.049 12.423 0 6.782 6.622 17.791 16.879 28.048s21.261 16.88 28.043 16.88z"/><path d="m61.591 63.023a.5.5 0 0 1 -.354-.146l-14.828-14.828a.5.5 0 0 1 0-.707l2.411-2.411a3.579 3.579 0 0 1 5.056 0l10.624 10.621a3.572 3.572 0 0 1 -.1 5.158c-.811.741-1.641 1.476-2.479 2.193a.5.5 0 0 1 -.33.12zm-14.121-15.323 14.146 14.142c.711-.614 1.415-1.24 2.1-1.87a2.524 2.524 0 0 0 .827-1.826 2.57 2.57 0 0 0 -.756-1.887l-10.618-10.621a2.637 2.637 0 0 0 -3.642 0z"/></g><path d="m21.832 40.127a.6.6 0 0 1 -.444-.2l-1.953-1.889a7.705 7.705 0 0 1 -2.259-5.48.6.6 0 1 1 1.2 0 6.538 6.538 0 0 0 1.924 4.655l1.973 1.91a.6.6 0 0 1 -.444 1z" fill="#fff"/><path d="m24.292 41.875a.631.631 0 0 1 -.43.17.578.578 0 0 1 -.39-.15c-.01 0-.421-.374-.421-.374a.58.58 0 0 1 0-.84.592.592 0 0 1 .85 0s.451.4.471.434a.621.621 0 0 1 -.08.76z" fill="#fff"/></svg>