<svg id="color_line" height="512" viewBox="0 0 74 74" width="512" xmlns="http://www.w3.org/2000/svg" data-name="color line"><path d="m8.9 37.864c-1.185-9.589 1.559-18.3 7.725-24.52q.513-.519 1.053-1.011l2.022 2.216q-.483.441-.944.906c-5.505 5.556-7.948 13.384-6.878 22.041z" fill="#e1e6e9"/><path d="m8.9 38.364a.5.5 0 0 1 -.5-.439c-1.2-9.745 1.589-18.6 7.866-24.933q.522-.528 1.071-1.029a.5.5 0 0 1 .706.033l2.022 2.216a.5.5 0 0 1 -.032.706q-.474.434-.926.889c-5.4 5.445-7.788 13.126-6.737 21.627a.5.5 0 0 1 -.434.558l-2.978.368c-.02.002-.04.004-.058.004zm8.749-25.322q-.34.321-.668.653c-5.951 6-8.655 14.373-7.642 23.611l1.985-.246c-.937-8.615 1.567-16.4 7.077-21.957.2-.2.394-.392.6-.583z" fill="#323c6b"/><path d="m19.792 14.659-2.161-2.369a1.527 1.527 0 0 1 .176-2.213 30.3 30.3 0 0 1 38.386 0 1.526 1.526 0 0 1 .176 2.212l-2.161 2.369a1.5 1.5 0 0 1 -2.048.173 24.068 24.068 0 0 0 -30.32 0 1.5 1.5 0 0 1 -2.048-.172z" fill="#9297ab"/><path d="m56.37 12.29-2.16 2.37a1.521 1.521 0 0 1 -1.7.38l.78-.86a1.517 1.517 0 0 0 -.17-2.21 30.311 30.311 0 0 0 -33.52-3.25 30.272 30.272 0 0 1 36.59 1.36 1.525 1.525 0 0 1 .18 2.21z" fill="#84879c"/><path d="m65.1 37.864-2.975-.364c1.07-8.657-1.373-16.485-6.878-22.041q-.461-.463-.944-.906l2.022-2.216q.54.492 1.053 1.011c6.166 6.218 8.91 14.927 7.722 24.516z" fill="#e1e6e9"/><path d="m65.1 38.364c-.021 0-.041 0-.062 0l-2.978-.368a.5.5 0 0 1 -.434-.558c1.051-8.5-1.342-16.182-6.737-21.627q-.452-.456-.926-.889a.5.5 0 0 1 -.032-.706l2.025-2.216a.5.5 0 0 1 .706-.033q.549.5 1.071 1.029c6.277 6.33 9.067 15.184 7.867 24.929a.5.5 0 0 1 -.5.439zm-2.424-1.3 1.985.246c1.013-9.238-1.691-17.606-7.641-23.61q-.328-.333-.669-.654l-1.345 1.474c.2.191.4.386.6.583 5.506 5.561 8.01 13.342 7.073 21.957z" fill="#323c6b"/><path d="m58.415 58.111-.467-.051c-2.279-.237-3.883-1.892-3.616-3.738l1.514-12.15a3.711 3.711 0 0 1 4.814-2.472" fill="#bbbbcd"/><path d="m58.416 58.611a.525.525 0 0 1 -.056 0l-.466-.051a4.855 4.855 0 0 1 -3.347-1.735 3.386 3.386 0 0 1 -.711-2.572l1.514-12.143a4 4 0 0 1 1.99-2.595 4.575 4.575 0 0 1 3.479-.29.5.5 0 1 1 -.319.948 3.592 3.592 0 0 0 -2.692.225 2.956 2.956 0 0 0 -1.48 1.909l-1.5 12.077a2.359 2.359 0 0 0 .508 1.824 3.86 3.86 0 0 0 2.664 1.355l.47.051a.5.5 0 0 1 -.054 1z" fill="#323c6b"/><path d="m67.589 39.772c1.371.2 3.672 1.127 3.387 3.406l-1.839 14.245a3.361 3.361 0 0 1 -4.321 2.464z" fill="#fe7058"/><path d="m70.98 43.18-1.84 14.24a3.394 3.394 0 0 1 -3.99 2.57 3.966 3.966 0 0 0 1.68-2.34l2.03-15.71a2.719 2.719 0 0 0 -.46-1.98c1.31.39 2.81 1.35 2.58 3.22z" fill="#ea6453"/><path d="m53.95 67.969h-10.941a.5.5 0 0 1 0-1h10.941a5.916 5.916 0 0 0 5.91-5.91.5.5 0 0 1 1 0 6.918 6.918 0 0 1 -6.91 6.91z" fill="#323c6b"/><ellipse cx="39.106" cy="67.203" fill="#9297ab" rx="5.021" ry="3.816"/><path d="m44.13 67.2c0 2.11-1.1 3.82-5.02 3.82-3.4 0-4.68-1.28-4.96-2.99a7.055 7.055 0 0 0 3.33.66c3.93 0 5.02-1.71 5.02-3.82a5.554 5.554 0 0 0 -.06-.82 3.281 3.281 0 0 1 1.69 3.15z" fill="#84879c"/><g fill="#323c6b"><path d="m22.334 4.143a.5.5 0 0 1 -.22-.95 44.608 44.608 0 0 1 9.128-3.226.5.5 0 1 1 .183.983 44.2 44.2 0 0 0 -8.872 3.142.5.5 0 0 1 -.219.051z"/><path d="m70.465 62.25a.5.5 0 0 1 -.356-.852 5.575 5.575 0 0 0 .773-1 .5.5 0 0 1 .85.527 6.641 6.641 0 0 1 -.912 1.175.5.5 0 0 1 -.355.15z"/><path d="m72.086 59.083a.463.463 0 0 1 -.065 0 .5.5 0 0 1 -.431-.56l.755-5.75a.493.493 0 0 1 .56-.431.5.5 0 0 1 .431.56l-.755 5.75a.5.5 0 0 1 -.495.431z"/><path d="m19.667 5.618a.5.5 0 0 1 -.26-.928l.26-.159c.208-.128.416-.256.627-.376a.5.5 0 1 1 .5.87c-.2.114-.4.236-.6.357l-.266.163a.5.5 0 0 1 -.261.073z"/><path d="m20.917 15.658a2.019 2.019 0 0 1 -1.494-.658l-2.162-2.37a1.99 1.99 0 0 1 -.519-1.5 2.059 2.059 0 0 1 .748-1.44 30.8 30.8 0 0 1 39.02 0 2.057 2.057 0 0 1 .748 1.437 1.987 1.987 0 0 1 -.52 1.5l-2.161 2.373a2 2 0 0 1 -2.732.225 23.568 23.568 0 0 0 -29.69 0 1.955 1.955 0 0 1 -1.238.433zm16.083-11.934a29.856 29.856 0 0 0 -18.876 6.74 1.042 1.042 0 0 0 -.385.736 1 1 0 0 0 .261.753l2.162 2.369a1 1 0 0 0 1.362.122 24.572 24.572 0 0 1 30.952 0 1 1 0 0 0 1.362-.122l2.162-2.369a1 1 0 0 0 .261-.753 1.044 1.044 0 0 0 -.385-.736 29.852 29.852 0 0 0 -18.876-6.74z"/><path d="m39.1 71.519c-3.663 0-5.521-1.452-5.521-4.316s1.858-4.316 5.521-4.316 5.522 1.452 5.522 4.316-1.853 4.316-5.522 4.316zm0-7.632c-4.052 0-4.521 1.892-4.521 3.316s.469 3.316 4.521 3.316 4.522-1.893 4.522-3.316-.464-3.316-4.522-3.316z"/><path d="m65.82 60.569a3.184 3.184 0 0 1 -1.191-.219.5.5 0 0 1 -.308-.532l2.772-20.118a.5.5 0 0 1 .567-.427c1.571.226 4.144 1.315 3.812 3.963l-1.839 14.251a4.038 4.038 0 0 1 -2.117 2.689 3.9 3.9 0 0 1 -1.696.393zm-.449-1.04a2.815 2.815 0 0 0 1.7-.252 3.026 3.026 0 0 0 1.58-1.99l1.823-14.173c.227-1.807-1.566-2.507-2.468-2.743z"/></g><path d="m65.768 37.948-4.2-.523a2.1 2.1 0 0 0 -2.336 1.791l-2.685 19.223a2.1 2.1 0 0 0 1.818 2.371l4.2.523a2.1 2.1 0 0 0 2.337-1.79l2.683-19.223a2.1 2.1 0 0 0 -1.817-2.372z" fill="#bbbbcd"/><path d="m67.59 40.32-2.69 19.22a2.09 2.09 0 0 1 -2.34 1.79l-4.2-.52a2.09 2.09 0 0 1 -1.81-2.37l.05-.34 3.73.47a2.1 2.1 0 0 0 2.34-1.79l2.64-18.89.46.06a2.1 2.1 0 0 1 1.82 2.37z" fill="#9297ab"/><path d="m62.817 61.85a2.653 2.653 0 0 1 -.319-.02l-4.198-.524a2.6 2.6 0 0 1 -2.251-2.936l2.689-19.224a2.61 2.61 0 0 1 2.893-2.217l4.2.523a2.6 2.6 0 0 1 2.251 2.937l-2.69 19.223a2.613 2.613 0 0 1 -2.575 2.238zm-1.5-23.941a1.606 1.606 0 0 0 -1.583 1.376l-2.692 19.223a1.6 1.6 0 0 0 1.384 1.806l4.2.523a1.6 1.6 0 0 0 1.774-1.363l2.69-19.224a1.6 1.6 0 0 0 -1.384-1.806l-4.2-.523a1.624 1.624 0 0 0 -.192-.012z" fill="#323c6b"/><path d="m15.585 58.111.467-.051c2.279-.237 3.883-1.892 3.616-3.738l-1.514-12.15a3.711 3.711 0 0 0 -4.814-2.472" fill="#bbbbcd"/><path d="m15.584 58.611a.5.5 0 0 1 -.054-1l.47-.048a3.861 3.861 0 0 0 2.667-1.355 2.353 2.353 0 0 0 .509-1.815l-1.518-12.159a2.936 2.936 0 0 0 -1.466-1.834 3.587 3.587 0 0 0 -2.692-.225.5.5 0 1 1 -.319-.948 4.575 4.575 0 0 1 3.479.29 3.967 3.967 0 0 1 1.975 2.523l1.53 12.222a3.378 3.378 0 0 1 -.712 2.562 4.86 4.86 0 0 1 -3.353 1.734l-.464.05a.525.525 0 0 1 -.052.003z" fill="#323c6b"/><path d="m6.411 39.772c-1.371.2-3.672 1.127-3.387 3.406l1.839 14.245a3.361 3.361 0 0 0 4.321 2.464z" fill="#fe7058"/><path d="m3.02 43.18 1.84 14.24a3.394 3.394 0 0 0 3.99 2.57 3.966 3.966 0 0 1 -1.68-2.34l-2.03-15.71a2.719 2.719 0 0 1 .46-1.98c-1.31.39-2.81 1.35-2.58 3.22z" fill="#ea6453"/><path d="m8.18 60.569a3.9 3.9 0 0 1 -1.7-.393 4 4 0 0 1 -2.1-2.617l-1.852-14.317c-.328-2.65 2.241-3.742 3.812-3.965a.5.5 0 0 1 .567.427l2.772 20.114a.5.5 0 0 1 -.308.532 3.184 3.184 0 0 1 -1.191.219zm-2.191-20.2c-.9.236-2.695.936-2.468 2.745l1.838 14.245a2.992 2.992 0 0 0 1.565 1.918 2.816 2.816 0 0 0 1.7.252z" fill="#323c6b"/><path d="m8.232 37.948 4.2-.523a2.1 2.1 0 0 1 2.336 1.791l2.689 19.223a2.1 2.1 0 0 1 -1.818 2.371l-4.195.523a2.1 2.1 0 0 1 -2.344-1.79l-2.685-19.223a2.1 2.1 0 0 1 1.817-2.372z" fill="#bbbbcd"/><path d="m6.41 40.32 2.69 19.22a2.09 2.09 0 0 0 2.34 1.79l4.2-.52a2.09 2.09 0 0 0 1.81-2.37l-.05-.34-3.73.47a2.1 2.1 0 0 1 -2.34-1.79l-2.64-18.89-.46.06a2.1 2.1 0 0 0 -1.82 2.37z" fill="#9297ab"/><path d="m11.183 61.85a2.613 2.613 0 0 1 -2.575-2.238l-2.689-19.223a2.6 2.6 0 0 1 2.251-2.937l4.2-.523a2.607 2.607 0 0 1 2.893 2.217l2.685 19.224a2.6 2.6 0 0 1 -2.248 2.936l-4.2.524a2.653 2.653 0 0 1 -.317.02zm-2.889-23.406a1.6 1.6 0 0 0 -1.384 1.806l2.69 19.224a1.6 1.6 0 0 0 1.779 1.363l4.2-.523a1.6 1.6 0 0 0 1.385-1.806l-2.695-19.223a1.606 1.606 0 0 0 -1.779-1.364z" fill="#323c6b"/><path d="m13.729 50.706a.736.736 0 0 1 .793.671l.045.378a.72.72 0 0 1 -.646.822 1.093 1.093 0 0 1 -.181 0 .826.826 0 0 1 -.7-.662l-.04-.376a.809.809 0 0 1 .729-.833z" fill="#fff"/><path d="m12.412 40.617a.769.769 0 0 1 .848.674l.931 7.466a.759.759 0 0 1 -.68.817.871.871 0 0 1 -.173-.01.779.779 0 0 1 -.674-.675l-.931-7.466a.74.74 0 0 1 .679-.806z" fill="#fff"/></svg>