<svg id="color_line" height="512" viewBox="0 0 74 74" width="512" xmlns="http://www.w3.org/2000/svg" data-name="color line"><path d="m24.579 28.623-14.295-15.431a1.745 1.745 0 0 1 .04-2.413l7.238-7.3a1.744 1.744 0 0 1 2.438-.042l15.3 14.452a1.744 1.744 0 0 1 .038 2.5l-8.241 8.281a1.744 1.744 0 0 1 -2.518-.047z" fill="#89c5cd"/><path d="m53.416 29.307-9.242-9.295 2.388-2.404 9.242 9.295z" fill="#bbbbcd"/><path d="m53.416 29.807a.5.5 0 0 1 -.354-.148l-9.243-9.294a.5.5 0 0 1 0-.7l2.389-2.405a.516.516 0 0 1 .709 0l9.242 9.3a.5.5 0 0 1 0 .7l-2.388 2.4a.5.5 0 0 1 -.355.147zm-8.537-9.795 8.537 8.588 1.684-1.7-8.537-8.586z" fill="#323c6b"/><path d="m56.958 28.03-11.479-11.479a1.958 1.958 0 0 1 .005-2.774l.1-.1a10.074 10.074 0 0 1 14.247.113 10.075 10.075 0 0 1 -.112 14.247 1.958 1.958 0 0 1 -2.761-.007z" fill="#eeefee"/><path d="m54.825 29.593-11.268-11.257a2.138 2.138 0 0 0 -3.02.036l-20.475 20.491a2.136 2.136 0 0 0 -.048 3.009l11.173 11.351a2.138 2.138 0 0 0 3.033-.023l20.569-20.586a2.135 2.135 0 0 0 .036-3.021z" fill="#eeefee"/><path d="m62.73 20.86a10.024 10.024 0 0 1 -3.01 7.18 1.978 1.978 0 0 1 -1.38.56 1.946 1.946 0 0 1 -1.38-.57l-2.24-2.24a1.915 1.915 0 0 0 1.12.36 1.946 1.946 0 0 0 1.38-.57 10.076 10.076 0 0 0 1.14-13.03 10.15 10.15 0 0 1 4.37 8.31z" fill="#e1e6e9"/><path d="m54.79 32.61-20.57 20.59a2.128 2.128 0 0 1 -3.03.02l-2.11-2.15a2.119 2.119 0 0 0 2.64-.32l20.57-20.59a2.134 2.134 0 0 0 .04-3.02l-8.98-8.97a1.045 1.045 0 0 1 .21.17l11.27 11.25a2.143 2.143 0 0 1 -.04 3.02z" fill="#e1e6e9"/><path d="m22.788 50.88a.5.5 0 0 1 -.353-.854l2.826-2.826a.5.5 0 1 1 .707.707l-2.826 2.826a.5.5 0 0 1 -.354.147z" fill="#323c6b"/><circle cx="20.527" cy="52.644" fill="#9297ab" r="3.203"/><path d="m20.527 56.345a3.7 3.7 0 0 1 -2.619-6.32 3.7 3.7 0 1 1 2.619 6.32zm-1.912-5.613a2.7 2.7 0 1 0 3.823 0 2.686 2.686 0 0 0 -3.823 0z" fill="#323c6b"/><path d="m19.224 69.461a15.2 15.2 0 0 1 -15.178-15.178.5.5 0 0 1 1 0 14.194 14.194 0 0 0 14.178 14.178.5.5 0 1 1 0 1z" fill="#323c6b"/><path d="m19.783 64.987a11.276 11.276 0 0 1 -11.263-11.264.5.5 0 0 1 1 0 10.275 10.275 0 0 0 10.263 10.264.5.5 0 0 1 0 1z" fill="#323c6b"/><path d="m20.345 60.512a7.358 7.358 0 0 1 -7.345-7.35.5.5 0 0 1 1 0 6.358 6.358 0 0 0 6.35 6.35.5.5 0 0 1 0 1z" fill="#323c6b"/><path d="m34.96 20.77 1.58 1.58-7.51 7.51-1.56-1.56z" fill="#bbbbcd"/><path d="m29.03 30.36a.5.5 0 0 1 -.353-.147l-1.561-1.56a.5.5 0 0 1 0-.706l7.49-7.53a.5.5 0 0 1 .354-.147.5.5 0 0 1 .353.147l1.581 1.583a.5.5 0 0 1 0 .707l-7.51 7.509a.5.5 0 0 1 -.354.144zm-.854-2.06.854.854 6.8-6.8-.872-.872z" fill="#323c6b"/><path d="m44.84 45.67-1.56-1.56 7.51-7.51 1.58 1.58z" fill="#bbbbcd"/><path d="m44.84 46.17a.5.5 0 0 1 -.354-.147l-1.559-1.56a.5.5 0 0 1 0-.707l7.51-7.509a.5.5 0 0 1 .707 0l1.58 1.58a.5.5 0 0 1 0 .708l-7.531 7.489a.492.492 0 0 1 -.353.146zm-.853-2.06.854.854 6.821-6.785-.872-.872z" fill="#323c6b"/><path d="m55.58 63.563a.5.5 0 0 1 -.341-.135l-.494-.461a.5.5 0 0 1 .682-.731l.494.461a.5.5 0 0 1 -.341.866z" fill="#323c6b"/><path d="m53.637 61.75a.5.5 0 0 1 -.341-.134l-5.744-5.356a.5.5 0 0 1 .681-.731l5.745 5.355a.5.5 0 0 1 .024.707.494.494 0 0 1 -.365.159z" fill="#323c6b"/><path d="m31.013 10.15a.5.5 0 0 1 -.342-.135l-5.461-5.124a.5.5 0 0 1 .684-.73l5.46 5.125a.5.5 0 0 1 -.341.864z" fill="#323c6b"/><path d="m32.844 11.869a.5.5 0 0 1 -.342-.136l-.344-.322a.5.5 0 1 1 .684-.729l.344.322a.5.5 0 0 1 -.342.865z" fill="#323c6b"/><path d="m31.339 24.683a.5.5 0 0 1 -.35-.143l-17.362-17.006a.5.5 0 1 1 .7-.714l17.361 17.005a.5.5 0 0 1 -.349.858z" fill="#323c6b"/><path d="m35.34 20.39-1.79 1.8a1.71 1.71 0 0 0 -.32-2.11l-15.29-14.46a1.751 1.751 0 0 0 -2.44.04l-5.46 5.52a1.321 1.321 0 0 1 .28-.4l7.24-7.3a1.742 1.742 0 0 1 2.44-.04l15.3 14.45a1.751 1.751 0 0 1 .04 2.5z" fill="#6eaaad"/><path d="m55.265 37.812 14.3 15.431a1.742 1.742 0 0 1 -.041 2.412l-7.238 7.3a1.744 1.744 0 0 1 -2.436.04l-15.3-14.453a1.743 1.743 0 0 1 -.038-2.5l8.24-8.281a1.744 1.744 0 0 1 2.513.051z" fill="#89c5cd"/><path d="m69.52 55.66-1.78 1.8a1.744 1.744 0 0 0 -.24-2.03l-14.3-15.43a1.737 1.737 0 0 0 -2.51-.05l-6.48 6.52a1.479 1.479 0 0 1 .3-.42l8.24-8.28a1.728 1.728 0 0 1 2.51.04l14.3 15.43a1.746 1.746 0 0 1 -.04 2.42z" fill="#6eaaad"/><g fill="#323c6b"><path d="m56.844 60.665a.5.5 0 0 1 -.356-.852l9.88-9.99a.5.5 0 0 1 .711.7l-9.88 9.99a.5.5 0 0 1 -.355.152z"/><path d="m52.323 56.4a.5.5 0 0 1 -.355-.852l10.171-10.28a.5.5 0 1 1 .711.7l-10.171 10.278a.5.5 0 0 1 -.356.154z"/><path d="m47.8 52.125a.5.5 0 0 1 -.356-.853l10.474-10.572a.5.5 0 0 1 .711.7l-10.47 10.57a.5.5 0 0 1 -.359.155z"/><path d="m65.867 59.757a.492.492 0 0 1 -.349-.143l-17.363-17a.5.5 0 1 1 .7-.714l17.363 17a.5.5 0 0 1 -.35.857z"/><path d="m61.042 63.969a2.236 2.236 0 0 1 -1.54-.608l-15.302-14.452a2.245 2.245 0 0 1 -.049-3.214l8.249-8.281a2.18 2.18 0 0 1 1.63-.661 2.23 2.23 0 0 1 1.607.719l14.291 15.428a2.239 2.239 0 0 1 -.053 3.1l-7.238 7.3a2.243 2.243 0 0 1 -1.595.669zm-7.058-26.216a1.226 1.226 0 0 0 -.88.367l-8.241 8.28a1.244 1.244 0 0 0 .028 1.782l15.3 14.452a1.249 1.249 0 0 0 1.737-.029l7.238-7.3a1.24 1.24 0 0 0 .029-1.72l-14.295-15.434a1.228 1.228 0 0 0 -.889-.4z"/><path d="m25.859 29.682h-.042a2.222 2.222 0 0 1 -1.605-.718l-14.296-15.432a2.241 2.241 0 0 1 .053-3.105l7.238-7.3a2.231 2.231 0 0 1 3.135-.051l15.3 14.452a2.244 2.244 0 0 1 .048 3.214l-8.24 8.281a2.227 2.227 0 0 1 -1.591.659zm-7.059-26.224a1.237 1.237 0 0 0 -.883.371l-7.238 7.3a1.241 1.241 0 0 0 -.03 1.721l14.3 15.431a1.233 1.233 0 0 0 .889.4 1.291 1.291 0 0 0 .9-.367l8.24-8.281a1.243 1.243 0 0 0 -.027-1.782l-15.297-14.451a1.241 1.241 0 0 0 -.854-.342z"/><path d="m13.12 16.76a.5.5 0 0 1 -.355-.852l9.88-9.99a.5.5 0 1 1 .71.7l-9.879 9.989a.5.5 0 0 1 -.356.153z"/><path d="m21.57 25.88a.493.493 0 0 1 -.351-.145.5.5 0 0 1 0-.707l10.47-10.57a.5.5 0 0 1 .711.7l-10.47 10.57a.5.5 0 0 1 -.36.152z"/><path d="m58.343 29.1a2.455 2.455 0 0 1 -1.739-.718l-11.479-11.482a2.456 2.456 0 0 1 .007-3.482l.1-.1a10.5 10.5 0 0 1 7.417-3.041h.086a10.575 10.575 0 0 1 7.335 18.111 2.448 2.448 0 0 1 -1.727.712zm-1.031-1.425a1.462 1.462 0 0 0 2.057 0 9.574 9.574 0 0 0 -6.64-16.4 9.341 9.341 0 0 0 -6.792 2.751l-.1.1a1.456 1.456 0 0 0 -.005 2.065z"/><path d="m32.678 54.342h-.012a2.57 2.57 0 0 1 -1.835-.769l-11.173-11.351a2.643 2.643 0 0 1 .051-3.713l20.475-20.49a2.639 2.639 0 0 1 3.727-.036l11.268 11.256a2.571 2.571 0 0 1 .755 1.831 2.669 2.669 0 0 1 -.791 1.9l-20.57 20.583a2.666 2.666 0 0 1 -1.895.789zm9.4-36.113a1.683 1.683 0 0 0 -1.189.5l-20.473 20.487a1.641 1.641 0 0 0 -.045 2.3l11.173 11.356a1.578 1.578 0 0 0 1.126.47h.007a1.673 1.673 0 0 0 1.189-.5l20.57-20.582a1.674 1.674 0 0 0 .5-1.19 1.573 1.573 0 0 0 -.462-1.123l-11.274-11.257a1.585 1.585 0 0 0 -1.12-.461z"/></g><path d="m21.678 21.248a.617.617 0 0 1 .868.053l.219.231a.6.6 0 0 1 -.022.874.908.908 0 0 1 -.12.092.692.692 0 0 1 -.8-.1l-.219-.23a.677.677 0 0 1 .074-.92z" fill="#fff"/><path d="m15.815 15.188a.645.645 0 0 1 .906.028l4.292 4.494a.635.635 0 0 1 -.047.888.733.733 0 0 1 -.121.079.652.652 0 0 1 -.79-.115l-4.292-4.494a.62.62 0 0 1 .052-.88z" fill="#fff"/><path d="m17.35 21.32a.5.5 0 0 1 -.356-.852l10.17-10.28a.5.5 0 0 1 .711.7l-10.175 10.283a.494.494 0 0 1 -.35.149z" fill="#323c6b"/></svg>