<svg id="color_line" height="512" viewBox="0 0 74 74" width="512" xmlns="http://www.w3.org/2000/svg" data-name="color line"><circle cx="37" cy="37" fill="#89c5cd" r="34"/><path d="m71 37a33.909 33.909 0 0 1 -11.38 25.38 34 34 0 0 0 -48.85-47.02 34 34 0 0 1 60.23 21.64z" fill="#6eaaad"/><g fill="#323c6b"><path d="m50.581 68.67a.483.483 0 0 1 -.106-.011.5.5 0 0 1 -.384-.594c.276-1.285.51-2.654.693-4.069a50.6 50.6 0 0 0 .3-9.9 49.978 49.978 0 0 0 -6.573-21.574.5.5 0 1 1 .865-.5 51.01 51.01 0 0 1 6.706 22.006 51.668 51.668 0 0 1 -.3 10.1c-.187 1.444-.425 2.84-.707 4.152a.5.5 0 0 1 -.494.39z"/><path d="m40.8 26.65a.5.5 0 0 1 -.393-.191 50.027 50.027 0 0 0 -23.467-16.559.5.5 0 0 1 .319-.948 51.03 51.03 0 0 1 23.933 16.889.5.5 0 0 1 -.392.809z"/><path d="m44.64 52.33a.5.5 0 0 1 -.356-.852 42.459 42.459 0 0 0 5.427-6.73 41.958 41.958 0 0 0 6.432-18.28.5.5 0 0 1 .994.1 42.965 42.965 0 0 1 -6.587 18.723 43.577 43.577 0 0 1 -5.55 6.891.5.5 0 0 1 -.36.148z"/><path d="m16.74 64.8a.5.5 0 0 1 -.024-1 41.429 41.429 0 0 0 22.024-7.627.5.5 0 1 1 .58.814 42.435 42.435 0 0 1 -22.555 7.813z"/><path d="m56.759 19.63a.5.5 0 0 1 -.5-.465 41.9 41.9 0 0 0 -2.359-11.226.5.5 0 1 1 .942-.338 42.918 42.918 0 0 1 2.417 11.499.5.5 0 0 1 -.464.533z"/><path d="m45.83 55.03a.5.5 0 0 1 0-1 40.187 40.187 0 0 0 5.679-.464 41.63 41.63 0 0 0 17.748-7.125.5.5 0 0 1 .576.818 42.633 42.633 0 0 1 -18.174 7.3 41.1 41.1 0 0 1 -5.819.475z"/><path d="m15.17 42.44a.5.5 0 0 1 -.356-.148 42.769 42.769 0 0 1 -10.24-16.8.5.5 0 1 1 .951-.308 41.777 41.777 0 0 0 10 16.4.5.5 0 0 1 -.355.852z"/><path d="m38.471 54.5a.552.552 0 0 1 -.081-.006 42.6 42.6 0 0 1 -17.881-7.357.5.5 0 0 1 .582-.814 41.572 41.572 0 0 0 17.459 7.183.5.5 0 0 1 -.079.994z"/><path d="m59.81 21.09a.5.5 0 0 1 -.318-.886 40.316 40.316 0 0 0 4.247-4.049.5.5 0 0 1 .742.671 41.14 41.14 0 0 1 -4.354 4.15.494.494 0 0 1 -.317.114z"/><path d="m32.85 30.81a42.294 42.294 0 0 1 -26.338-9.077.5.5 0 1 1 .617-.787 41.3 41.3 0 0 0 25.721 8.864 42.636 42.636 0 0 0 6.573-.514.505.505 0 0 1 .571.417.5.5 0 0 1 -.417.571 43.615 43.615 0 0 1 -6.727.526z"/></g><path d="m32.593 34.265a43.287 43.287 0 0 1 -8.568-.854.65.65 0 0 1 .258-1.275 41.9 41.9 0 0 0 8.31.829.65.65 0 1 1 0 1.3z" fill="#fff"/><path d="m21.936 32.921a.646.646 0 0 1 -.179-.016c-.268-.063-.538-.128-.8-.2a.65.65 0 0 1 .321-1.259q.389.1.778.189a.65.65 0 0 1 -.116 1.282z" fill="#fff"/><path d="m46.68 28.5a.5.5 0 0 1 -.165-.972 42.31 42.31 0 0 0 6.968-3.163.5.5 0 1 1 .5.869 43.329 43.329 0 0 1 -7.133 3.238.506.506 0 0 1 -.17.028z" fill="#323c6b"/><path d="m45.83 54.54a3.705 3.705 0 1 1 -3.71-3.71 3.707 3.707 0 0 1 3.71 3.71z" fill="#eeefee"/><path d="m42.12 58.74a4.205 4.205 0 1 1 4.21-4.2 4.2 4.2 0 0 1 -4.21 4.2zm0-7.41a3.205 3.205 0 1 0 3.21 3.21 3.208 3.208 0 0 0 -3.21-3.21z" fill="#323c6b"/><path d="m60.57 22.83a3.705 3.705 0 1 1 -3.71-3.71 3.7 3.7 0 0 1 3.71 3.71z" fill="#eeefee"/><path d="m56.86 27.03a4.205 4.205 0 1 1 4.21-4.2 4.2 4.2 0 0 1 -4.21 4.2zm0-7.41a3.205 3.205 0 1 0 3.21 3.21 3.209 3.209 0 0 0 -3.21-3.21z" fill="#323c6b"/><path d="m46.83 29.04a3.705 3.705 0 1 1 -3.71-3.7 3.709 3.709 0 0 1 3.71 3.7z" fill="#eeefee"/><path d="m43.12 33.25a4.205 4.205 0 1 1 4.21-4.21 4.21 4.21 0 0 1 -4.21 4.21zm0-7.41a3.205 3.205 0 1 0 3.21 3.2 3.2 3.2 0 0 0 -3.21-3.2z" fill="#323c6b"/><path d="m21.58 44.45a3.705 3.705 0 1 1 -3.7-3.7 3.707 3.707 0 0 1 3.7 3.7z" fill="#eeefee"/><path d="m17.88 48.66a4.205 4.205 0 1 1 4.2-4.21 4.215 4.215 0 0 1 -4.2 4.21zm0-7.41a3.205 3.205 0 1 0 3.2 3.2 3.209 3.209 0 0 0 -3.2-3.2z" fill="#323c6b"/><path d="m62.783 64a.5.5 0 0 1 -.348-.858 36.791 36.791 0 0 0 5.871-7.4.5.5 0 1 1 .857.514 37.7 37.7 0 0 1 -6.031 7.6.5.5 0 0 1 -.349.144z" fill="#323c6b"/><path d="m58.938 67.25a.5.5 0 0 1 -.3-.9c.328-.243.655-.487.974-.74a.5.5 0 1 1 .621.784c-.329.26-.664.51-1 .76a.5.5 0 0 1 -.295.096z" fill="#323c6b"/><path d="m7.905 14.75a.5.5 0 0 1 -.393-.808 37.663 37.663 0 0 1 7.7-7.432.5.5 0 1 1 .582.812 36.765 36.765 0 0 0 -7.494 7.236.5.5 0 0 1 -.395.192z" fill="#323c6b"/><path d="m18.375 5.55a.5.5 0 0 1 -.252-.932c.262-.153.529-.295.8-.437l.34-.181a.5.5 0 0 1 .474.879l-.348.186c-.256.136-.512.271-.762.417a.491.491 0 0 1 -.252.068z" fill="#323c6b"/><path d="m37 71.5a34.5 34.5 0 1 1 34.5-34.5 34.54 34.54 0 0 1 -34.5 34.5zm0-68a33.5 33.5 0 1 0 33.5 33.5 33.538 33.538 0 0 0 -33.5-33.5z" fill="#323c6b"/></svg>