<svg id="color_line" height="512" viewBox="0 0 74 74" width="512" xmlns="http://www.w3.org/2000/svg" data-name="color line"><path d="m57.148 71a9.89 9.89 0 0 0 -9.848-9.016h-20.6a9.89 9.89 0 0 0 -9.848 9.016z" fill="#bbbbcd"/><path d="m43.195 54.15 2.384 7.834h-17.158l2.384-7.834" fill="#9297ab"/><path d="m45.579 62.484h-17.158a.5.5 0 0 1 -.479-.646l2.385-7.833a.5.5 0 0 1 .957.291l-2.184 7.188h15.8l-2.184-7.184a.5.5 0 1 1 .957-.291l2.385 7.833a.5.5 0 0 1 -.479.646z" fill="#323c6b"/><circle cx="37" cy="29.72" fill="#e1e6e9" r="26.556"/><path d="m63.56 29.72a26.519 26.519 0 0 1 -12.05 22.23 26.546 26.546 0 0 0 -32.77-41.5 26.547 26.547 0 0 1 44.82 19.27z" fill="#d5d6db"/><circle cx="37" cy="29.72" fill="#9297ab" r="18.003"/><path d="m37 48.223a18.5 18.5 0 1 1 18.5-18.5 18.524 18.524 0 0 1 -18.5 18.5zm0-36.006a17.5 17.5 0 1 0 17.5 17.5 17.523 17.523 0 0 0 -17.5-17.5z" fill="#323c6b"/><path d="m39.3 15.942c.014 7.993-5.127 16-15.412 16-.236 0-.454-.025-.684-.034a13.96 13.96 0 1 0 16.096-15.966z" fill="#89c5cd"/><path d="m36.983 44.17a14.389 14.389 0 0 1 -14.271-12.183.5.5 0 0 1 .12-.41.439.439 0 0 1 .393-.168l.288.016c.124.008.248.017.377.017a14.407 14.407 0 0 0 10.477-4.059 16.159 16.159 0 0 0 4.433-11.44.5.5 0 0 1 .583-.494 14.46 14.46 0 0 1 -2.4 28.721zm-13.171-11.729a13.46 13.46 0 1 0 15.981-15.9 17.057 17.057 0 0 1 -4.718 11.549 15.391 15.391 0 0 1 -11.185 4.352z" fill="#323c6b"/><path d="m57.15 71h-40.3a9.829 9.829 0 0 1 .86-3.24h35a9.907 9.907 0 0 0 -2.05-5.19 9.917 9.917 0 0 1 6.49 8.43z" fill="#9297ab"/><g fill="#323c6b"><path d="m13.881 11.856a.5.5 0 0 1 -.409-.788c.1-.147.21-.293.319-.435a.5.5 0 0 1 .793.609c-.1.132-.2.266-.294.4a.5.5 0 0 1 -.409.214z"/><path d="m15.646 9.762a.5.5 0 0 1 -.362-.846 30.417 30.417 0 0 1 6.64-5.237.5.5 0 0 1 .5.864 29.356 29.356 0 0 0 -6.421 5.065.5.5 0 0 1 -.357.154z"/><path d="m57.514 64.428a.5.5 0 0 1 -.4-.194 12.278 12.278 0 0 0 -8.38-4.679.5.5 0 1 1 .114-.993 13.26 13.26 0 0 1 9.055 5.059.5.5 0 0 1 -.394.807z"/><path d="m59.2 67.377a.442.442 0 0 1 -.421-.278l-.031-.076c-.091-.221-.182-.442-.286-.655a.5.5 0 1 1 .9-.441c.115.233.214.475.313.717a.536.536 0 0 1 -.257.689.56.56 0 0 1 -.218.044z"/></g><path d="m41.439 3.542v1.279a4.44 4.44 0 0 1 -4.434 4.444h-.01a4.44 4.44 0 0 1 -4.434-4.444v-1.279a26.25 26.25 0 0 1 8.878 0z" fill="#bbbbcd"/><path d="m37.005 9.765a4.947 4.947 0 0 1 -4.944-4.944v-1.279a.5.5 0 0 1 .415-.493 26.88 26.88 0 0 1 9.046 0 .5.5 0 0 1 .417.493v1.279a4.944 4.944 0 0 1 -4.934 4.944zm-3.944-5.8v.854a3.939 3.939 0 1 0 7.878 0v-.851a25.849 25.849 0 0 0 -7.878-.001z" fill="#323c6b"/><path d="m37 56.776a27.056 27.056 0 1 1 27.057-27.056 27.087 27.087 0 0 1 -27.057 27.056zm0-53.112a26.056 26.056 0 1 0 26.057 26.056 26.086 26.086 0 0 0 -26.057-26.056z" fill="#323c6b"/><path d="m57.147 71.5h-40.294a.5.5 0 0 1 -.5-.544 10.328 10.328 0 0 1 10.347-9.472h20.6a10.328 10.328 0 0 1 10.346 9.472.5.5 0 0 1 -.5.544zm-39.733-1h39.172a9.328 9.328 0 0 0 -9.286-8.016h-20.6a9.328 9.328 0 0 0 -9.286 8.016z" fill="#323c6b"/><path d="m23.032 27.119a.686.686 0 0 1 -.148-.017.65.65 0 0 1 -.486-.781 14.913 14.913 0 0 1 4.278-7.45.649.649 0 1 1 .894.942 13.63 13.63 0 0 0 -3.906 6.8.65.65 0 0 1 -.632.506z" fill="#fff"/><path d="m29.127 18.375a.65.65 0 0 1 -.357-1.193c.2-.129.395-.253.6-.373a.65.65 0 0 1 .664 1.118q-.278.165-.548.342a.643.643 0 0 1 -.359.106z" fill="#fff"/></svg>