<svg id="color_line" height="512" viewBox="0 0 74 74" width="512" xmlns="http://www.w3.org/2000/svg" data-name="color line"><rect fill="#9297ab" height="36.46" rx="3.833" width="52.33" x="10.835" y="12.662"/><path d="m63.16 16.49v28.8a3.822 3.822 0 0 1 -2.82 3.69 3.67 3.67 0 0 0 .15-1.06v-28.79a3.83 3.83 0 0 0 -3.83-3.83h-44.67a3.66 3.66 0 0 0 -1 .14 3.825 3.825 0 0 1 3.68-2.78h44.66a3.83 3.83 0 0 1 3.83 3.83z" fill="#84879c"/><path d="m23.786 9.742h26.428v42.299h-26.428z" fill="#89c5cd" transform="matrix(0 1 -1 0 67.891 -6.109)"/><path d="m55.32 17.68h2.83v26.43h-2.83z" fill="#6eaaad"/><path d="m61.452 49.121h-48.9a3.058 3.058 0 0 0 -2.612 1.461l-6.49 9.085a3.871 3.871 0 0 0 3.427 5.671h60.246a3.871 3.871 0 0 0 3.427-5.671l-6.49-9.085a3.058 3.058 0 0 0 -2.608-1.461z" fill="#9297ab"/><path d="m67.12 65.34h-3.41a3.867 3.867 0 0 0 3.42-5.67l-6.49-9.09a3.041 3.041 0 0 0 -2.61-1.46h3.42a3.053 3.053 0 0 1 2.61 1.46l6.49 9.09a3.872 3.872 0 0 1 -3.43 5.67z" fill="#84879c"/><g fill="#323c6b"><path d="m44.272 60.551h-14.172a.5.5 0 0 1 0-1h14.172a.5.5 0 1 1 0 1z"/><path d="m8.161 14.917a.509.509 0 0 1 -.153-.024.5.5 0 0 1 -.323-.629 7.385 7.385 0 0 1 5.864-5.011.5.5 0 1 1 .152.988 6.379 6.379 0 0 0 -5.064 4.328.5.5 0 0 1 -.476.348z"/><path d="m16.5 10.162h-.75a.5.5 0 0 1 0-1h.75a.5.5 0 0 1 0 1z"/><path d="m67.124 68.838h-3.291a.5.5 0 0 1 0-1h3.291a6.291 6.291 0 0 0 3.9-1.336.5.5 0 0 1 .615.79 7.288 7.288 0 0 1 -4.515 1.546z"/><path d="m61.917 68.838h-.729a.5.5 0 0 1 0-1h.729a.5.5 0 0 1 0 1z"/><path d="m59.332 49.621h-44.664a4.338 4.338 0 0 1 -4.333-4.333v-28.788a4.338 4.338 0 0 1 4.333-4.333h44.664a4.338 4.338 0 0 1 4.333 4.333v28.788a4.338 4.338 0 0 1 -4.333 4.333zm-44.664-36.459a3.337 3.337 0 0 0 -3.333 3.338v28.788a3.338 3.338 0 0 0 3.333 3.333h44.664a3.338 3.338 0 0 0 3.333-3.333v-28.788a3.337 3.337 0 0 0 -3.333-3.333z"/><path d="m58.149 44.605h-42.3a.5.5 0 0 1 -.5-.5v-26.428a.5.5 0 0 1 .5-.5h42.3a.5.5 0 0 1 .5.5v26.428a.5.5 0 0 1 -.5.5zm-41.8-1h41.3v-25.428h-41.3z"/><path d="m67.124 65.838h-60.248a4.37 4.37 0 0 1 -3.869-6.4l6.526-9.142a3.562 3.562 0 0 1 3.015-1.671h48.9a3.582 3.582 0 0 1 3.035 1.7l6.47 9.055a4.366 4.366 0 0 1 -3.833 6.462zm-54.576-16.217a2.576 2.576 0 0 0 -2.182 1.222l-6.51 9.114a3.377 3.377 0 0 0 3.02 4.881h60.248a3.371 3.371 0 0 0 2.984-4.938l-6.454-9.026a2.6 2.6 0 0 0 -2.2-1.252z"/></g><path d="m27.118 51.861a.685.685 0 0 1 .713-.655h.355a.669.669 0 0 1 .685.692 1.069 1.069 0 0 1 -.02.168.768.768 0 0 1 -.694.567h-.354a.754.754 0 0 1 -.685-.772z" fill="#fff"/><path d="m17.251 51.916a.717.717 0 0 1 .723-.7h7.4a.706.706 0 0 1 .675.724.74.74 0 0 1 -.029.158.727.727 0 0 1 -.7.545h-7.4a.69.69 0 0 1 -.669-.727z" fill="#fff"/></svg>