<svg id="color_line" height="512" viewBox="0 0 74 74" width="512" xmlns="http://www.w3.org/2000/svg" data-name="color line"><path d="m48.996 66.25-2.431-9.314h-19.13l-2.431 9.314z" fill="#d5d6db"/><path d="m49 66.75h-24a.5.5 0 0 1 -.484-.626l2.431-9.315a.5.5 0 0 1 .484-.373h19.13a.5.5 0 0 1 .484.373l2.431 9.315a.5.5 0 0 1 -.476.626zm-23.345-1h22.7l-2.17-8.314h-18.364z" fill="#323c6b"/><path d="m54.382 70.514h-34.764v-.15a4.475 4.475 0 0 1 4.213-4.7h26.338a4.475 4.475 0 0 1 4.213 4.7z" fill="#eeefee"/><path d="m54.38 70.36v.15h-34.76v-.15a5.026 5.026 0 0 1 .53-2.27h30.56v-.15a5.026 5.026 0 0 0 -.53-2.27 4.465 4.465 0 0 1 4.2 4.69z" fill="#e1e6e9"/><rect fill="#eeefee" height="53.935" rx="4.03" width="68" x="3" y="4"/><path d="m71 8.03v45.88a4.032 4.032 0 0 1 -3.18 3.94 4.027 4.027 0 0 0 .18-1.21v-45.88a4.031 4.031 0 0 0 -4.03-4.03h-59.94a3.953 3.953 0 0 0 -.85.09 4.031 4.031 0 0 1 3.85-2.82h59.94a4.025 4.025 0 0 1 4.03 4.03z" fill="#e1e6e9"/><path d="m18.995-1.995h36.01v58h-36.01z" fill="#89c5cd" transform="matrix(0 -1 1 0 9.995 64.005)"/><path d="m66 9v36.01h-2.74v-33.08h-55.26v-2.93z" fill="#6eaaad"/><circle cx="37" cy="51.144" fill="#323c6b" r="2.103"/><path d="m42.866 34.283a2.8 2.8 0 0 0 1.643-2.554v-9.616a6.859 6.859 0 0 0 -1.018-3.607 7.645 7.645 0 0 0 -5.391-3.447 4.434 4.434 0 0 0 -3.8 1.054l1.7.41a3.742 3.742 0 0 0 -4.4.786 7.655 7.655 0 0 0 -1.946 3.59 9.046 9.046 0 0 0 -.232 2.035l-.152 8.75a2.822 2.822 0 0 0 1.723 2.643 11.262 11.262 0 0 0 11.873-.044z" fill="#707583"/><path d="m36.819 36.5a12.039 12.039 0 0 1 -6.088-1.737 3.286 3.286 0 0 1 -1.972-3.083l.152-8.752a9.489 9.489 0 0 1 .246-2.145 8.192 8.192 0 0 1 2.077-3.823 4.518 4.518 0 0 1 2.843-1.334 5.006 5.006 0 0 1 4.087-1.06 8.123 8.123 0 0 1 5.751 3.677 7.4 7.4 0 0 1 1.094 3.873v9.616a3.3 3.3 0 0 1 -1.917 3 12.767 12.767 0 0 1 -6.273 1.768zm-2.581-19.886a3.54 3.54 0 0 0 -2.294 1.047 7.193 7.193 0 0 0 -1.816 3.357 8.544 8.544 0 0 0 -.217 1.922l-.152 8.753a2.317 2.317 0 0 0 1.419 2.174 10.749 10.749 0 0 0 11.443-.02.3.3 0 0 1 .04-.02 2.3 2.3 0 0 0 1.348-2.1v-9.552a6.433 6.433 0 0 0 -.942-3.4 7.109 7.109 0 0 0 -5.035-3.216 4.763 4.763 0 0 0 -2.4.249 2.876 2.876 0 0 1 .627.3.5.5 0 0 1 .193.617.493.493 0 0 1 -.578.29z" fill="#323c6b"/><path d="m50.7 45.01h-27.4a15.905 15.905 0 0 1 1.34-6.78c1.12-2.37 5.89-3.87 8.56-4.52a4.974 4.974 0 0 0 4.28 1.73 4.908 4.908 0 0 0 3.28-1.74c2.67.65 7.48 2.15 8.6 4.53a15.905 15.905 0 0 1 1.34 6.78z" fill="#fe7058"/><path d="m50.7 45.01h-3.17a15.905 15.905 0 0 0 -1.34-6.78c-.82-1.75-3.64-3.02-6.14-3.84a5.155 5.155 0 0 0 .71-.69c2.67.65 7.48 2.15 8.6 4.53a15.905 15.905 0 0 1 1.34 6.78z" fill="#ea6453"/><path d="m42 26.78v.22a5.1 5.1 0 0 1 -4.526 5.128 5.005 5.005 0 0 1 -5.474-4.985v-2.912a5 5 0 0 1 3.45-4.758 4.657 4.657 0 0 0 3.184 2.485 3.929 3.929 0 0 1 2.085 1.273 5.314 5.314 0 0 1 1.281 3.549z" fill="#fcd462"/><g fill="#323c6b"><path d="m36.991 32.65a5.438 5.438 0 0 1 -3.691-1.434 5.521 5.521 0 0 1 -1.8-4.072v-2.913a5.482 5.482 0 0 1 3.792-5.231.5.5 0 0 1 .615.28 4.125 4.125 0 0 0 2.832 2.192 4.395 4.395 0 0 1 2.349 1.428 5.8 5.8 0 0 1 1.412 3.88v.22a5.624 5.624 0 0 1 -4.98 5.626c-.174.016-.353.024-.529.024zm-1.778-12.556a4.487 4.487 0 0 0 -2.713 4.137v2.913a4.52 4.52 0 0 0 1.473 3.333 4.451 4.451 0 0 0 3.463 1.152 4.616 4.616 0 0 0 4.064-4.629v-.22a4.81 4.81 0 0 0 -1.162-3.217 3.421 3.421 0 0 0 -1.82-1.116 5.177 5.177 0 0 1 -3.305-2.353z"/><path d="m65.167 61.436h-8.636a.5.5 0 0 1 0-1h8.636a.5.5 0 0 1 0 1z"/><path d="m54.4 61.436h-.521a.5.5 0 0 1 0-1h.521a.5.5 0 0 1 0 1z"/><path d="m.611 5.25a.494.494 0 0 1 -.211-.05.5.5 0 0 1 -.242-.664 7.009 7.009 0 0 1 6.321-4.036h.979a.5.5 0 0 1 0 1h-.979a6.005 6.005 0 0 0 -5.415 3.461.5.5 0 0 1 -.453.289z"/><path d="m10 1.5h-.542a.5.5 0 0 1 0-1h.542a.5.5 0 0 1 0 1z"/><path d="m66.97 58.436h-59.94a4.536 4.536 0 0 1 -4.53-4.531v-45.874a4.536 4.536 0 0 1 4.53-4.531h59.94a4.536 4.536 0 0 1 4.53 4.531v45.874a4.536 4.536 0 0 1 -4.53 4.531zm-59.94-53.936a3.534 3.534 0 0 0 -3.53 3.531v45.874a3.534 3.534 0 0 0 3.53 3.531h59.94a3.534 3.534 0 0 0 3.53-3.531v-45.874a3.534 3.534 0 0 0 -3.53-3.531z"/><path d="m66 45.51h-58a.5.5 0 0 1 -.5-.5v-36.01a.5.5 0 0 1 .5-.5h58a.5.5 0 0 1 .5.5v36.01a.5.5 0 0 1 -.5.5zm-57.5-1h57v-35.01h-57z"/><path d="m50.7 45.51h-27.4a.5.5 0 0 1 -.5-.473 16.269 16.269 0 0 1 1.388-7.019c1.22-2.584 6.1-4.113 8.894-4.794a.5.5 0 0 1 .5.162 4.487 4.487 0 0 0 3.852 1.556 4.4 4.4 0 0 0 2.943-1.564.5.5 0 0 1 .5-.164c2.815.685 7.719 2.221 8.935 4.8a16.282 16.282 0 0 1 1.387 7.02.5.5 0 0 1 -.499.476zm-26.907-1h26.413a15.4 15.4 0 0 0 -1.3-6.068c-.73-1.552-3.7-3.108-7.975-4.184a5.391 5.391 0 0 1 -3.4 1.68 5.526 5.526 0 0 1 -4.5-1.67c-4.246 1.069-7.2 2.622-7.937 4.175a15.387 15.387 0 0 0 -1.301 6.067z"/><path d="m54.382 71.014h-34.764a.5.5 0 0 1 -.5-.5v-.15a4.978 4.978 0 0 1 4.714-5.2h26.336a4.978 4.978 0 0 1 4.714 5.2v.15a.5.5 0 0 1 -.5.5zm-34.251-1h33.738a3.935 3.935 0 0 0 -3.7-3.847h-26.337a3.935 3.935 0 0 0 -3.701 3.847z"/></g><path d="m10.925 36.089a.736.736 0 0 1 .7.765v.38a.718.718 0 0 1 -.743.735 1.106 1.106 0 0 1 -.18-.022.823.823 0 0 1 -.608-.744v-.38a.807.807 0 0 1 .831-.734z" fill="#fff"/><path d="m10.866 25.5a.77.77 0 0 1 .757.775v7.934a.758.758 0 0 1 -.777.725.909.909 0 0 1 -.169-.031.78.78 0 0 1 -.585-.754l-.005-7.934a.742.742 0 0 1 .779-.715z" fill="#fff"/></svg>