<svg id="color_line" height="512" viewBox="0 0 74 74" width="512" xmlns="http://www.w3.org/2000/svg" data-name="color line"><path d="m3.659 25.793 33.341 25.481 33.341-25.481v45.207h-66.682z" fill="#fcd462"/><path d="m70.34 25.79v45.21h-66.68v-4.15h62.68v-38z" fill="#f7be56"/><path d="m37 3-33.341 22.793 33.341 25.481 33.341-25.481z" fill="#fcd462"/><path d="m37 51.774a.5.5 0 0 1 -.3-.1l-33.346-25.484a.507.507 0 0 1 -.2-.411.5.5 0 0 1 .218-.4l33.346-22.792a.5.5 0 0 1 .564 0l33.342 22.793a.5.5 0 0 1 .218.4.507.507 0 0 1 -.2.411l-33.342 25.48a.5.5 0 0 1 -.3.103zm-32.489-25.959 32.489 24.83 32.489-24.83-32.489-22.21z" fill="#323c6b"/><path d="m3.659 25.793 33.341 25.481 33.341-25.481" fill="#fcd462"/><path d="m37 51.774a.5.5 0 0 1 -.3-.1l-33.346-25.484a.5.5 0 0 1 .608-.8l33.038 25.255 33.038-25.245a.5.5 0 0 1 .608.8l-33.346 25.471a.5.5 0 0 1 -.3.103z" fill="#323c6b"/><path d="m3.658 71.5a.5.5 0 0 1 -.326-.879l27.835-23.937a.5.5 0 1 1 .652.758l-27.835 23.937a.5.5 0 0 1 -.326.121z" fill="#323c6b"/><path d="m70.342 71.5a.5.5 0 0 1 -.326-.121l-27.835-23.937a.5.5 0 0 1 .652-.758l27.835 23.937a.5.5 0 0 1 -.326.879z" fill="#323c6b"/><path d="m60.03 8v25.67l-23.03 17.6-23.03-17.6v-25.67z" fill="#eeefee"/><path d="m60.03 8v25.67l-23.03 17.6-2.06-1.58 22.34-17.07v-24.62z" fill="#e1e6e9"/><path d="m20.767 14.625h13.483v11.558h-13.483z" fill="#fe7058"/><path d="m31.625 14.62h2.625v11.56h-2.625z" fill="#ea6453"/><g fill="#323c6b"><path d="m53.5 17.117h-13.25a.5.5 0 0 1 0-1h13.25a.5.5 0 0 1 0 1z"/><path d="m53.5 24.871h-13.25a.5.5 0 0 1 0-1h13.25a.5.5 0 0 1 0 1z"/><path d="m52 32.625h-30a.5.5 0 0 1 0-1h30a.5.5 0 0 1 0 1z"/><path d="m73.342 47.417a.5.5 0 0 1 -.5-.5v-.667a.5.5 0 0 1 1 0v.667a.5.5 0 0 1 -.5.5z"/><path d="m73.342 59.417a.5.5 0 0 1 -.5-.5v-9.834a.5.5 0 0 1 1 0v9.834a.5.5 0 0 1 -.5.5z"/><path d="m23.364 5.5h-8.13a.5.5 0 0 1 0-1h8.13a.5.5 0 0 1 0 1z"/><path d="m25.927 5.5h-.594a.5.5 0 0 1 0-1h.594a.5.5 0 0 1 0 1z"/><path d="m70.342 71.5h-66.684a.5.5 0 0 1 -.5-.5v-45.208a.5.5 0 0 1 .8-.4l33.042 25.253 33.038-25.245a.5.5 0 0 1 .525-.051.5.5 0 0 1 .279.448v45.203a.5.5 0 0 1 -.5.5zm-66.184-1h65.684v-43.7l-32.542 24.871a.5.5 0 0 1 -.608 0l-32.534-24.871z"/><path d="m37 51.77a.5.5 0 0 1 -.3-.1l-23.03-17.6a.5.5 0 0 1 -.2-.4v-25.67a.5.5 0 0 1 .5-.5h46.06a.5.5 0 0 1 .5.5v25.67a.5.5 0 0 1 -.2.4l-23.03 17.597a.5.5 0 0 1 -.3.103zm-22.53-18.347 22.53 17.218 22.53-17.218v-24.923h-45.06z"/><path d="m34.25 26.683h-13.483a.5.5 0 0 1 -.5-.5v-11.558a.5.5 0 0 1 .5-.5h13.483a.5.5 0 0 1 .5.5v11.558a.5.5 0 0 1 -.5.5zm-12.983-1h12.483v-10.558h-12.483z"/></g><path d="m19.949 41.771a.735.735 0 0 1 1.035-.093l.3.233a.719.719 0 0 1 .131 1.037 1.189 1.189 0 0 1 -.126.13.825.825 0 0 1 -.961.03l-.3-.233a.806.806 0 0 1 -.079-1.104z" fill="#fff"/><path d="m11.511 35.38a.768.768 0 0 1 1.075-.129l6.3 4.821a.758.758 0 0 1 .1 1.058.966.966 0 0 1 -.128.116.782.782 0 0 1 -.955 0l-6.3-4.821a.74.74 0 0 1 -.092-1.045z" fill="#fff"/></svg>