<svg id="color_line" height="512" viewBox="0 0 74 74" width="512" xmlns="http://www.w3.org/2000/svg" data-name="color line"><path d="m14.3 51.317-1.765 16.891 17.965-9.291a42.8 42.8 0 0 0 8.5.85c18.775 0 34-12.075 34-27 0-14.9-15.225-26.975-34-26.975s-34 12.075-34 26.975c0 7.175 3.525 13.7 9.3 18.55z" fill="#27ccbc"/><path d="m65.44 49.74a22.781 22.781 0 0 0 4.56-13.51c0-14.9-15.23-26.98-34-26.98-10.68 0-20.21 3.91-26.44 10.02 5.88-8.06 16.87-13.48 29.44-13.48 18.77 0 34 12.08 34 26.98a23.712 23.712 0 0 1 -7.56 16.97z" fill="#21b3a9"/><g fill="#323c6b"><path d="m6.94 48.042a.5.5 0 0 1 -.4-.2c-.12-.156-.238-.311-.354-.469a.5.5 0 0 1 .814-.584c.109.15.222.3.336.447a.5.5 0 0 1 -.4.806z"/><path d="m5.206 45.5a.5.5 0 0 1 -.438-.259 26.047 26.047 0 0 1 -3.055-9.261.5.5 0 0 1 .433-.56.508.508 0 0 1 .559.433 25.047 25.047 0 0 0 2.94 8.906.5.5 0 0 1 -.2.679.494.494 0 0 1 -.239.062z"/><path d="m56.75 6.975a.5.5 0 0 1 -.2-.043c-.276-.123-.559-.237-.842-.351l-.31-.125a.5.5 0 1 1 .376-.926l.307.123c.294.119.588.237.875.365a.5.5 0 0 1 -.2.957z"/><path d="m66.833 13.55a.5.5 0 0 1 -.34-.133 35.39 35.39 0 0 0 -7.149-5.106.5.5 0 1 1 .478-.878 36.436 36.436 0 0 1 7.351 5.25.5.5 0 0 1 -.34.867z"/></g><path d="m44.322 36.394-1.613 1.129a2.031 2.031 0 0 1 -2.829-.5l-6.114-8.738a2.03 2.03 0 0 1 .5-2.828l1.619-1.133-5.823-8.324c-2.248 1.873-4.193 3.9-4.468 5.462-1.286 7.254 10.646 24.304 17.906 25.582 1.562.277 4.123-.857 6.649-2.322z" fill="#eeefee"/><path d="m44.009 47.586a3.452 3.452 0 0 1 -.6-.05c-4.163-.736-9.175-6.036-12.477-10.756s-6.568-11.244-5.832-15.406c.261-1.491 1.78-3.375 4.64-5.759a.515.515 0 0 1 .387-.111.5.5 0 0 1 .344.209l5.821 8.326a.5.5 0 0 1 -.123.7l-1.618 1.132a1.532 1.532 0 0 0 -.375 2.129l6.113 8.737a1.535 1.535 0 0 0 2.133.377l1.613-1.129a.5.5 0 0 1 .7.123l5.823 8.327a.5.5 0 0 1 -.159.719c-2.815 1.631-4.915 2.432-6.39 2.432zm-14.042-30.851c-2.94 2.519-3.738 4-3.881 4.813-.564 3.182 1.66 8.935 5.665 14.659s8.649 9.784 11.832 10.345c.8.141 2.468-.1 5.838-1.993l-5.221-7.468-1.2.842a2.533 2.533 0 0 1 -3.525-.622l-6.115-8.738a2.535 2.535 0 0 1 .623-3.525l1.209-.846z" fill="#323c6b"/><path d="m37.5 23.193a1.5 1.5 0 0 0 .368-2.082l-4.181-5.974a1.492 1.492 0 0 0 -2.127-.337c-.5.387-1.008.788-1.5 1.2l5.822 8.326z" fill="#eeefee"/><path d="m35.884 24.825a.421.421 0 0 1 -.087-.008.5.5 0 0 1 -.323-.205l-5.822-8.326a.5.5 0 0 1 .09-.67c.494-.413 1-.818 1.513-1.21a1.959 1.959 0 0 1 1.508-.386 2.011 2.011 0 0 1 1.336.83l4.18 5.975a2 2 0 0 1 -.49 2.777l-1.618 1.133a.505.505 0 0 1 -.287.09zm-5.147-8.734 5.27 7.538 1.208-.846a1 1 0 0 0 .245-1.383l-4.181-5.975a.994.994 0 0 0 -.668-.415.982.982 0 0 0 -.747.191c-.378.289-.756.587-1.127.89z" fill="#323c6b"/><path d="m51.8 43.723a1.494 1.494 0 0 0 .417-2.116l-4.186-5.981a1.5 1.5 0 0 0 -2.082-.368l-1.623 1.136 5.823 8.328c.551-.322 1.106-.656 1.651-.999z" fill="#eeefee"/><path d="m50.145 45.222a.5.5 0 0 1 -.411-.214l-5.822-8.327a.5.5 0 0 1 .123-.7l1.623-1.136a2 2 0 0 1 2.779.49l4.185 5.982a2 2 0 0 1 .322 1.538 1.967 1.967 0 0 1 -.88 1.286c-.546.347-1.107.684-1.668 1.009a.5.5 0 0 1 -.251.072zm-5.126-8.7 5.271 7.539c.417-.246.831-.5 1.237-.756a.975.975 0 0 0 .436-.638.987.987 0 0 0 -.161-.769l-4.185-5.981a1 1 0 0 0 -1.387-.245z" fill="#323c6b"/><path d="m12.534 68.708a.5.5 0 0 1 -.5-.552l1.738-16.628c-5.981-5.111-9.272-11.764-9.272-18.761 0-15.15 15.477-27.475 34.5-27.475s34.5 12.325 34.5 27.475-15.477 27.5-34.5 27.5a43.6 43.6 0 0 1 -8.426-.825l-17.81 9.21a.51.51 0 0 1 -.23.056zm26.466-62.416c-18.472 0-33.5 11.876-33.5 26.475 0 6.775 3.239 13.227 9.121 18.167a.5.5 0 0 1 .176.435l-1.669 15.969 17.143-8.865a.506.506 0 0 1 .328-.046 42.565 42.565 0 0 0 8.4.84c18.472 0 33.5-11.888 33.5-26.5s-15.027-26.475-33.499-26.475z" fill="#323c6b"/><path d="m45.374 55.882a.65.65 0 0 1 -.106-1.291 35.4 35.4 0 0 0 7.487-2.091.65.65 0 1 1 .49 1.2 36.717 36.717 0 0 1 -7.763 2.171.656.656 0 0 1 -.108.011z" fill="#fff"/><path d="m42 56.287a.65.65 0 0 1 -.05-1.3l.332-.024c.2-.014.4-.027.59-.047a.65.65 0 0 1 .128 1.295c-.21.021-.422.036-.634.051l-.319.023z" fill="#fff"/></svg>