<svg id="color_line" height="512" viewBox="0 0 74 74" width="512" xmlns="http://www.w3.org/2000/svg" data-name="color line"><path d="m20.422 62.154 6.212 2.067a25.284 25.284 0 0 0 8.018 1.3h23.736a4.572 4.572 0 0 0 0-9.144h4.627a4.578 4.578 0 1 0 0-9.155h1.564a4.554 4.554 0 0 0 3.237-1.345 4.6 4.6 0 0 0 1.258-4.167 4.7 4.7 0 0 0 -4.659-3.642h-6.027a4.578 4.578 0 0 0 0-9.155h-18.618c2.275-2.913 5.23-9.873 5.249-13.808.015-3.144-.952-6.146-4.069-6.573a5.122 5.122 0 0 0 -.7-.055 5.052 5.052 0 0 0 -4.9 3.982c-.076.339-.164.678-.262 1.006-1.925 6.694-7.808 14.706-14.666 15.363z" fill="#fcd462"/><path d="m62.75 62.23a3.948 3.948 0 0 0 .21-1.28 4.569 4.569 0 0 0 -4.57-4.57h-3.5c2.52 0 4.62 1.776 4.57 3.707v.007a2.3 2.3 0 0 1 -2.291 2.256h-22.519a25.463 25.463 0 0 1 -8.02-1.3l-6.21-2.07v3.17l6.21 2.07a25.18 25.18 0 0 0 8.02 1.3h23.74a6.254 6.254 0 0 0 1.889-.406 4.476 4.476 0 0 0 2.471-2.884c-.73.01.57-.01 0 0z" fill="#f7be56"/><path d="m45.02 15.11c-.02 3.93-2.97 10.88-5.25 13.81h-3.5c2.28-2.93 5.23-9.88 5.25-13.81.01-2.77-.73-5.42-3.03-6.31a4.948 4.948 0 0 1 1.76-.32 5.625 5.625 0 0 1 .7.05c3.12.43 4.08 3.43 4.07 6.58z" fill="#f7be56"/><path d="m58.13 36.74a4.625 4.625 0 0 0 1.33-3.24 4.571 4.571 0 0 0 -4.57-4.58h3.5a4.571 4.571 0 0 1 4.57 4.58 4.541 4.541 0 0 1 -4.57 4.57h-3.5a4.607 4.607 0 0 0 3.24-1.33z" fill="#f7be56"/><path d="m64.58 47.22h-1.57a4.58 4.58 0 0 1 0 9.16h-3.5a4.58 4.58 0 1 0 0-9.16h1.57a4.583 4.583 0 0 0 4.49-5.51 4.7 4.7 0 0 0 -4.66-3.64h3.5a4.7 4.7 0 0 1 4.66 3.64 4.583 4.583 0 0 1 -4.49 5.51z" fill="#f7be56"/><path d="m58.388 38.57h-6.639a.5.5 0 0 1 0-1h6.639a.5.5 0 0 1 0 1z" fill="#323c6b"/><path d="m62.982 47.684h-9.46a.5.5 0 1 1 0-1h9.46a.5.5 0 0 1 0 1z" fill="#323c6b"/><path d="m58.388 56.879h-4.7a.5.5 0 0 1 0-1h4.7a.5.5 0 0 1 0 1z" fill="#323c6b"/><rect fill="#05afd6" height="37.386" rx="2.25" width="15.586" x="4.836" y="27.046"/><path d="m20.42 58.63v3.55a2.247 2.247 0 0 1 -2.25 2.25h-11.08a2.241 2.241 0 0 1 -2.25-2.25v-3.55a2.247 2.247 0 0 0 2.25 2.25h11.08a2.253 2.253 0 0 0 2.25-2.25z" fill="#27a2db"/><circle cx="12.629" cy="58.142" fill="#eeefee" r="2.61"/><g fill="#323c6b"><path d="m12.629 61.252a3.11 3.11 0 1 1 3.11-3.11 3.113 3.113 0 0 1 -3.11 3.11zm0-5.22a2.11 2.11 0 1 0 2.11 2.11 2.112 2.112 0 0 0 -2.11-2.11z"/><path d="m47.785 18a.507.507 0 0 1 -.086-.007.5.5 0 0 1 -.408-.578 14.131 14.131 0 0 0 .228-2.3 10.77 10.77 0 0 0 -1.752-6.44.5.5 0 1 1 .806-.591 11.742 11.742 0 0 1 1.946 7.035 15.025 15.025 0 0 1 -.242 2.462.5.5 0 0 1 -.492.419z"/><path d="m47.184 20.583a.506.506 0 0 1 -.148-.022.5.5 0 0 1 -.33-.625c.057-.183.112-.366.164-.547a.5.5 0 1 1 .961.275q-.081.282-.17.567a.5.5 0 0 1 -.477.352z"/><path d="m10.906 67.933h-.687a.5.5 0 1 1 0-1h.687a.5.5 0 1 1 0 1z"/><path d="m7.708 67.933h-.622a5.757 5.757 0 0 1 -5.75-5.75v-.683a.5.5 0 0 1 1 0v.683a4.756 4.756 0 0 0 4.75 4.75h.622a.5.5 0 0 1 0 1z"/><path d="m58.388 66.022h-23.737a25.687 25.687 0 0 1 -8.174-1.327l-6.213-2.067a.5.5 0 0 1 -.342-.474v-33.326a.5.5 0 0 1 .452-.5c6.385-.611 12.251-8.108 14.233-15 .1-.324.181-.651.256-.979a5.465 5.465 0 0 1 6.156-4.311c2.921.4 4.52 2.911 4.5 7.071-.017 3.611-2.51 9.928-4.774 13.307h17.643a5.075 5.075 0 0 1 3.03 9.155h3a5.191 5.191 0 0 1 5.149 4.042 5.124 5.124 0 0 1 -1.394 4.62 5.052 5.052 0 0 1 -2.347 1.339 5.079 5.079 0 0 1 -2.808 9.308h-1.61a5.066 5.066 0 0 1 -3.02 9.143zm-37.466-4.229 5.871 1.954a24.723 24.723 0 0 0 7.858 1.275h23.737a4.072 4.072 0 1 0 0-8.143.5.5 0 0 1 0-1h4.627a4.077 4.077 0 1 0 0-8.154.5.5 0 0 1 0-1h1.564a4.052 4.052 0 0 0 2.884-1.2 4.124 4.124 0 0 0 1.121-3.717 4.19 4.19 0 0 0 -4.169-3.238h-6.027a.5.5 0 0 1 0-1 4.078 4.078 0 0 0 0-8.155h-18.617a.5.5 0 0 1 -.4-.807c2.3-2.953 5.125-9.765 5.143-13.5.012-2.543-.609-5.661-3.636-6.075a4.47 4.47 0 0 0 -5.044 3.54c-.08.352-.17.7-.273 1.041-2.027 7.051-8.014 14.716-14.644 15.662z"/><path d="m18.172 64.933h-11.086a2.753 2.753 0 0 1 -2.75-2.75v-32.883a2.753 2.753 0 0 1 2.75-2.75h11.086a2.754 2.754 0 0 1 2.75 2.75v32.883a2.754 2.754 0 0 1 -2.75 2.75zm-11.086-37.387a1.752 1.752 0 0 0 -1.75 1.75v32.887a1.753 1.753 0 0 0 1.75 1.75h11.086a1.753 1.753 0 0 0 1.75-1.75v-32.883a1.752 1.752 0 0 0 -1.75-1.75z"/></g><path d="m8.337 46.4a.736.736 0 0 1 .7.764v.38a.72.72 0 0 1 -.743.736 1.1 1.1 0 0 1 -.18-.021.825.825 0 0 1 -.609-.744v-.38a.807.807 0 0 1 .832-.735z" fill="#fff"/><path d="m8.266 35.819a.771.771 0 0 1 .758.775l.013 7.934a.757.757 0 0 1 -.776.725.857.857 0 0 1 -.17-.031.78.78 0 0 1 -.585-.753l-.014-7.934a.742.742 0 0 1 .774-.716z" fill="#fff"/></svg>