<svg id="color_line" height="512" viewBox="0 0 74 74" width="512" xmlns="http://www.w3.org/2000/svg" data-name="color line"><path d="m54.172 30.33v36.25a4.421 4.421 0 0 1 -4.42 4.42h-34.5a4.421 4.421 0 0 1 -4.42-4.42v-59.16a4.421 4.421 0 0 1 4.42-4.42h34.5a4.421 4.421 0 0 1 4.42 4.42v8.25" fill="#9297ab"/><path d="m54.17 7.42v59.16a4.413 4.413 0 0 1 -3.15 4.23 4.382 4.382 0 0 0 .28-1.54v-59.16a4.421 4.421 0 0 0 -4.42-4.42h-34.5a4.112 4.112 0 0 0 -1.27.19 4.413 4.413 0 0 1 4.14-2.88h34.5a4.421 4.421 0 0 1 4.42 4.42z" fill="#84879c"/><path d="m48.732 32.71v24.05h-32.46v-45.18h32.46v4.09" fill="#eeefee"/><path d="m48.73 11.58v45.18h-2.87v-42.45h-29.59v-2.73z" fill="#e1e6e9"/><circle cx="32.502" cy="63.708" fill="#707583" r="2.625"/><path d="m32.5 66.833a3.125 3.125 0 1 1 3.125-3.125 3.128 3.128 0 0 1 -3.125 3.125zm0-5.25a2.125 2.125 0 1 0 2.125 2.125 2.128 2.128 0 0 0 -2.125-2.125z" fill="#323c6b"/><path d="m37.748 37.99a2.5 2.5 0 0 0 1.469-2.284v-8.6a6.137 6.137 0 0 0 -.91-3.226 6.836 6.836 0 0 0 -4.823-3.08 3.966 3.966 0 0 0 -3.4.942l1.517.367a3.343 3.343 0 0 0 -3.936.7 6.846 6.846 0 0 0 -1.741 3.21 8.149 8.149 0 0 0 -.208 1.821l-.135 7.825a2.527 2.527 0 0 0 1.539 2.365c3.401 2.309 6.954 2.122 10.628-.04z" fill="#707583"/><path d="m32.2 40.184a9.4 9.4 0 0 1 -5.356-1.741 2.963 2.963 0 0 1 -1.76-2.785l.136-7.826a8.614 8.614 0 0 1 .221-1.93 7.369 7.369 0 0 1 1.872-3.444 4.088 4.088 0 0 1 2.556-1.206 4.532 4.532 0 0 1 3.686-.95 7.316 7.316 0 0 1 5.18 3.312 6.661 6.661 0 0 1 .988 3.492v8.6a3.006 3.006 0 0 1 -1.739 2.728 11.443 11.443 0 0 1 -5.784 1.75zm-2.146-17.936a3.142 3.142 0 0 0 -2.036.915 6.367 6.367 0 0 0 -1.611 2.977 7.612 7.612 0 0 0 -.192 1.707l-.136 7.828a2.022 2.022 0 0 0 1.237 1.9c3.206 2.167 6.508 2.148 10.178-.011a.452.452 0 0 1 .049-.025 2 2 0 0 0 1.175-1.828v-8.549a5.7 5.7 0 0 0 -.835-3.017 6.31 6.31 0 0 0 -4.465-2.852 4.3 4.3 0 0 0 -1.989.17 2.659 2.659 0 0 1 .439.223.5.5 0 0 1 .192.617.5.5 0 0 1 -.579.29z" fill="#323c6b"/><path d="m44.754 47.583h-24.504a14.223 14.223 0 0 1 1.2-6.063c1-2.12 5.268-3.461 7.655-4.043a4.449 4.449 0 0 0 3.828 1.548 4.392 4.392 0 0 0 2.933-1.556c2.388.581 6.69 1.922 7.692 4.051a14.223 14.223 0 0 1 1.196 6.063z" fill="#fe7058"/><path d="m44.75 47.58h-2.87a14.205 14.205 0 0 0 -1.21-5.6c-.78-1.66-3.59-2.85-5.92-3.56a4.375 4.375 0 0 0 1.11-.95c2.39.58 6.69 1.92 7.7 4.05a14.288 14.288 0 0 1 1.19 6.06z" fill="#ea6453"/><path d="m36.875 31.26v.192a4.458 4.458 0 0 1 -3.956 4.481 4.374 4.374 0 0 1 -4.79-4.355v-2.545a4.37 4.37 0 0 1 3.015-4.158 4.071 4.071 0 0 0 2.783 2.172 3.426 3.426 0 0 1 1.822 1.112 4.647 4.647 0 0 1 1.126 3.101z" fill="#fcd462"/><path d="m32.492 36.453a4.812 4.812 0 0 1 -3.269-1.269 4.889 4.889 0 0 1 -1.594-3.606v-2.545a4.855 4.855 0 0 1 3.361-4.633.5.5 0 0 1 .615.281 3.545 3.545 0 0 0 2.43 1.878 3.9 3.9 0 0 1 2.087 1.269 5.132 5.132 0 0 1 1.253 3.433v.192a4.978 4.978 0 0 1 -4.409 4.979c-.159.013-.318.021-.474.021zm-1.576-10.953a3.86 3.86 0 0 0 -2.287 3.536v2.545a3.887 3.887 0 0 0 1.271 2.863 3.825 3.825 0 0 0 2.976.991 3.971 3.971 0 0 0 3.5-3.983v-.192a4.137 4.137 0 0 0 -1-2.769 2.919 2.919 0 0 0 -1.557-.956 4.587 4.587 0 0 1 -2.903-2.035z" fill="#323c6b"/><path d="m63.168 18.17v9.663a2.494 2.494 0 0 1 -2.5 2.5h-8l-7.441 4.5.33-4.5h-.257a2.5 2.5 0 0 1 -2.5-2.5v-9.663a2.508 2.508 0 0 1 2.5-2.5h15.369a2.5 2.5 0 0 1 2.499 2.5z" fill="#27ccbc"/><path d="m63.17 18.17v9.66a2.493 2.493 0 0 1 -2.46 2.5c.01-.11.02-.22.02-.33v-9.66a2.5 2.5 0 0 0 -2.5-2.5h-15.41a2.512 2.512 0 0 1 2.48-2.17h15.37a2.507 2.507 0 0 1 2.5 2.5z" fill="#21b3a9"/><path d="m7.832 12.938a.5.5 0 0 1 -.5-.5v-.417a.5.5 0 0 1 1 0v.417a.5.5 0 0 1 -.5.5z" fill="#323c6b"/><path d="m7.832 10.4a.5.5 0 0 1 -.5-.5v-2.48a7.867 7.867 0 0 1 3.825-6.767.5.5 0 1 1 .52.854 6.875 6.875 0 0 0 -3.345 5.913v2.48a.5.5 0 0 1 -.5.5z" fill="#323c6b"/><path d="m57.172 46.583a.5.5 0 0 1 -.5-.5v-.666a.5.5 0 0 1 1 0v.666a.5.5 0 0 1 -.5.5z" fill="#323c6b"/><path d="m57.172 57.688a.5.5 0 0 1 -.5-.5v-8.813a.5.5 0 0 1 1 0v8.813a.5.5 0 0 1 -.5.5z" fill="#323c6b"/><path d="m35.376 8h-5.748a.5.5 0 0 1 0-1h5.748a.5.5 0 0 1 0 1z" fill="#323c6b"/><path d="m41.88 47.58h-18.76s.22-7.02 7.43-2.94a3.675 3.675 0 0 0 3.9 0c7.21-4.08 7.43 2.94 7.43 2.94z" fill="#fe7058"/><g fill="#323c6b"><path d="m41.88 48.08h-18.76a.5.5 0 0 1 -.5-.516c0-.125.12-3.073 2.2-4.243 1.465-.825 3.477-.529 5.975.884a3.229 3.229 0 0 0 3.405 0c2.5-1.415 4.51-1.712 5.978-.886 2.081 1.17 2.2 4.118 2.2 4.243a.5.5 0 0 1 -.5.516zm-18.205-1h17.649a3.991 3.991 0 0 0 -1.638-2.889c-1.143-.64-2.823-.342-4.99.884a4.242 4.242 0 0 1 -4.395 0c-2.167-1.226-3.848-1.524-4.989-.881a3.973 3.973 0 0 0 -1.637 2.886z"/><circle cx="47.217" cy="22.696" r="1.509"/><circle cx="52.985" cy="22.696" r="1.509"/><circle cx="58.753" cy="22.696" r="1.509"/><path d="m49.752 71.5h-34.5a4.925 4.925 0 0 1 -4.92-4.92v-59.16a4.925 4.925 0 0 1 4.92-4.92h34.5a4.925 4.925 0 0 1 4.92 4.92v8.25a.5.5 0 0 1 -1 0v-8.25a3.924 3.924 0 0 0 -3.92-3.92h-34.5a3.924 3.924 0 0 0 -3.92 3.92v59.16a3.924 3.924 0 0 0 3.92 3.92h34.5a3.924 3.924 0 0 0 3.92-3.92v-36.25a.5.5 0 0 1 1 0v36.25a4.925 4.925 0 0 1 -4.92 4.92z"/><path d="m45.229 35.329a.5.5 0 0 1 -.5-.537l.292-3.973a3 3 0 0 1 -2.721-2.986v-9.663a3 3 0 0 1 3-3h15.37a3 3 0 0 1 3 3v9.663a3 3 0 0 1 -3 3h-7.861l-7.322 4.423a.492.492 0 0 1 -.258.073zm.071-19.158a2 2 0 0 0 -2 2v9.663a2 2 0 0 0 2 2h.257a.5.5 0 0 1 .5.536l-.257 3.53 6.612-3.995a.494.494 0 0 1 .259-.072h8a2 2 0 0 0 2-2v-9.663a2 2 0 0 0 -2-2z"/><path d="m44.754 48.083h-24.504a.5.5 0 0 1 -.5-.473 14.594 14.594 0 0 1 1.25-6.302c1.1-2.332 5.479-3.7 7.99-4.316a.5.5 0 0 1 .5.162 3.989 3.989 0 0 0 3.4 1.373 3.891 3.891 0 0 0 2.6-1.381.5.5 0 0 1 .5-.163c2.527.615 6.929 1.994 8.026 4.324a14.591 14.591 0 0 1 1.245 6.3.5.5 0 0 1 -.507.476zm-24.009-1h23.514a13.715 13.715 0 0 0 -1.159-5.351c-.645-1.37-3.278-2.748-7.068-3.706a4.873 4.873 0 0 1 -3.056 1.5 4.99 4.99 0 0 1 -4.045-1.487c-3.766.952-6.386 2.326-7.034 3.7a13.654 13.654 0 0 0 -1.152 5.344z"/><path d="m48.731 57.26h-32.46a.5.5 0 0 1 -.5-.5v-45.18a.5.5 0 0 1 .5-.5h32.46a.5.5 0 0 1 .5.5v4.09a.5.5 0 0 1 -1 0v-3.59h-31.46v44.18h31.46v-23.55a.5.5 0 0 1 1 0v24.05a.5.5 0 0 1 -.5.5z"/></g><path d="m18.527 59.639a.736.736 0 0 1 -.764.7h-.38a.718.718 0 0 1 -.736-.742 1.1 1.1 0 0 1 .021-.18.824.824 0 0 1 .743-.609h.38a.808.808 0 0 1 .736.831z" fill="#fff"/><path d="m30.912 59.529a.77.77 0 0 1 -.775.757l-9.734.053a.756.756 0 0 1 -.725-.776.79.79 0 0 1 .031-.17.779.779 0 0 1 .753-.585l9.734-.053a.741.741 0 0 1 .716.774z" fill="#fff"/></svg>