<svg id="color_line" height="512" viewBox="0 0 74 74" width="512" xmlns="http://www.w3.org/2000/svg" data-name="color line"><path d="m43.932 45.225c.7 2.805 9.069 6.345 13.516 1.813a6.231 6.231 0 0 1 -5.009-2.8 7.446 7.446 0 0 1 -.8-5.118 32.166 32.166 0 0 1 1.518-5.077h-.007a30.791 30.791 0 0 0 1.85-12.42v-.155a15.7 15.7 0 0 0 -2.717-8.211 18.087 18.087 0 0 0 -12.692-7.841c-3.184-.411-6.771.164-8.936 2.394a9.65 9.65 0 0 0 -6.368 2.734 18.052 18.052 0 0 0 -5.094 11.243 29.911 29.911 0 0 0 1.741 12.26 32.057 32.057 0 0 1 1.517 5.077 7.446 7.446 0 0 1 -.8 5.118 6.231 6.231 0 0 1 -5.009 2.8c4.447 4.532 11.568.873 13.457-1.932" fill="#707583"/><path d="m51.913 49.715a11.67 11.67 0 0 1 -3.052-.425c-2.8-.76-5.024-2.382-5.414-3.943a.5.5 0 1 1 .97-.243c.256 1.024 2.086 2.509 4.706 3.221 1.361.369 4.582.944 7.152-.931a6.672 6.672 0 0 1 -4.261-2.889 7.893 7.893 0 0 1 -.865-5.459 25.445 25.445 0 0 1 1.222-4.246l.291-.836a.474.474 0 0 1 .018-.072 30.04 30.04 0 0 0 1.82-12.224v-.2a15.209 15.209 0 0 0 -2.637-7.941 17.487 17.487 0 0 0 -12.336-7.615c-3.527-.455-6.706.388-8.513 2.246a.5.5 0 0 1 -.343.152 9.155 9.155 0 0 0 -6.034 2.59 17.527 17.527 0 0 0 -4.947 10.934 29.106 29.106 0 0 0 1.718 12.054l.316.907a25.393 25.393 0 0 1 1.22 4.248 7.9 7.9 0 0 1 -.864 5.463 6.68 6.68 0 0 1 -4.269 2.89 6.666 6.666 0 0 0 4.758 1.244 10.555 10.555 0 0 0 7.119-3.814.5.5 0 0 1 .83.559 11.672 11.672 0 0 1 -7.857 4.251 7.643 7.643 0 0 1 -6.372-2.248.5.5 0 0 1 .339-.85 5.739 5.739 0 0 0 4.6-2.559 7.053 7.053 0 0 0 .728-4.776 24.716 24.716 0 0 0 -1.178-4.077l-.32-.917a30.076 30.076 0 0 1 -1.758-12.469 18.513 18.513 0 0 1 5.243-11.553 10.171 10.171 0 0 1 6.5-2.868c2.045-1.987 5.468-2.884 9.216-2.4a18.5 18.5 0 0 1 13.041 8.066 16.249 16.249 0 0 1 2.8 8.483v.155a30.892 30.892 0 0 1 -1.847 12.507.414.414 0 0 1 -.019.079l-.32.917a24.762 24.762 0 0 0 -1.178 4.08 7.052 7.052 0 0 0 .728 4.773 5.737 5.737 0 0 0 4.6 2.559.5.5 0 0 1 .339.85 8.066 8.066 0 0 1 -5.89 2.327z" fill="#323c6b"/><path d="m63.99 59.18v8.7a3.124 3.124 0 0 1 -3.12 3.12h-47.74a3.124 3.124 0 0 1 -3.12-3.12v-8.7a9.817 9.817 0 0 1 7.51-9.54l5.94-1.29c1.8 4.91 7.18 8.47 13.54 8.47s11.74-3.56 13.54-8.47l5.94 1.29a9.817 9.817 0 0 1 7.51 9.54z" fill="#fe7058"/><path d="m63.99 59.18v8.7a3.124 3.124 0 0 1 -3.12 3.12h-.27a3.085 3.085 0 0 0 .39-1.51v-8.7a9.817 9.817 0 0 0 -7.51-9.54l-3.95-.86a10.755 10.755 0 0 0 1.01-2.04l5.94 1.29a9.817 9.817 0 0 1 7.51 9.54z" fill="#ea6453"/><path d="m50.54 48.35c-1.8 4.91-7.18 8.47-13.54 8.47s-11.74-3.56-13.54-8.47l4.22-.92a2.466 2.466 0 0 0 1.87-1.81l.98-3.86 12.93-.03.99 3.89a2.481 2.481 0 0 0 1.87 1.81z" fill="#fcd462"/><path d="m50.54 48.35a10.838 10.838 0 0 1 -1.01 2.05l-5-1.05a2.481 2.481 0 0 1 -1.87-1.81l-1.37-5.8 2.17-.01.99 3.89a2.481 2.481 0 0 0 1.87 1.81z" fill="#f7be56"/><g fill="#323c6b"><path d="m52.7 10.458a.5.5 0 0 1 -.382-.176 18.891 18.891 0 0 0 -5.706-4.546.5.5 0 1 1 .463-.886 19.9 19.9 0 0 1 6.006 4.785.5.5 0 0 1 -.381.823z"/><path d="m54.627 13.139a.5.5 0 0 1 -.427-.239c-.11-.179-.221-.359-.332-.529a.5.5 0 1 1 .836-.549c.117.178.233.366.348.554a.5.5 0 0 1 -.426.762z"/><path d="m7.093 58.406h-.05a.5.5 0 0 1 -.448-.547 13.274 13.274 0 0 1 4.015-8.259.5.5 0 0 1 .693.722 12.267 12.267 0 0 0 -3.713 7.634.5.5 0 0 1 -.497.45z"/><path d="m7.009 61.375a.5.5 0 0 1 -.5-.5v-.687a.5.5 0 0 1 1 0v.687a.5.5 0 0 1 -.5.5z"/><path d="m60.87 71.5h-47.74a3.624 3.624 0 0 1 -3.62-3.62v-8.7a10.293 10.293 0 0 1 7.89-10.026l5.952-1.293a.5.5 0 0 1 .575.317c1.788 4.87 7.04 8.142 13.073 8.142s11.285-3.272 13.071-8.142a.5.5 0 0 1 .575-.317l5.94 1.29a10.3 10.3 0 0 1 7.9 10.029v8.7a3.624 3.624 0 0 1 -3.616 3.62zm-37.722-22.571-5.522 1.2a9.292 9.292 0 0 0 -7.116 9.051v8.7a2.623 2.623 0 0 0 2.62 2.62h47.74a2.623 2.623 0 0 0 2.62-2.62v-8.7a9.3 9.3 0 0 0 -7.128-9.054l-5.51-1.2c-2.065 5.04-7.569 8.394-13.852 8.394s-11.787-3.354-13.852-8.391z"/><path d="m37 57.32c-6.451 0-12.081-3.536-14.009-8.8a.5.5 0 0 1 .363-.66l4.22-.92a1.96 1.96 0 0 0 1.491-1.44l.981-3.861a.5.5 0 0 1 .483-.377l12.93-.03a.5.5 0 0 1 .484.376l.991 3.891a1.991 1.991 0 0 0 1.492 1.445l4.219.92a.5.5 0 0 1 .363.66c-1.927 5.26-7.557 8.796-14.008 8.796zm-12.858-8.607c1.963 4.573 7.049 7.607 12.858 7.607s10.9-3.034 12.858-7.607l-3.645-.794a3 3 0 0 1 -2.248-2.176l-.894-3.512-12.152.028-.885 3.484a2.953 2.953 0 0 1 -2.247 2.176z"/></g><path d="m48.98 29.813v1.376c0 6.608-4.624 12.389-10.833 13-7.122.705-13.121-5.225-13.121-12.639v-7.381c.35-5.6 2.971-8.725 7.295-10.658a16.775 16.775 0 0 0 8.584 4.894 9.337 9.337 0 0 1 4.995 3.227 11.859 11.859 0 0 1 3.08 8.181z" fill="#fcd462"/><path d="m48.98 29.81v1.38c0 6.61-4.62 12.39-10.83 13a11.126 11.126 0 0 1 -2.38-.01c6.16-.66 10.73-6.42 10.73-12.99v-1.38c0-3.29-1.02-7.6-3.09-10.06-.17-.21-.36-.41-.55-.61a10.059 10.059 0 0 1 3.04 2.49 11.886 11.886 0 0 1 3.08 8.18z" fill="#f7be56"/><path d="m52.632 37.7h-10.8a.5.5 0 0 1 0-1h10.8a1.5 1.5 0 0 0 1.5-1.495v-6.321a.5.5 0 0 1 .5-.5.5.5 0 0 1 .5.5v6.321a2.5 2.5 0 0 1 -2.5 2.495z" fill="#323c6b"/><circle cx="39.812" cy="37.196" fill="#707583" r="2.016"/><path d="m39.813 39.712a2.516 2.516 0 1 1 2.516-2.512 2.519 2.519 0 0 1 -2.516 2.512zm0-4.032a1.516 1.516 0 1 0 1.516 1.52 1.518 1.518 0 0 0 -1.516-1.52z" fill="#323c6b"/><path d="m36.992 44.75a11.982 11.982 0 0 1 -8.1-3.169 13.518 13.518 0 0 1 -4.366-10.027v-7.385c.338-5.428 2.75-8.95 7.591-11.115a.5.5 0 0 1 .589.137 16.44 16.44 0 0 0 8.314 4.727 9.775 9.775 0 0 1 5.258 3.392 12.3 12.3 0 0 1 3.2 8.5v1.375c0 6.945-4.956 12.876-11.283 13.5q-.605.065-1.203.065zm-4.792-30.631c-4.3 2.028-6.362 5.152-6.67 10.082v7.353a12.517 12.517 0 0 0 4.037 9.286 10.969 10.969 0 0 0 8.533 2.86c5.822-.576 10.382-6.07 10.382-12.507v-1.38a11.369 11.369 0 0 0 -2.966-7.859 8.791 8.791 0 0 0 -4.722-3.062 17.553 17.553 0 0 1 -8.594-4.773z" fill="#323c6b"/><path d="m47.688 67.359a.708.708 0 0 1 .736-.676h.366a.691.691 0 0 1 .707.715 1.15 1.15 0 0 1 -.021.173.792.792 0 0 1 -.716.585h-.365a.776.776 0 0 1 -.707-.797z" fill="#fff"/><path d="m35.771 67.416a.74.74 0 0 1 .746-.728h9.117a.729.729 0 0 1 .7.747.787.787 0 0 1 -.03.163.751.751 0 0 1 -.725.563h-9.117a.712.712 0 0 1 -.691-.745z" fill="#fff"/></svg>