<svg id="color_line" height="512" viewBox="0 0 74 74" width="512" xmlns="http://www.w3.org/2000/svg" data-name="color line"><rect fill="#9297ab" height="68" rx="5.035" width="41.391" x="16.304" y="3"/><path d="m57.7 8.04v57.92a5.021 5.021 0 0 1 -3.65 4.84 5.014 5.014 0 0 0 .28-1.65v-57.93a5.027 5.027 0 0 0 -5.03-5.03h-31.32a4.935 4.935 0 0 0 -1.4.2 5.034 5.034 0 0 1 4.76-3.39h31.32a5.038 5.038 0 0 1 5.04 5.04z" fill="#84879c"/><path d="m19.667 12.028h34.667v45.668h-34.667z" fill="#89c5cd"/><path d="m51.25 12.03h3.08v45.67h-3.08z" fill="#6eaaad"/><path d="m38.9 8.111h-3.8a.5.5 0 1 1 0-1h3.8a.5.5 0 1 1 0 1z" fill="#323c6b"/><circle cx="37" cy="64.383" fill="#707583" r="2.714"/><path d="m37 67.6a3.214 3.214 0 1 1 3.214-3.214 3.218 3.218 0 0 1 -3.214 3.214zm0-5.428a2.214 2.214 0 1 0 2.214 2.214 2.216 2.216 0 0 0 -2.214-2.217z" fill="#323c6b"/><path d="m24.842 26.875h24.316v16.811h-24.316z" fill="#fcd462"/><path d="m49.16 26.88v16.81h-24.32v-2.49h21.76v-14.32z" fill="#f7be56"/><g fill="#323c6b"><path d="m37 35.78a.5.5 0 0 1 -.284-.089l-12.158-8.405a.5.5 0 0 1 .284-.911h24.316a.5.5 0 0 1 .284.911l-12.158 8.405a.5.5 0 0 1 -.284.089zm-10.555-8.405 10.555 7.297 10.555-7.3z"/><path d="m60.7 61.917a.5.5 0 0 1 -.5-.5v-10a.5.5 0 0 1 1 0v10a.5.5 0 0 1 -.5.5z"/><path d="m13.3 10.813a.5.5 0 0 1 -.5-.5v-.688a.5.5 0 0 1 1 0v.688a.5.5 0 0 1 -.5.5z"/><path d="m13.346 8h-.033a.5.5 0 0 1 -.466-.532 8.571 8.571 0 0 1 5.343-7.359.5.5 0 0 1 .37.929 7.568 7.568 0 0 0 -4.715 6.5.5.5 0 0 1 -.499.462z"/><path d="m60.7 49.5a.5.5 0 0 1 -.5-.5v-1.083a.5.5 0 0 1 1 0v1.083a.5.5 0 0 1 -.5.5z"/><path d="m52.66 71.5h-31.32a5.542 5.542 0 0 1 -5.54-5.535v-57.93a5.542 5.542 0 0 1 5.54-5.535h31.32a5.542 5.542 0 0 1 5.54 5.535v57.93a5.542 5.542 0 0 1 -5.54 5.535zm-31.32-68a4.541 4.541 0 0 0 -4.54 4.535v57.93a4.541 4.541 0 0 0 4.54 4.535h31.32a4.541 4.541 0 0 0 4.54-4.535v-57.93a4.541 4.541 0 0 0 -4.54-4.535z"/><path d="m54.333 58.2h-34.666a.5.5 0 0 1 -.5-.5v-45.672a.5.5 0 0 1 .5-.5h34.666a.5.5 0 0 1 .5.5v45.672a.5.5 0 0 1 -.5.5zm-34.166-1h33.666v-44.672h-33.666z"/><path d="m49.158 44.186h-24.316a.5.5 0 0 1 -.5-.5v-16.811a.5.5 0 0 1 .5-.5h24.316a.5.5 0 0 1 .5.5v16.811a.5.5 0 0 1 -.5.5zm-23.816-1h23.316v-15.811h-23.316z"/></g><path d="m31.334 60.542a.726.726 0 0 1 .755-.694h.375a.709.709 0 0 1 .725.733 1.2 1.2 0 0 1 -.021.178.814.814 0 0 1 -.734.6h-.375a.8.8 0 0 1 -.725-.817z" fill="#fff"/><path d="m20.125 60.6a.76.76 0 0 1 .765-.747h8.594a.747.747 0 0 1 .714.766.825.825 0 0 1 -.03.168.771.771 0 0 1 -.744.577h-8.594a.731.731 0 0 1 -.705-.764z" fill="#fff"/></svg>