<svg id="color_line" height="512" viewBox="0 0 74 74" width="512" xmlns="http://www.w3.org/2000/svg" data-name="color line"><rect fill="#9297ab" height="68" rx="6.161" width="41.979" x="16.829" y="2.084"/><path d="m58.81 8.25v55.67a6.155 6.155 0 0 1 -3.95 5.75 5.892 5.892 0 0 0 .47-2.34v-55.68a6.163 6.163 0 0 0 -6.16-6.16h-29.66a6.085 6.085 0 0 0 -2.22.42 6.15 6.15 0 0 1 5.7-3.83h29.66a6.165 6.165 0 0 1 6.16 6.17z" fill="#84879c"/><rect fill="#89c5cd" height="31.628" rx="2.667" transform="matrix(0 1 -1 0 57.898 -17.74)" width="24.202" x="25.718" y="4.265"/><path d="m22.3 10.73c-.1 0-.2.01-.3.01v-.01z" fill="#6eaaad"/><path d="m53.63 10.64v18.87a2.675 2.675 0 0 1 -2.37 2.66 6.771 6.771 0 0 0 -.81 0v-18.78a2.674 2.674 0 0 0 -2.67-2.66h-25.78v-.09a2.667 2.667 0 0 1 2.67-2.66h26.3a2.659 2.659 0 0 1 2.66 2.66z" fill="#6eaaad"/><g fill="#323c6b"><path d="m27.971 37.6h-3.953a.5.5 0 0 1 0-1h3.953a.5.5 0 0 1 0 1z"/><path d="m51.62 37.6h-3.954a.5.5 0 0 1 0-1h3.954a.5.5 0 0 1 0 1z"/><path d="m27.971 45.248h-3.953a.5.5 0 1 1 0-1h3.953a.5.5 0 0 1 0 1z"/><path d="m51.62 45.248h-3.954a.5.5 0 0 1 0-1h3.954a.5.5 0 0 1 0 1z"/><path d="m27.971 51.661h-3.953a.5.5 0 0 1 0-1h3.953a.5.5 0 1 1 0 1z"/><path d="m51.62 51.661h-3.954a.5.5 0 0 1 0-1h3.954a.5.5 0 1 1 0 1z"/><path d="m27.971 58.074h-3.953a.5.5 0 0 1 0-1h3.953a.5.5 0 1 1 0 1z"/><path d="m51.62 58.074h-3.954a.5.5 0 0 1 0-1h3.954a.5.5 0 0 1 0 1z"/><path d="m27.971 64.486h-3.953a.5.5 0 0 1 0-1h3.953a.5.5 0 0 1 0 1z"/><path d="m39.8 51.661h-3.958a.5.5 0 0 1 0-1h3.958a.5.5 0 0 1 0 1z"/><path d="m39.8 58.074h-3.958a.5.5 0 0 1 0-1h3.958a.5.5 0 0 1 0 1z"/><path d="m39.8 64.486h-3.958a.5.5 0 0 1 0-1h3.958a.5.5 0 0 1 0 1z"/><path d="m51.62 64.486h-3.954a.5.5 0 0 1 0-1h3.954a.5.5 0 0 1 0 1z"/></g><circle cx="37.819" cy="41.415" fill="#e1e6e9" r="4.888"/><path d="m37.818 46.8a5.388 5.388 0 1 1 5.389-5.387 5.394 5.394 0 0 1 -5.389 5.387zm0-9.776a4.388 4.388 0 1 0 4.389 4.389 4.393 4.393 0 0 0 -4.389-4.386z" fill="#323c6b"/><path d="m13.829 13.146a.5.5 0 0 1 -.5-.5v-.414a.5.5 0 0 1 1 0v.414a.5.5 0 0 1 -.5.5z" fill="#323c6b"/><path d="m13.829 10.9a.5.5 0 0 1 -.5-.5v-2.155a9.575 9.575 0 0 1 2.756-6.709.5.5 0 0 1 .717.7 8.578 8.578 0 0 0 -2.473 6.011v2.153a.5.5 0 0 1 -.5.5z" fill="#323c6b"/><path d="m61.808 52.9a.5.5 0 0 1 -.5-.5v-.688a.5.5 0 0 1 1 0v.688a.5.5 0 0 1 -.5.5z" fill="#323c6b"/><path d="m61.808 63.708a.5.5 0 0 1 -.5-.5v-8.625a.5.5 0 0 1 1 0v8.625a.5.5 0 0 1 -.5.5z" fill="#323c6b"/><path d="m52.646 70.583h-29.656a6.668 6.668 0 0 1 -6.661-6.661v-55.677a6.669 6.669 0 0 1 6.661-6.662h29.656a6.67 6.67 0 0 1 6.663 6.662v55.677a6.669 6.669 0 0 1 -6.663 6.661zm-29.656-68a5.668 5.668 0 0 0 -5.661 5.662v55.677a5.667 5.667 0 0 0 5.661 5.661h29.656a5.668 5.668 0 0 0 5.663-5.661v-55.677a5.669 5.669 0 0 0 -5.663-5.662z" fill="#323c6b"/><path d="m50.966 32.68h-26.294a3.17 3.17 0 0 1 -3.167-3.166v-18.869a3.17 3.17 0 0 1 3.167-3.167h26.294a3.17 3.17 0 0 1 3.167 3.167v18.869a3.17 3.17 0 0 1 -3.167 3.166zm-26.294-24.202a2.169 2.169 0 0 0 -2.167 2.167v18.869a2.169 2.169 0 0 0 2.167 2.166h26.294a2.169 2.169 0 0 0 2.167-2.166v-18.869a2.169 2.169 0 0 0 -2.167-2.167z" fill="#323c6b"/><path d="m20.14 34.981a.809.809 0 0 1 -.773-.841v-.418a.791.791 0 0 1 .818-.808 1.2 1.2 0 0 1 .2.023.909.909 0 0 1 .67.819v.418a.889.889 0 0 1 -.915.807z" fill="#fff"/><path d="m20.2 46.911a.847.847 0 0 1 -.832-.853l-.005-9.015a.833.833 0 0 1 .854-.8.943.943 0 0 1 .187.034.857.857 0 0 1 .643.829v9.015a.815.815 0 0 1 -.847.79z" fill="#fff"/></svg>