<svg id="color_line" height="512" viewBox="0 0 74 74" width="512" xmlns="http://www.w3.org/2000/svg" data-name="color line"><path d="m56.442 46.441-1.828 22.239a2.528 2.528 0 0 1 -2.521 2.32h-30.185a2.527 2.527 0 0 1 -2.521-2.32l-1.828-22.239z" fill="#e7aa6c"/><rect fill="#e7aa6c" height="9.668" rx="1.53" width="44.908" x="14.546" y="36.768"/><path d="m56.44 46.44-1.83 22.24a2.52 2.52 0 0 1 -2.52 2.32h-30.18a2.52 2.52 0 0 1 -2.52-2.32l-.09-1.07h29.24a2.527 2.527 0 0 0 2.52-2.32l1.55-18.85z" fill="#d09865"/><path d="m59.45 38.3v6.61a1.53 1.53 0 0 1 -1.53 1.53h-3.55a1.536 1.536 0 0 0 1.53-1.53v-6.61a1.53 1.53 0 0 0 -1.53-1.53h3.55a1.524 1.524 0 0 1 1.53 1.53z" fill="#d09865"/><path d="m21.115 36.768a21.687 21.687 0 0 1 1.677-7.768c1.366-2.893 7.021-4.761 10.467-5.635a7.155 7.155 0 0 0 5.936 2.27 6.926 6.926 0 0 0 4.51-2.28c3.456.864 9.151 2.742 10.517 5.645a21.691 21.691 0 0 1 1.678 7.768z" fill="#89c5cd"/><path d="m55.9 36.77h-3.56a21.781 21.781 0 0 0 -1.67-7.77c-1.05-2.22-4.63-3.84-7.8-4.86a6.871 6.871 0 0 0 .84-.78c3.45.86 9.15 2.74 10.51 5.64a21.6 21.6 0 0 1 1.68 7.77z" fill="#6eaaad"/><path d="m31 11.615a7.507 7.507 0 0 1 8.22-7.473 7.65 7.65 0 0 1 6.786 7.69v2.868a7.65 7.65 0 0 1 -6.786 7.689 7.506 7.506 0 0 1 -8.22-7.474z" fill="#89c5cd"/><path d="m46.01 11.83v2.87a7.781 7.781 0 0 1 -4.15 6.91 7.875 7.875 0 0 0 1.86-5.08v-2.87a7.647 7.647 0 0 0 -6.79-7.68 7.368 7.368 0 0 0 -4.18.83 7.47 7.47 0 0 1 6.47-2.67 7.656 7.656 0 0 1 6.79 7.69z" fill="#6eaaad"/><path d="m16.836 37.268h-.025a.5.5 0 0 1 -.474-.525l.624-12.276a3.738 3.738 0 0 1 2.164-3.211l1.749-.812a.5.5 0 0 1 .422.908l-1.749.812a2.743 2.743 0 0 0 -1.588 2.354l-.624 12.276a.5.5 0 0 1 -.499.474z" fill="#323c6b"/><path d="m22.048 18.2 3.514-1.574a1.953 1.953 0 0 1 2.566 1.024l.007.016a1.953 1.953 0 0 1 -1.024 2.566l-3.511 1.573a1.955 1.955 0 0 1 -2.566-1.024l-.007-.016a1.954 1.954 0 0 1 1.021-2.565z" fill="#bbbbcd"/><g fill="#323c6b"><path d="m22.83 22.462a2.461 2.461 0 0 1 -.982-4.721l3.51-1.573a2.466 2.466 0 0 1 3.261 3.177 2.435 2.435 0 0 1 -1.31 1.345l-3.509 1.571a2.468 2.468 0 0 1 -.97.201zm3.5-5.5a1.449 1.449 0 0 0 -.569.117l-3.507 1.571h-.007a1.456 1.456 0 0 0 -.763 1.909 1.463 1.463 0 0 0 1.917.778l3.507-1.571a1.455 1.455 0 0 0 .77-1.912 1.47 1.47 0 0 0 -1.349-.887z"/><path d="m18.167 73.019a.5.5 0 0 1 -.338-.132 5.976 5.976 0 0 1 -1.93-3.912l-.357-4.35a.5.5 0 0 1 .457-.54.518.518 0 0 1 .539.457l.358 4.35a4.979 4.979 0 0 0 1.609 3.258.5.5 0 0 1 -.338.869z"/><path d="m15.874 63.083a.5.5 0 0 1 -.5-.458l-.055-.667a.5.5 0 1 1 1-.083l.055.667a.5.5 0 0 1 -.457.54z"/><path d="m48.129 8.083a.5.5 0 0 1 -.459-.3 10.162 10.162 0 0 0 -6.87-5.894.5.5 0 1 1 .234-.972 11.163 11.163 0 0 1 7.554 6.469.5.5 0 0 1 -.262.657.506.506 0 0 1 -.197.04z"/><path d="m48.813 10.417a.5.5 0 0 1 -.49-.409l-.037-.217c-.019-.114-.037-.229-.064-.341a.5.5 0 1 1 .972-.233c.033.135.056.274.078.413l.034.195a.5.5 0 0 1 -.4.583.488.488 0 0 1 -.093.009z"/><path d="m52.093 71.5h-30.185a3.012 3.012 0 0 1 -3.019-2.778l-1.828-22.24a.5.5 0 0 1 .5-.541h38.881a.5.5 0 0 1 .5.541l-1.83 22.239a3.012 3.012 0 0 1 -3.019 2.779zm-33.993-24.559 1.783 21.7a2.02 2.02 0 0 0 2.025 1.859h30.185a2.02 2.02 0 0 0 2.023-1.862l1.783-21.7z"/><path d="m57.924 46.936h-41.848a2.033 2.033 0 0 1 -2.03-2.031v-6.605a2.032 2.032 0 0 1 2.03-2.03h41.848a2.032 2.032 0 0 1 2.03 2.03v6.607a2.033 2.033 0 0 1 -2.03 2.029zm-41.848-9.668a1.031 1.031 0 0 0 -1.03 1.03v6.607a1.032 1.032 0 0 0 1.03 1.031h41.848a1.032 1.032 0 0 0 1.03-1.031v-6.605a1.031 1.031 0 0 0 -1.03-1.03z"/><path d="m55.9 37.268h-34.785a.5.5 0 0 1 -.5-.523 21.947 21.947 0 0 1 1.723-7.953c1.479-3.133 7.4-5.047 10.8-5.909a.5.5 0 0 1 .49.146 6.661 6.661 0 0 0 5.522 2.111 6.411 6.411 0 0 0 4.184-2.118.5.5 0 0 1 .492-.149c3.413.853 9.362 2.756 10.848 5.918a21.892 21.892 0 0 1 1.726 7.954.5.5 0 0 1 -.5.523zm-34.255-1h33.726a20.767 20.767 0 0 0 -1.6-7.053c-1.313-2.791-7.151-4.592-9.9-5.3a7.388 7.388 0 0 1 -4.627 2.221 7.64 7.64 0 0 1 -6.144-2.211c-2.738.715-8.551 2.527-9.857 5.292a20.792 20.792 0 0 0 -1.599 7.051z"/><path d="m38.492 22.922a7.909 7.909 0 0 1 -5.372-2.085 8.029 8.029 0 0 1 -2.62-5.922v-3.3a8.029 8.029 0 0 1 2.62-5.922 7.949 7.949 0 0 1 6.15-2.048 8.181 8.181 0 0 1 7.24 8.187v2.868a8.182 8.182 0 0 1 -7.24 8.187c-.261.023-.521.035-.778.035zm0-18.314a6.919 6.919 0 0 0 -4.7 1.825 7.023 7.023 0 0 0 -2.292 5.182v3.3a7.028 7.028 0 0 0 2.294 5.185 6.941 6.941 0 0 0 5.382 1.792 7.174 7.174 0 0 0 6.334-7.192v-2.868a7.172 7.172 0 0 0 -6.334-7.191q-.342-.033-.681-.033z"/></g><path d="m21.028 42.609a.81.81 0 0 1 -.842.773h-.417a.789.789 0 0 1 -.808-.817 1.214 1.214 0 0 1 .023-.2.906.906 0 0 1 .816-.665h.418a.888.888 0 0 1 .81.909z" fill="#fff"/><path d="m32.957 42.545a.846.846 0 0 1 -.852.832h-9.015a.834.834 0 0 1 -.8-.855.917.917 0 0 1 .035-.186.857.857 0 0 1 .829-.643l9.015-.005a.814.814 0 0 1 .788.857z" fill="#fff"/></svg>