<svg id="color_line" height="512" viewBox="0 0 74 74" width="512" xmlns="http://www.w3.org/2000/svg" data-name="color line"><rect fill="#eeefee" height="67.658" rx="4.028" width="46.869" x="13.565" y="3.342"/><path d="m60.43 7.37v59.6a4.014 4.014 0 0 1 -3.34 3.97 3.861 3.861 0 0 0 .09-.84v-59.61a4.02 4.02 0 0 0 -4.02-4.02h-38.82a3.822 3.822 0 0 0 -.68.06 4.021 4.021 0 0 1 3.93-3.19h38.82a4.029 4.029 0 0 1 4.02 4.03z" fill="#e1e6e9"/><path d="m19.495 11.389h35.01v46.552h-35.01z" fill="#89c5cd"/><path d="m54.51 11.39v46.55h-3.21v-46.55h-31.81z" fill="#6eaaad"/><circle cx="37" cy="7.366" fill="#323c6b" r="1.518"/><circle cx="37" cy="64.471" fill="#9297ab" r="2.541"/><path d="m37 67.512a3.041 3.041 0 1 1 3.041-3.041 3.045 3.045 0 0 1 -3.041 3.041zm0-5.082a2.041 2.041 0 1 0 2.041 2.041 2.043 2.043 0 0 0 -2.041-2.041z" fill="#323c6b"/><path d="m42.223 38.2-2.362 1.654a1.527 1.527 0 0 1 -2.113-.433l-4.714-6.737a1.526 1.526 0 0 1 .317-2.132l2.363-1.652a1.123 1.123 0 0 0 .233-1.569l-3.223-4.611a1.119 1.119 0 0 0 -1.59-.294c-2.054 1.586-4.094 3.49-4.306 4.928-.816 5.471 8.383 18.615 13.8 19.723 1.424.293 3.912-.97 6.107-2.356a1.117 1.117 0 0 0 .265-1.594l-3.227-4.611a1.123 1.123 0 0 0 -1.55-.316z" fill="#fe7058"/><path d="m46.74 44.72c-2.2 1.39-4.69 2.65-6.11 2.36-5.42-1.11-14.62-14.26-13.8-19.73a2.654 2.654 0 0 1 .15-.51c1.15 6.17 8.91 16.57 13.69 17.55 1.35.27 3.64-.83 5.73-2.12l.6.86a1.112 1.112 0 0 1 -.26 1.59z" fill="#ea6453"/><g fill="#323c6b"><path d="m10.83 12.164a.5.5 0 0 1 -.5-.5v-.456a.5.5 0 0 1 1 0v.456a.5.5 0 0 1 -.5.5z"/><path d="m10.83 9.428a.5.5 0 0 1 -.5-.5v-1.558a7.278 7.278 0 0 1 4.845-6.841.5.5 0 0 1 .334.942 6.277 6.277 0 0 0 -4.179 5.9v1.557a.5.5 0 0 1 -.5.5z"/><path d="m63.17 60.415a.5.5 0 0 1 -.5-.5v-8.065a.5.5 0 0 1 1 0v8.065a.5.5 0 0 1 -.5.5z"/><path d="m63.17 62.552a.5.5 0 0 1 -.5-.5v-.427a.5.5 0 0 1 1 0v.427a.5.5 0 0 1 -.5.5z"/><path d="m56.407 71.5h-38.814a4.533 4.533 0 0 1 -4.528-4.528v-59.602a4.534 4.534 0 0 1 4.528-4.528h38.814a4.534 4.534 0 0 1 4.528 4.528v59.6a4.533 4.533 0 0 1 -4.528 4.53zm-38.814-67.658a3.532 3.532 0 0 0 -3.528 3.528v59.6a3.532 3.532 0 0 0 3.528 3.53h38.814a3.532 3.532 0 0 0 3.528-3.528v-59.602a3.532 3.532 0 0 0 -3.528-3.528z"/><path d="m54.506 58.441h-35.006a.5.5 0 0 1 -.5-.5v-46.552a.5.5 0 0 1 .5-.5h35.006a.5.5 0 0 1 .5.5v46.552a.5.5 0 0 1 -.5.5zm-34.506-1h34.006v-45.552h-34.006z"/><path d="m41.085 47.62a2.717 2.717 0 0 1 -.556-.054c-5.622-1.149-15.042-14.609-14.2-20.285.2-1.352 1.669-3.069 4.5-5.251a1.552 1.552 0 0 1 1.183-.3 1.7 1.7 0 0 1 1.122.705l3.222 4.605a1.625 1.625 0 0 1 -.356 2.265l-2.362 1.653a1.029 1.029 0 0 0 -.2 1.438l4.713 6.735a1.03 1.03 0 0 0 1.417.31l2.362-1.653a1.55 1.55 0 0 1 1.212-.246 1.677 1.677 0 0 1 1.039.688l3.226 4.611a1.689 1.689 0 0 1 .277 1.294 1.541 1.541 0 0 1 -.684 1.01c-2.628 1.66-4.573 2.475-5.915 2.475zm-9.314-24.909a.541.541 0 0 0 -.331.111c-3.376 2.606-4.029 4-4.117 4.605-.777 5.213 8.244 18.1 13.407 19.16.6.122 2.131-.01 5.739-2.288a.548.548 0 0 0 .242-.361.685.685 0 0 0 -.116-.523l-3.228-4.615a.679.679 0 0 0 -.419-.282.56.56 0 0 0 -.439.086l-2.362 1.656a2.026 2.026 0 0 1 -2.808-.556l-4.714-6.736a2.028 2.028 0 0 1 .44-2.829l2.362-1.653a.627.627 0 0 0 .11-.874l-3.223-4.6a.69.69 0 0 0 -.454-.289.542.542 0 0 0 -.089-.012z"/></g><path d="m35.252 14.528a.785.785 0 0 1 .815-.751h.405a.766.766 0 0 1 .785.792 1.257 1.257 0 0 1 -.023.192.881.881 0 0 1 -.793.65h-.405a.86.86 0 0 1 -.784-.883z" fill="#fff"/><path d="m23.275 14.6a.82.82 0 0 1 .825-.8l9.15-.015a.809.809 0 0 1 .774.828.956.956 0 0 1 -.033.181.832.832 0 0 1 -.8.625l-9.149.014a.789.789 0 0 1 -.767-.833z" fill="#fff"/></svg>