<svg id="color_line" height="512" viewBox="0 0 74 74" width="512" xmlns="http://www.w3.org/2000/svg" data-name="color line"><rect fill="#bbbbcd" height="68" rx="4.417" width="43.342" x="15.329" y="3"/><path d="m58.67 7.42v59.16a4.41 4.41 0 0 1 -3.18 4.24 4.226 4.226 0 0 0 .18-1.24v-59.16a4.421 4.421 0 0 0 -4.42-4.42h-34.5a4.275 4.275 0 0 0 -1.24.18 4.419 4.419 0 0 1 4.24-3.18h34.5a4.421 4.421 0 0 1 4.42 4.42z" fill="#9297ab"/><path d="m14.41 17.932h45.18v32.468h-45.18z" fill="#89c5cd" transform="matrix(0 1 -1 0 71.167 -2.833)"/><path d="m53.23 11.58v45.18h-3.21v-45.18h-29.25z" fill="#6eaaad"/><path d="m33.286 7.884h-.686a.5.5 0 0 1 0-1h.689a.5.5 0 0 1 0 1z" fill="#323c6b"/><path d="m37.345 7.884h-.69a.5.5 0 0 1 0-1h.69a.5.5 0 0 1 0 1z" fill="#323c6b"/><path d="m41.4 7.884h-.689a.5.5 0 0 1 0-1h.689a.5.5 0 0 1 0 1z" fill="#323c6b"/><circle cx="37" cy="63.878" fill="#84879c" r="2.68"/><g fill="#323c6b"><path d="m37 67.059a3.181 3.181 0 1 1 3.181-3.181 3.184 3.184 0 0 1 -3.181 3.181zm0-5.359a2.181 2.181 0 1 0 2.181 2.18 2.183 2.183 0 0 0 -2.181-2.18z"/><path d="m12.329 15.125a.5.5 0 0 1 -.5-.5v-.625a.5.5 0 0 1 1 0v.625a.5.5 0 0 1 -.5.5z"/><path d="m12.329 11.875a.5.5 0 0 1 -.5-.5v-3.958a7.82 7.82 0 0 1 1.65-4.817.5.5 0 1 1 .792.61 6.837 6.837 0 0 0 -1.442 4.2v3.958a.5.5 0 0 1 -.5.507z"/><path d="m61.671 45.188a.5.5 0 0 1 -.5-.5v-.375a.5.5 0 0 1 1 0v.375a.5.5 0 0 1 -.5.5z"/><path d="m61.671 56.5a.5.5 0 0 1 -.5-.5v-9.125a.5.5 0 0 1 1 0v9.125a.5.5 0 0 1 -.5.5z"/><path d="m54.254 71.5h-34.508a4.923 4.923 0 0 1 -4.917-4.917v-59.166a4.923 4.923 0 0 1 4.917-4.917h34.508a4.923 4.923 0 0 1 4.917 4.917v59.166a4.923 4.923 0 0 1 -4.917 4.917zm-34.508-68a3.921 3.921 0 0 0 -3.917 3.917v59.166a3.921 3.921 0 0 0 3.917 3.917h34.508a3.921 3.921 0 0 0 3.917-3.917v-59.166a3.921 3.921 0 0 0 -3.917-3.917z"/><path d="m53.234 57.257h-32.468a.5.5 0 0 1 -.5-.5v-45.18a.5.5 0 0 1 .5-.5h32.468a.5.5 0 0 1 .5.5v45.18a.5.5 0 0 1 -.5.5zm-31.968-1h31.468v-44.18h-31.468z"/></g><path d="m18.013 32.745a.749.749 0 0 1 -.716-.779v-.387a.732.732 0 0 1 .757-.748 1.039 1.039 0 0 1 .183.022.84.84 0 0 1 .62.758v.387a.822.822 0 0 1 -.844.747z" fill="#fff"/><path d="m18.073 43.8a.785.785 0 0 1 -.771-.79v-8.349a.771.771 0 0 1 .791-.738.818.818 0 0 1 .173.032.793.793 0 0 1 .595.767v8.35a.755.755 0 0 1 -.788.728z" fill="#fff"/></svg>