<svg id="color_line" height="512" viewBox="0 0 74 74" width="512" xmlns="http://www.w3.org/2000/svg" data-name="color line"><path d="m28.705 8.367h36.268a6.038 6.038 0 0 1 6.027 6.027v43.036a6.03 6.03 0 0 1 -6.027 6.027h-55.946a6.023 6.023 0 0 1 -6.027-6.027v-43.036a6.03 6.03 0 0 1 6.027-6.027h.359" fill="#e1e6e9"/><path d="m66.94 8.71a5.723 5.723 0 0 1 .44 2.23v43.03a6.037 6.037 0 0 1 -6.03 6.03h-55.95a5.766 5.766 0 0 1 -1.96-.34 5.993 5.993 0 0 0 5.59 3.8h55.94a6.037 6.037 0 0 0 6.03-6.03v-43.04a6.014 6.014 0 0 0 -4.06-5.68z" fill="#d5d6db"/><rect fill="#d5d6db" height="50.833" rx="4.107" width="19.319" x="9.386" y="3.554"/><path d="m24.6 54.888h-11.107a4.613 4.613 0 0 1 -4.607-4.607v-42.62a4.613 4.613 0 0 1 4.607-4.607h11.107a4.612 4.612 0 0 1 4.606 4.607v42.62a4.612 4.612 0 0 1 -4.606 4.607zm-11.107-50.834a3.611 3.611 0 0 0 -3.607 3.607v42.62a3.611 3.611 0 0 0 3.607 3.607h11.107a3.611 3.611 0 0 0 3.606-3.607v-42.62a3.611 3.611 0 0 0 -3.606-3.607z" fill="#323c6b"/><path d="m35.242 14.105h28.343v14.653h-28.343z" fill="#89c5cd"/><path d="m60.33 14.1h3.25v14.66h-3.25z" fill="#6eaaad"/><g fill="#323c6b"><path d="m39.841 35.958h-1.941a.5.5 0 1 1 0-1h1.943a.5.5 0 1 1 0 1z"/><path d="m50.39 35.958h-1.942a.5.5 0 0 1 0-1h1.942a.5.5 0 0 1 0 1z"/><path d="m60.939 35.958h-1.939a.5.5 0 0 1 0-1h1.942a.5.5 0 0 1 0 1z"/><path d="m39.841 42.867h-1.941a.5.5 0 0 1 0-1h1.943a.5.5 0 0 1 0 1z"/><path d="m50.39 42.867h-1.942a.5.5 0 0 1 0-1h1.942a.5.5 0 0 1 0 1z"/><path d="m60.939 42.867h-1.939a.5.5 0 0 1 0-1h1.942a.5.5 0 0 1 0 1z"/><path d="m39.841 49.775h-1.941a.5.5 0 0 1 0-1h1.943a.5.5 0 0 1 0 1z"/><path d="m50.39 49.775h-1.942a.5.5 0 0 1 0-1h1.942a.5.5 0 0 1 0 1z"/><path d="m60.939 49.775h-1.939a.5.5 0 0 1 0-1h1.942a.5.5 0 0 1 0 1z"/><path d="m39.841 56.685h-1.941a.5.5 0 1 1 0-1h1.943a.5.5 0 1 1 0 1z"/><path d="m50.39 56.685h-1.942a.5.5 0 0 1 0-1h1.942a.5.5 0 0 1 0 1z"/><path d="m60.939 56.685h-1.939a.5.5 0 0 1 0-1h1.942a.5.5 0 0 1 0 1z"/><path d="m25.51 68.446h-13.641a.5.5 0 0 1 0-1h13.641a3.983 3.983 0 0 0 0-7.966h-3.545a3.424 3.424 0 0 1 -3.42-3.419v-1.673a.5.5 0 1 1 1 0v1.673a2.422 2.422 0 0 0 2.42 2.419h3.545a4.983 4.983 0 0 1 0 9.966z"/><path d="m66.208 66.866a.5.5 0 0 1 -.068-1 8.541 8.541 0 0 0 7-6.014.5.5 0 0 1 .958.286 9.54 9.54 0 0 1 -7.824 6.718.408.408 0 0 1 -.066.01z"/><path d="m63.375 66.958h-1a.5.5 0 0 1 0-1h1a.5.5 0 0 1 0 1z"/><path d="m44.875 5.867h-6.917a.5.5 0 0 1 0-1h6.917a.5.5 0 0 1 0 1z"/><path d="m48.25 5.867h-1a.5.5 0 0 1 0-1h1a.5.5 0 0 1 0 1z"/><path d="m64.973 63.958h-55.946a6.535 6.535 0 0 1 -6.527-6.528v-43.036a6.534 6.534 0 0 1 6.527-6.527h.359a.5.5 0 1 1 0 1h-.359a5.533 5.533 0 0 0 -5.527 5.527v43.036a5.534 5.534 0 0 0 5.527 5.528h55.946a5.534 5.534 0 0 0 5.527-5.528v-43.036a5.533 5.533 0 0 0 -5.527-5.527h-36.267a.5.5 0 1 1 0-1h36.267a6.534 6.534 0 0 1 6.527 6.527v43.036a6.535 6.535 0 0 1 -6.527 6.528z"/><path d="m63.584 29.258h-28.342a.5.5 0 0 1 -.5-.5v-14.658a.5.5 0 0 1 .5-.5h28.342a.5.5 0 0 1 .5.5v14.658a.5.5 0 0 1 -.5.5zm-27.842-1h27.342v-13.658h-27.342z"/></g><path d="m39.767 25.55a.707.707 0 0 1 -.736.676h-.365a.691.691 0 0 1 -.707-.715 1.008 1.008 0 0 1 .02-.173.793.793 0 0 1 .716-.586h.366a.776.776 0 0 1 .706.798z" fill="#fff"/><path d="m49.284 25.494a.738.738 0 0 1 -.745.727h-6.967a.73.73 0 0 1 -.7-.748.875.875 0 0 1 .03-.163.752.752 0 0 1 .726-.563h6.967a.713.713 0 0 1 .689.747z" fill="#fff"/></svg>