<svg id="color_line" height="512" viewBox="0 0 74 74" width="512" xmlns="http://www.w3.org/2000/svg" data-name="color line"><path d="m3 40.444h68v28.359h-68z" fill="#fcd462"/><path d="m71 40.44v28.36h-68v-3.83h64.42v-24.53z" fill="#f7be56"/><path d="m13.13 26.25h6.29v14.19h-16.42z" fill="#f7be56"/><path d="m19.42 40.94h-16.42a.5.5 0 0 1 -.407-.791l10.13-14.19a.5.5 0 0 1 .407-.209h6.29a.5.5 0 0 1 .5.5v14.19a.5.5 0 0 1 -.5.5zm-15.449-1h14.949v-13.19h-5.533z" fill="#323c6b"/><path d="m71 40.44h-16.42v-14.19h6.29z" fill="#f7be56"/><path d="m71 40.94h-16.42a.5.5 0 0 1 -.5-.5v-14.19a.5.5 0 0 1 .5-.5h6.29a.5.5 0 0 1 .407.209l10.13 14.19a.5.5 0 0 1 -.407.791zm-15.92-1h14.949l-9.416-13.19h-5.533z" fill="#323c6b"/><path d="m54.58 21.33v19.11h-35.16v-29.39h24.88z" fill="#eeefee"/><path d="m48.875 18.625 2.705 2.705v19.11h3v-19.11l-2.705-2.705z" fill="#e1e6e9"/><path d="m44.3 21.33v-10.28l10.28 10.28z" fill="#e1e6e9"/><g fill="#323c6b"><path d="m54.58 21.83h-10.28a.5.5 0 0 1 -.5-.5v-10.28a.5.5 0 0 1 .853-.354l10.281 10.281a.5.5 0 0 1 -.354.853zm-9.78-1h8.573l-8.573-8.573z"/><path d="m47.708 26.75h-21.416a.5.5 0 0 1 0-1h21.416a.5.5 0 0 1 0 1z"/><path d="m47.708 33.672h-21.416a.5.5 0 0 1 0-1h21.416a.5.5 0 0 1 0 1z"/><path d="m48.917 49.417h-23.834a.5.5 0 0 1 0-1h23.834a.5.5 0 0 1 0 1z"/><path d="m63.667 72.3h-9.417a.5.5 0 0 1 0-1h9.417a.5.5 0 0 1 0 1z"/><path d="m51.906 72.3h-.593a.5.5 0 0 1 0-1h.593a.5.5 0 1 1 0 1z"/><path d="m16.42 13.833a.5.5 0 0 1 -.5-.5v-.625a.5.5 0 0 1 1 0v.625a.5.5 0 0 1 -.5.5z"/><path d="m16.42 11.333a.5.5 0 0 1 -.5-.5v-2.783a.5.5 0 0 1 .5-.5h7.663a.5.5 0 0 1 0 1h-7.163v2.283a.5.5 0 0 1 -.5.5z"/><path d="m71 69.3h-68a.5.5 0 0 1 -.5-.5v-28.356a.5.5 0 0 1 .5-.5h68a.5.5 0 0 1 .5.5v28.356a.5.5 0 0 1 -.5.5zm-67.5-1h67v-27.356h-67z"/><path d="m54.58 40.94h-35.16a.5.5 0 0 1 -.5-.5v-29.39a.5.5 0 0 1 .5-.5h24.88a.5.5 0 0 1 .353.146l10.281 10.281a.5.5 0 0 1 .146.353v19.11a.5.5 0 0 1 -.5.5zm-34.66-1h34.16v-18.4l-9.987-9.99h-24.173z"/></g><path d="m6.237 48.6a.707.707 0 0 1 -.676-.736v-.365a.692.692 0 0 1 .715-.707 1.008 1.008 0 0 1 .173.02.794.794 0 0 1 .586.716v.366a.776.776 0 0 1 -.798.706z" fill="#fff"/><path d="m6.293 59.417a.74.74 0 0 1 -.727-.746v-8.263a.729.729 0 0 1 .748-.7.787.787 0 0 1 .163.03.751.751 0 0 1 .563.725v8.263a.713.713 0 0 1 -.747.691z" fill="#fff"/></svg>