<svg id="color_line" height="512" viewBox="0 0 74 74" width="512" xmlns="http://www.w3.org/2000/svg" data-name="color line"><path d="m55.051 72.667h-46.718v-4.3a30 30 0 0 1 2.253-11.415c1.834-3.886 9.43-6.4 14.057-7.569a9.608 9.608 0 0 0 7.973 3.049 9.306 9.306 0 0 0 6.057-3.062c4.641 1.16 12.29 3.683 14.125 7.582a30 30 0 0 1 2.253 11.415z" fill="#89c5cd"/><path d="m22.454 33.3a9.24 9.24 0 0 1 10.119-9.2 9.417 9.417 0 0 1 8.354 9.466v4.451a9.417 9.417 0 0 1 -8.354 9.466 9.24 9.24 0 0 1 -10.119-9.2z" fill="#89c5cd"/><path d="m55.05 68.37v4.3h-46.72v-3.59h42.64v-4.29a30.027 30.027 0 0 0 -2.26-11.42 2.685 2.685 0 0 0 -.18-.33 9.85 9.85 0 0 1 4.27 3.92 29.963 29.963 0 0 1 2.25 11.41z" fill="#6eaaad"/><path d="m40.93 33.56v4.46a9.417 9.417 0 0 1 -8.36 9.46 9.209 9.209 0 0 1 -7.61-2.87 9.112 9.112 0 0 0 4.7.79 9.427 9.427 0 0 0 8.35-9.47v-4.45a9.666 9.666 0 0 0 -2.63-6.64 9.575 9.575 0 0 1 5.55 8.72z" fill="#6eaaad"/><path d="m45.588 73.167h-27.788a.5.5 0 0 1 -.5-.5v-10.193a.5.5 0 0 1 1 0v9.693h26.788v-9.693a.5.5 0 0 1 1 0v10.193a.5.5 0 0 1 -.5.5z" fill="#323c6b"/><path d="m40.971 7.8v11.774a3.13 3.13 0 0 0 3.129 3.126h.877v5.237l8.94-5.237h9.231a3.129 3.129 0 0 0 3.13-3.13v-11.77a3.128 3.128 0 0 0 -3.13-3.13h-19.048a3.129 3.129 0 0 0 -3.129 3.13z" fill="#fe7058"/><path d="m66.28 7.8v11.77a3.122 3.122 0 0 1 -2.71 3.1 2.561 2.561 0 0 0 .03-.39v-11.78a3.126 3.126 0 0 0 -3.13-3.12h-19.05a2.966 2.966 0 0 0 -.42.03 3.116 3.116 0 0 1 3.1-2.74h19.05a3.128 3.128 0 0 1 3.13 3.13z" fill="#ea6453"/><g fill="#323c6b"><path d="m60.514 11.051h-13.6a.5.5 0 0 1 0-1h13.6a.5.5 0 0 1 0 1z"/><path d="m57.962 17.313h-11.048a.5.5 0 0 1 0-1h11.048a.5.5 0 0 1 0 1z"/><path d="m58.049 68.771a.5.5 0 0 1 -.5-.483 43.688 43.688 0 0 0 -.651-6.364.5.5 0 1 1 .983-.181 44.606 44.606 0 0 1 .667 6.51.5.5 0 0 1 -.482.517z"/><path d="m58.05 72.167a.5.5 0 0 1 -.5-.5v-.584a.5.5 0 0 1 1 0v.584a.5.5 0 0 1 -.5.5z"/><path d="m19.987 30.25a.524.524 0 0 1 -.145-.021.5.5 0 0 1 -.333-.624c.1-.331.209-.658.335-.977a.5.5 0 0 1 .93.369c-.116.293-.216.594-.308.9a.5.5 0 0 1 -.479.353z"/><path d="m21.663 26.813a.5.5 0 0 1 -.409-.787 12.761 12.761 0 0 1 8.872-5.364.5.5 0 1 1 .123.992 11.765 11.765 0 0 0 -8.176 4.946.5.5 0 0 1 -.41.213z"/><path d="m55.051 73.167h-46.718a.5.5 0 0 1 -.5-.5v-4.3a29.923 29.923 0 0 1 2.3-11.626c1.957-4.141 9.854-6.687 14.387-7.841a.5.5 0 0 1 .49.145 9.094 9.094 0 0 0 7.562 2.89 8.786 8.786 0 0 0 5.73-2.9.5.5 0 0 1 .492-.15c4.555 1.138 12.489 3.673 14.457 7.854a29.9 29.9 0 0 1 2.3 11.61v4.313a.5.5 0 0 1 -.5.505zm-46.218-1h45.718v-3.8a28.925 28.925 0 0 0 -2.206-11.2c-1.81-3.845-9.831-6.3-13.508-7.236a9.763 9.763 0 0 1 -6.176 3 10.085 10.085 0 0 1 -8.178-2.99c-3.659.948-11.646 3.413-13.445 7.224a28.967 28.967 0 0 0 -2.206 11.224z"/><path d="m31.674 48.023a9.622 9.622 0 0 1 -6.535-2.536 9.768 9.768 0 0 1 -3.184-7.205v-4.982a9.768 9.768 0 0 1 3.184-7.2 9.652 9.652 0 0 1 7.48-2.492 9.955 9.955 0 0 1 8.808 9.963v4.453a9.955 9.955 0 0 1 -8.808 9.963q-.475.036-.945.036zm0-23.467a8.63 8.63 0 0 0 -5.864 2.276 8.761 8.761 0 0 0 -2.855 6.468v4.985a8.765 8.765 0 0 0 2.858 6.466 8.649 8.649 0 0 0 6.713 2.235 8.946 8.946 0 0 0 7.9-8.967v-4.456a8.946 8.946 0 0 0 -7.9-8.967c-.284-.027-.568-.04-.849-.04z"/><path d="m44.979 28.44a.5.5 0 0 1 -.5-.5v-4.74h-.379a3.634 3.634 0 0 1 -3.63-3.63v-11.77a3.634 3.634 0 0 1 3.63-3.63h19.049a3.634 3.634 0 0 1 3.63 3.63v11.774a3.634 3.634 0 0 1 -3.63 3.63h-9.1l-8.822 5.168a.5.5 0 0 1 -.248.068zm-.879-23.273a2.633 2.633 0 0 0 -2.63 2.63v11.777a2.633 2.633 0 0 0 2.63 2.626h.877a.5.5 0 0 1 .5.5v4.364l8.186-4.8a.5.5 0 0 1 .252-.068h9.232a2.633 2.633 0 0 0 2.63-2.63v-11.766a2.633 2.633 0 0 0 -2.63-2.63z"/></g><path d="m12.515 61.621a.612.612 0 0 1 -.182-.029.6.6 0 0 1 -.39-.753 16.659 16.659 0 0 1 .767-1.983c.666-1.41 2.179-2.727 4.5-3.915a.6.6 0 1 1 .547 1.068c-2.078 1.065-3.411 2.194-3.96 3.357a15.562 15.562 0 0 0 -.71 1.836.6.6 0 0 1 -.572.419z" fill="#fff"/><path d="m11.879 64.144a.526.526 0 0 1 -.1-.008.6.6 0 0 1 -.5-.687 5.21 5.21 0 0 1 .115-.528.6.6 0 1 1 1.175.245 4.385 4.385 0 0 0 -.105.473.6.6 0 0 1 -.585.505z" fill="#fff"/></svg>