<svg id="color_line" height="512" viewBox="0 0 74 74" width="512" xmlns="http://www.w3.org/2000/svg" data-name="color line"><path d="m17.865 70.75c.135-2.95.669-9.422 2.535-13.433 2.067-4.376 10.62-7.2 15.831-8.523a10.825 10.825 0 0 0 8.979 3.433 10.483 10.483 0 0 0 6.822-3.449c5.226 1.307 13.84 4.148 15.906 8.539 1.869 4.011 2.4 10.486 2.538 13.433z" fill="#27ccbc"/><path d="m33.535 31.493a10.638 10.638 0 0 1 11.65-10.593 10.842 10.842 0 0 1 9.62 10.9v4.064a10.844 10.844 0 0 1 -9.62 10.9 10.638 10.638 0 0 1 -11.65-10.594z" fill="#27ccbc"/><path d="m70.48 70.75h-3.26c-.25-3.29-.89-8.25-2.42-11.54-1.98-4.22-10.03-7.01-15.29-8.38a9.987 9.987 0 0 0 2.52-2.05c5.23 1.31 13.84 4.15 15.91 8.54 1.87 4.01 2.4 10.48 2.54 13.43z" fill="#21b3a9"/><path d="m54.8 31.8v4.06a11.1 11.1 0 0 1 -4.25 8.76 11.126 11.126 0 0 0 1.62-5.78v-4.06a10.843 10.843 0 0 0 -9.62-10.9 10.633 10.633 0 0 0 -7.51 2.17 10.621 10.621 0 0 1 10.15-5.15 10.841 10.841 0 0 1 9.61 10.9z" fill="#21b3a9"/><path d="m26.815 22.212.732 7-7.447-3.849a17.747 17.747 0 0 1 -3.524.352c-7.784 0-14.1-5.006-14.1-11.194s6.314-11.184 14.098-11.184 14.1 5.007 14.1 11.184a10.071 10.071 0 0 1 -3.859 7.691z" fill="#fcd462"/><path d="m27.67 21.42a9.235 9.235 0 0 0 1-4.15c0-6.18-6.31-11.18-14.1-11.18a15.6 15.6 0 0 0 -11.07 4.27c2.07-4.12 7.14-7.02 13.07-7.02 7.79 0 14.1 5 14.1 11.18a9.777 9.777 0 0 1 -3 6.9z" fill="#f7be56"/><g fill="#323c6b"><path d="m10.68 14.9h-1.019a.5.5 0 1 1 0-1h1.019a.5.5 0 0 1 0 1z"/><path d="m17.083 14.9h-1.019a.5.5 0 0 1 0-1h1.019a.5.5 0 0 1 0 1z"/><path d="m23.487 14.9h-1.019a.5.5 0 0 1 0-1h1.019a.5.5 0 0 1 0 1z"/><path d="m59.667 48.5a.483.483 0 0 1 -.178-.033c-.325-.123-.652-.239-.98-.353l-.175-.062a.5.5 0 1 1 .332-.943l.174.061c.336.118.672.236 1 .363a.5.5 0 0 1 -.178.967z"/><path d="m70.655 56.54a.5.5 0 0 1 -.452-.288c-1.14-2.419-3.747-4.612-7.751-6.518a.5.5 0 0 1 .43-.9c4.218 2.008 6.985 4.361 8.225 7a.5.5 0 0 1 -.452.713z"/><path d="m1.114 9a.5.5 0 0 1 -.433-.749q.225-.394.477-.776a.5.5 0 1 1 .834.55c-.156.237-.3.479-.444.724a.5.5 0 0 1 -.434.251z"/><path d="m3.329 6.083a.493.493 0 0 1 -.351-.144.5.5 0 0 1 0-.707 18.563 18.563 0 0 1 10.022-5.062.5.5 0 0 1 .17.986 17.556 17.556 0 0 0 -9.485 4.779.5.5 0 0 1 -.356.148z"/><path d="m70.478 71.25h-52.613a.5.5 0 0 1 -.365-.15.493.493 0 0 1 -.138-.368c.125-2.7.627-9.424 2.583-13.622 2.194-4.643 11.067-7.5 16.161-8.8a.5.5 0 0 1 .491.145 10.309 10.309 0 0 0 8.566 3.275 9.961 9.961 0 0 0 6.495-3.286.5.5 0 0 1 .492-.15c5.118 1.28 14.034 4.126 16.239 8.811 1.957 4.2 2.459 10.926 2.584 13.623a.5.5 0 0 1 -.5.523zm-52.086-1h51.559c-.16-2.9-.7-8.932-2.464-12.722-2.055-4.367-11.157-7.138-15.287-8.193a10.93 10.93 0 0 1 -6.941 3.39 11.305 11.305 0 0 1 -9.185-3.374c-4.115 1.064-13.174 3.849-15.22 8.179-1.765 3.789-2.302 9.816-2.462 12.72z"/><path d="m44.15 47.31a11 11 0 0 1 -7.473-2.9 11.167 11.167 0 0 1 -3.642-8.24v-4.677a11.169 11.169 0 0 1 3.642-8.24 11.037 11.037 0 0 1 8.555-2.85 11.386 11.386 0 0 1 10.073 11.397v4.064a11.387 11.387 0 0 1 -10.073 11.4q-.543.046-1.082.046zm0-25.957a10.015 10.015 0 0 0 -6.8 2.64 10.167 10.167 0 0 0 -3.315 7.5v4.676a10.165 10.165 0 0 0 3.316 7.5 10.018 10.018 0 0 0 7.788 2.594 10.379 10.379 0 0 0 9.166-10.4v-4.063a10.378 10.378 0 0 0 -9.166-10.4c-.33-.032-.659-.047-.985-.047z"/><path d="m27.547 29.715a.51.51 0 0 1 -.23-.056l-7.294-3.772a18.318 18.318 0 0 1 -3.449.328c-8.049 0-14.6-5.246-14.6-11.694s6.551-11.684 14.6-11.684 14.6 5.242 14.6 11.684a10.487 10.487 0 0 1 -3.831 7.9l.705 6.742a.5.5 0 0 1 -.5.552zm-7.447-4.852a.508.508 0 0 1 .229.055l6.626 3.427-.636-6.081a.5.5 0 0 1 .176-.435 9.565 9.565 0 0 0 3.677-7.308c0-5.891-6.1-10.684-13.6-10.684s-13.594 4.793-13.594 10.684 6.1 10.694 13.6 10.694a17.367 17.367 0 0 0 3.422-.342.462.462 0 0 1 .1-.01z"/></g><path d="m36.353 34.7a.6.6 0 0 1 -.6-.6v-.54a.6.6 0 1 1 1.2 0v.54a.6.6 0 0 1 -.6.6z" fill="#fff"/><path d="m36.4 31.934a.608.608 0 0 1 -.061 0 .6.6 0 0 1 -.537-.657 8.447 8.447 0 0 1 6.216-7.3.6.6 0 0 1 .306 1.161 7.242 7.242 0 0 0 -5.329 6.253.6.6 0 0 1 -.595.543z" fill="#fff"/></svg>