<svg id="color_line" height="512" viewBox="0 0 74 74" width="512" xmlns="http://www.w3.org/2000/svg" data-name="color line"><path d="m12.02 11.756h49.96a3.833 3.833 0 0 1 3.833 3.833v36.694a0 0 0 0 1 0 0h-57.626a0 0 0 0 1 0 0v-36.694a3.833 3.833 0 0 1 3.833-3.833z" fill="#bbbbcd"/><path d="m65.81 15.59v36.69h-3.06v-33.67a3.83 3.83 0 0 0 -3.83-3.83h-49.96a3.106 3.106 0 0 0 -.69.07 3.8 3.8 0 0 1 3.75-3.09h49.96a3.824 3.824 0 0 1 3.83 3.83z" fill="#9297ab"/><path d="m22.809 9.597h28.382v44.845h-28.382z" fill="#89c5cd" transform="matrix(0 1 -1 0 69.019 -4.981)"/><path d="m56.563 17.83h2.857v28.38h-2.857z" fill="#6eaaad"/><path d="m3 52.283h68a0 0 0 0 1 0 0v2.417a7.546 7.546 0 0 1 -7.546 7.546h-52.908a7.546 7.546 0 0 1 -7.546-7.546v-2.417a0 0 0 0 1 0 0z" fill="#9297ab"/><path d="m63.454 62.744h-52.908a8.054 8.054 0 0 1 -8.046-8.044v-2.417a.5.5 0 0 1 .5-.5h68a.5.5 0 0 1 .5.5v2.417a8.054 8.054 0 0 1 -8.046 8.044zm-59.954-9.961v1.917a7.054 7.054 0 0 0 7.046 7.045h52.908a7.054 7.054 0 0 0 7.046-7.045v-1.917z" fill="#323c6b"/><path d="m41.268 57.124h-8.536a.5.5 0 0 1 0-1h8.536a.5.5 0 0 1 0 1z" fill="#323c6b"/><path d="m31.142 17.332h11.717v29.375h-11.717z" fill="#fcd462" transform="matrix(0 1 -1 0 69.019 -4.981)"/><path d="m51.69 26.16v11.72h-2.56v-9.47h-26.82v-2.25z" fill="#f7be56"/><g fill="#323c6b"><path d="m28.291 29.134h1v5.771h-1z"/><path d="m25.962 31.423h5.77v1h-5.77z" transform="matrix(.866 -.5 .5 .866 -12.095 18.697)"/><path d="m28.235 29.037h1v5.771h-1z" transform="matrix(.5 -.866 .866 .5 -13.278 40.846)"/><path d="m36.5 29.134h1v5.771h-1z"/><path d="m34.17 31.423h5.771v1h-5.771z" transform="matrix(.866 -.5 .5 .866 -10.996 22.8)"/><path d="m36.444 29.037h1v5.771h-1z" transform="matrix(.5 -.866 .866 .5 -9.174 47.955)"/><path d="m44.709 29.134h1v5.771h-1z"/><path d="m42.379 31.423h5.771v1h-5.771z" transform="matrix(.866 -.5 .5 .866 -9.897 26.904)"/><path d="m44.653 29.038h1v5.77h-1z" transform="matrix(.5 -.866 .866 .5 -5.072 55.06)"/><path d="m5.271 15.083a.473.473 0 0 1 -.075-.005.5.5 0 0 1 -.421-.568 7.371 7.371 0 0 1 7.246-6.254.5.5 0 0 1 0 1 6.365 6.365 0 0 0 -6.257 5.4.5.5 0 0 1 -.493.427z"/><path d="m15.875 9.256h-.75a.5.5 0 0 1 0-1h.75a.5.5 0 0 1 0 1z"/><path d="m62.75 65.744h-8.417a.5.5 0 0 1 0-1h8.417a.5.5 0 0 1 0 1z"/><path d="m51.417 65.744h-.917a.5.5 0 0 1 0-1h.917a.5.5 0 0 1 0 1z"/><path d="m65.813 52.783h-57.626a.5.5 0 0 1 -.5-.5v-36.694a4.338 4.338 0 0 1 4.334-4.333h49.958a4.338 4.338 0 0 1 4.334 4.333v36.694a.5.5 0 0 1 -.5.5zm-57.126-1h56.626v-36.194a3.337 3.337 0 0 0 -3.334-3.333h-49.958a3.337 3.337 0 0 0 -3.334 3.333z"/><path d="m59.423 46.71h-44.846a.5.5 0 0 1 -.5-.5v-28.381a.5.5 0 0 1 .5-.5h44.846a.5.5 0 0 1 .5.5v28.381a.5.5 0 0 1 -.5.5zm-44.346-1h43.846v-27.381h-43.846z"/><path d="m51.688 38.378h-29.375a.5.5 0 0 1 -.5-.5v-11.717a.5.5 0 0 1 .5-.5h29.375a.5.5 0 0 1 .5.5v11.717a.5.5 0 0 1 -.5.5zm-28.875-1h28.375v-10.717h-28.375z"/></g><path d="m43.667 20.615a.646.646 0 0 1 -.67.617h-.333a.63.63 0 0 1 -.645-.651 1.051 1.051 0 0 1 .019-.157.722.722 0 0 1 .651-.534h.333a.709.709 0 0 1 .645.725z" fill="#fff"/><path d="m53.507 20.553a.675.675 0 0 1 -.679.664l-7.517.012a.664.664 0 0 1 -.636-.68.792.792 0 0 1 .025-.149.684.684 0 0 1 .661-.513l7.517-.012a.65.65 0 0 1 .629.678z" fill="#fff"/></svg>