<svg id="color_line" height="512" viewBox="0 0 74 74" width="512" xmlns="http://www.w3.org/2000/svg" data-name="color line"><rect fill="#e1e6e9" height="26.487" rx="3.719" width="67.461" x="3.539" y="36.229"/><path d="m71 39.95v19.05a3.709 3.709 0 0 1 -3.54 3.71v-19.01a3.713 3.713 0 0 0 -3.72-3.72h-60.02a1.087 1.087 0 0 0 -.18.01v-.04a3.713 3.713 0 0 1 3.72-3.72h60.02a3.713 3.713 0 0 1 3.72 3.72z" fill="#d5d6db"/><circle cx="60.109" cy="49.473" fill="#27ccbc" r="2.762"/><path d="m60.109 52.735a3.263 3.263 0 1 1 3.262-3.262 3.267 3.267 0 0 1 -3.262 3.262zm0-5.525a2.263 2.263 0 1 0 2.262 2.263 2.264 2.264 0 0 0 -2.262-2.263z" fill="#323c6b"/><circle cx="50.208" cy="49.473" fill="#fe7058" r="2.762"/><path d="m50.208 52.735a3.263 3.263 0 1 1 3.263-3.262 3.266 3.266 0 0 1 -3.263 3.262zm0-5.525a2.263 2.263 0 1 0 2.263 2.263 2.265 2.265 0 0 0 -2.263-2.263z" fill="#323c6b"/><path d="m12.76 43.641h25.921v11.663h-25.921z" fill="#bbbbcd"/><path d="m38.681 55.8h-25.921a.5.5 0 0 1 -.5-.5v-11.659a.5.5 0 0 1 .5-.5h25.921a.5.5 0 0 1 .5.5v11.659a.5.5 0 0 1 -.5.5zm-25.421-1h24.921v-10.659h-24.921z" fill="#323c6b"/><path d="m16.307 36.729a.5.5 0 0 1 -.5-.5v-16.715a.5.5 0 0 1 1 0v16.715a.5.5 0 0 1 -.5.5z" fill="#323c6b"/><circle cx="16.307" cy="15.428" fill="#eeefee" r="4.114"/><path d="m16.307 20.042a4.614 4.614 0 1 1 4.614-4.614 4.62 4.62 0 0 1 -4.614 4.614zm0-8.228a3.614 3.614 0 1 0 3.614 3.614 3.618 3.618 0 0 0 -3.614-3.614z" fill="#323c6b"/><path d="m25.72 25.341a.5.5 0 0 1 -.354-.853 12.827 12.827 0 0 0 0-18.12.5.5 0 0 1 .707-.707 13.826 13.826 0 0 1 0 19.534.5.5 0 0 1 -.353.146z" fill="#323c6b"/><path d="m6.893 25.341a.5.5 0 0 1 -.354-.146 13.827 13.827 0 0 1 0-19.534.5.5 0 0 1 .707.707 12.829 12.829 0 0 0 0 18.12.5.5 0 0 1 -.353.853z" fill="#323c6b"/><path d="m22.582 22.2a.5.5 0 0 1 -.353-.854 8.385 8.385 0 0 0 0-11.844.5.5 0 0 1 .707-.707 9.384 9.384 0 0 1 0 13.258.5.5 0 0 1 -.354.147z" fill="#323c6b"/><path d="m10.031 22.2a.5.5 0 0 1 -.353-.147 9.384 9.384 0 0 1 0-13.258.5.5 0 1 1 .707.707 8.385 8.385 0 0 0 0 11.844.5.5 0 0 1 -.354.854z" fill="#323c6b"/><path d="m12 62.716h7.385a0 0 0 0 1 0 0v3.534a1.414 1.414 0 0 1 -1.414 1.414h-4.562a1.414 1.414 0 0 1 -1.409-1.414v-3.534a0 0 0 0 1 0 0z" fill="#9297ab"/><path d="m17.967 68.164h-4.558a1.917 1.917 0 0 1 -1.909-1.914v-3.534a.5.5 0 0 1 .5-.5h7.386a.5.5 0 0 1 .5.5v3.534a1.917 1.917 0 0 1 -1.919 1.914zm-5.467-4.948v3.034a.915.915 0 0 0 .914.914h4.558a.915.915 0 0 0 .914-.914v-3.034z" fill="#323c6b"/><path d="m55.159 62.716h7.385a0 0 0 0 1 0 0v3.534a1.414 1.414 0 0 1 -1.414 1.414h-4.558a1.414 1.414 0 0 1 -1.414-1.414v-3.534a0 0 0 0 1 .001 0z" fill="#9297ab"/><g fill="#323c6b"><path d="m61.13 68.164h-4.558a1.917 1.917 0 0 1 -1.914-1.914v-3.534a.5.5 0 0 1 .5-.5h7.386a.5.5 0 0 1 .5.5v3.534a1.916 1.916 0 0 1 -1.914 1.914zm-5.472-4.948v3.034a.915.915 0 0 0 .914.914h4.558a.915.915 0 0 0 .914-.914v-3.034z"/><path d="m9.417 66.216h-.834a.5.5 0 1 1 0-1h.834a.5.5 0 1 1 0 1z"/><path d="m6.584 66.159a.453.453 0 0 1 -.052 0 7.248 7.248 0 0 1 -6.232-5.278.5.5 0 0 1 .965-.262 6.242 6.242 0 0 0 5.372 4.542.5.5 0 0 1 -.05 1z"/><path d="m49.688 33.729h-9a.5.5 0 0 1 0-1h9a.5.5 0 0 1 0 1z"/><path d="m52.75 33.729h-.687a.5.5 0 0 1 0-1h.687a.5.5 0 0 1 0 1z"/><path d="m67.281 63.216h-60.023a4.224 4.224 0 0 1 -4.219-4.216v-19.052a4.224 4.224 0 0 1 4.219-4.219h60.023a4.224 4.224 0 0 1 4.219 4.219v19.052a4.224 4.224 0 0 1 -4.219 4.216zm-60.023-26.487a3.223 3.223 0 0 0 -3.219 3.219v19.052a3.223 3.223 0 0 0 3.219 3.219h60.023a3.223 3.223 0 0 0 3.219-3.219v-19.052a3.223 3.223 0 0 0 -3.219-3.219z"/></g><path d="m26.205 52.165a.729.729 0 0 1 .757-.7h.376a.712.712 0 0 1 .729.735 1.184 1.184 0 0 1 -.021.178.817.817 0 0 1 -.736.6h-.377a.8.8 0 0 1 -.728-.813z" fill="#fff"/><path d="m15.087 52.235a.762.762 0 0 1 .767-.75l8.493-.013a.75.75 0 0 1 .719.768.913.913 0 0 1 -.031.168.774.774 0 0 1 -.746.58l-8.489.012a.733.733 0 0 1 -.713-.765z" fill="#fff"/></svg>