<svg id="color_line" height="512" viewBox="0 0 74 74" width="512" xmlns="http://www.w3.org/2000/svg" data-name="color line"><path d="m21.799 28.917h30.403v36.191h-30.403z" fill="#fe7058"/><path d="m47.875 60.125h-21.75a.5.5 0 0 1 -.5-.5v-17.757a.5.5 0 0 1 .5-.5h21.75a.5.5 0 0 1 .5.5v17.757a.5.5 0 0 1 -.5.5zm-21.25-1h20.75v-16.757h-20.75z" fill="#323c6b"/><path d="m37.423 3h-.846a20.656 20.656 0 0 0 -20.656 20.655h42.158a20.656 20.656 0 0 0 -20.656-20.655z" fill="#fe7058"/><path d="m49.12 28.92h3.08v36.19h-3.08z" fill="#ea6453"/><path d="m58.08 23.66h-3.21a20.64 20.64 0 0 0 -20.53-18.41h-.84a20.572 20.572 0 0 0 -10.56 2.9 20.559 20.559 0 0 1 13.64-5.15h.84a20.656 20.656 0 0 1 20.66 20.66z" fill="#ea6453"/><path d="m18.75 23.653h36.5v5.264h-36.5z" fill="#84879c"/><path d="m55.25 29.417h-36.5a.5.5 0 0 1 -.5-.5v-5.264a.5.5 0 0 1 .5-.5h36.5a.5.5 0 0 1 .5.5v5.264a.5.5 0 0 1 -.5.5zm-36-1h35.5v-4.264h-35.5z" fill="#323c6b"/><path d="m57.686 68.719v2.281h-41.372v-2.281a3.611 3.611 0 0 1 3.61-3.611h34.152a3.611 3.611 0 0 1 3.61 3.611z" fill="#84879c"/><g fill="#323c6b"><path d="m57.686 71.5h-41.372a.5.5 0 0 1 -.5-.5v-2.281a4.115 4.115 0 0 1 4.11-4.111h34.152a4.115 4.115 0 0 1 4.11 4.111v2.281a.5.5 0 0 1 -.5.5zm-40.872-1h40.372v-1.781a3.114 3.114 0 0 0 -3.11-3.111h-34.152a3.114 3.114 0 0 0 -3.11 3.111z"/><path d="m46.667 35.616h-19.334a.5.5 0 0 1 0-1h19.334a.5.5 0 0 1 0 1z"/><path d="m44.813 52.1a.5.5 0 0 1 -.5-.5v-4.133a.5.5 0 0 1 1 0v4.133a.5.5 0 0 1 -.5.5z"/><path d="m18.8 49.417a.5.5 0 0 1 -.5-.5v-.917a.5.5 0 0 1 1 0v.917a.5.5 0 0 1 -.5.5z"/><path d="m18.8 46.333a.5.5 0 0 1 -.5-.5v-8.416a.5.5 0 0 1 1 0v8.416a.5.5 0 0 1 -.5.5z"/><path d="m57.108 11.063a.5.5 0 0 1 -.416-.223 23.3 23.3 0 0 0 -5.621-5.874.5.5 0 0 1 .591-.807 24.291 24.291 0 0 1 5.862 6.126.5.5 0 0 1 -.138.694.508.508 0 0 1 -.278.084z"/><path d="m58.861 14.23a.46.46 0 0 1 -.425-.27l-.023-.05c-.125-.271-.25-.542-.387-.806a.5.5 0 0 1 .89-.458c.142.277.273.561.4.844a.525.525 0 0 1 -.232.689.546.546 0 0 1 -.223.051z"/><path d="m52.2 65.608h-30.4a.5.5 0 0 1 -.5-.5v-36.191a.5.5 0 0 1 .5-.5h30.4a.5.5 0 0 1 .5.5v36.191a.5.5 0 0 1 -.5.5zm-29.9-1h29.4v-35.191h-29.4z"/><path d="m58.079 24.155h-42.158a.5.5 0 0 1 -.5-.5 21.18 21.18 0 0 1 21.156-21.155h.846a21.18 21.18 0 0 1 21.156 21.155.5.5 0 0 1 -.5.5zm-41.651-1h41.144a20.177 20.177 0 0 0 -20.149-19.655h-.846a20.177 20.177 0 0 0 -20.149 19.655z"/></g><path d="m34.825 19.835a.707.707 0 0 1 .736-.676h.365a.69.69 0 0 1 .707.715 1.031 1.031 0 0 1 -.02.173.8.8 0 0 1 -.716.585h-.366a.777.777 0 0 1 -.706-.797z" fill="#fff"/><path d="m22.908 19.892a.739.739 0 0 1 .745-.728h9.117a.727.727 0 0 1 .7.747.787.787 0 0 1 -.03.163.75.75 0 0 1 -.725.563h-9.117a.712.712 0 0 1 -.69-.745z" fill="#fff"/></svg>