<svg id="color_line" height="512" viewBox="0 0 74 74" width="512" xmlns="http://www.w3.org/2000/svg" data-name="color line"><rect fill="#9297ab" height="44.06" rx="4.659" width="60.183" x="6.908" y="26.94"/><path d="m67.09 31.6v34.74a4.655 4.655 0 0 1 -3.97 4.61 4.737 4.737 0 0 0 .3-1.65v-34.74a4.656 4.656 0 0 0 -4.65-4.66h-50.87a5.061 5.061 0 0 0 -.68.05 4.645 4.645 0 0 1 4.35-3.01h50.86a4.658 4.658 0 0 1 4.66 4.66z" fill="#84879c"/><rect fill="#27ccbc" height="12.037" rx="1.542" width="46.228" x="13.886" y="31.621"/><path d="m60.11 33.16v8.96a1.541 1.541 0 0 1 -1.54 1.54h-3.07a1.541 1.541 0 0 0 1.54-1.54v-8.96a1.541 1.541 0 0 0 -1.54-1.54h3.07a1.541 1.541 0 0 1 1.54 1.54z" fill="#21b3a9"/><path d="m23.088 44.158a.5.5 0 0 1 -.5-.5v-12.037a.5.5 0 0 1 1 0v12.037a.5.5 0 0 1 -.5.5z" fill="#323c6b"/><path d="m19.556 33.909a.5.5 0 0 1 -.5-.5v-1.788a.5.5 0 0 1 1 0v1.788a.5.5 0 0 1 -.5.5z" fill="#323c6b"/><path d="m28.278 33.909a.5.5 0 0 1 -.5-.5v-1.788a.5.5 0 0 1 1 0v1.788a.5.5 0 0 1 -.5.5z" fill="#323c6b"/><path d="m37 33.909a.5.5 0 0 1 -.5-.5v-1.788a.5.5 0 1 1 1 0v1.788a.5.5 0 0 1 -.5.5z" fill="#323c6b"/><path d="m45.722 33.909a.5.5 0 0 1 -.5-.5v-1.788a.5.5 0 0 1 1 0v1.788a.5.5 0 0 1 -.5.5z" fill="#323c6b"/><path d="m54.444 33.909a.5.5 0 0 1 -.5-.5v-1.788a.5.5 0 1 1 1 0v1.788a.5.5 0 0 1 -.5.5z" fill="#323c6b"/><path d="m20.663 23.226a.5.5 0 0 1 -.21-.954l30.929-14.272a.5.5 0 0 1 .419.908l-30.929 14.272a.506.506 0 0 1 -.209.046z" fill="#323c6b"/><circle cx="55.109" cy="6.866" fill="#e1e6e9" r="3.866"/><path d="m55.109 11.232a4.366 4.366 0 1 1 4.367-4.366 4.371 4.371 0 0 1 -4.367 4.366zm0-7.732a3.366 3.366 0 1 0 3.367 3.366 3.37 3.37 0 0 0 -3.367-3.366z" fill="#323c6b"/><path d="m17.636 21.323h.325a3.484 3.484 0 0 1 3.484 3.484v2.133a0 0 0 0 1 0 0h-7.293a0 0 0 0 1 0 0v-2.132a3.484 3.484 0 0 1 3.484-3.485z" fill="#bbbbcd"/><path d="m21.446 27.44h-7.294a.5.5 0 0 1 -.5-.5v-2.132a3.989 3.989 0 0 1 3.984-3.985h.325a3.99 3.99 0 0 1 3.985 3.985v2.132a.5.5 0 0 1 -.5.5zm-6.794-1h6.294v-1.632a2.988 2.988 0 0 0 -2.985-2.985h-.325a2.988 2.988 0 0 0 -2.984 2.985z" fill="#323c6b"/><circle cx="23.545" cy="56.726" fill="#bbbbcd" r="8.771"/><path d="m23.545 66a9.271 9.271 0 1 1 9.271-9.27 9.281 9.281 0 0 1 -9.271 9.27zm0-17.541a8.271 8.271 0 1 0 8.271 8.271 8.28 8.28 0 0 0 -8.271-8.275z" fill="#323c6b"/><circle cx="15.961" cy="53.367" fill="#323c6b" r=".753"/><circle cx="18.151" cy="51.177" fill="#323c6b" r=".753"/><path d="m20.874 48.454a.753.753 0 1 1 -1.066 0z" fill="#323c6b"/><circle cx="16.303" cy="58.089" fill="#323c6b" r=".753"/><circle cx="18.493" cy="55.899" fill="#323c6b" r=".753"/><circle cx="20.683" cy="53.709" fill="#323c6b" r=".753"/><circle cx="22.873" cy="51.518" fill="#323c6b" r=".753"/><circle cx="25.063" cy="49.328" fill="#323c6b" r=".753"/><circle cx="18.835" cy="60.621" fill="#323c6b" r=".753"/><circle cx="21.025" cy="58.431" fill="#323c6b" r=".753"/><circle cx="23.215" cy="56.241" fill="#323c6b" r=".753"/><circle cx="25.405" cy="54.05" fill="#323c6b" r=".753"/><circle cx="27.595" cy="51.86" fill="#323c6b" r=".753"/><circle cx="21.367" cy="63.153" fill="#323c6b" r=".753"/><circle cx="23.557" cy="60.963" fill="#323c6b" r=".753"/><circle cx="25.747" cy="58.772" fill="#323c6b" r=".753"/><circle cx="27.937" cy="56.582" fill="#323c6b" r=".753"/><circle cx="30.127" cy="54.392" fill="#323c6b" r=".753"/><circle cx="26.089" cy="63.495" fill="#323c6b" r=".753"/><circle cx="28.279" cy="61.304" fill="#323c6b" r=".753"/><circle cx="30.469" cy="59.114" fill="#323c6b" r=".753"/><circle cx="50.455" cy="56.726" fill="#bbbbcd" r="8.771"/><g fill="#323c6b"><path d="m50.455 66a9.271 9.271 0 1 1 9.271-9.27 9.281 9.281 0 0 1 -9.271 9.27zm0-17.541a8.271 8.271 0 1 0 8.271 8.271 8.281 8.281 0 0 0 -8.271-8.275z"/><circle cx="42.87" cy="53.367" r=".753"/><circle cx="45.061" cy="51.177" r=".753"/><path d="m47.783 48.454a.753.753 0 1 1 -1.065 0z"/><circle cx="43.212" cy="58.089" r=".753"/><circle cx="45.402" cy="55.899" r=".753"/><circle cx="47.593" cy="53.709" r=".753"/><circle cx="49.783" cy="51.518" r=".753"/><circle cx="51.973" cy="49.328" r=".753"/><circle cx="45.744" cy="60.621" r=".753"/><circle cx="47.934" cy="58.431" r=".753"/><circle cx="50.125" cy="56.241" r=".753"/><circle cx="52.315" cy="54.05" r=".753"/><circle cx="54.505" cy="51.86" r=".753"/><circle cx="48.276" cy="63.153" r=".753"/><circle cx="50.466" cy="60.963" r=".753"/><circle cx="52.657" cy="58.772" r=".753"/><circle cx="54.847" cy="56.582" r=".753"/><circle cx="57.037" cy="54.392" r=".753"/><circle cx="52.998" cy="63.495" r=".753"/><circle cx="55.188" cy="61.304" r=".753"/><circle cx="57.379" cy="59.114" r=".753"/><path d="m3.908 59.688a.5.5 0 0 1 -.5-.5v-7.095a.5.5 0 0 1 1 0v7.095a.5.5 0 0 1 -.5.5z"/><path d="m3.908 50.708a.5.5 0 0 1 -.5-.5v-.343a.5.5 0 0 1 1 0v.343a.5.5 0 0 1 -.5.5z"/><path d="m70.074 31.75a.5.5 0 0 1 -.5-.478 7.193 7.193 0 0 0 -4.9-6.463.5.5 0 0 1 .315-.95 8.2 8.2 0 0 1 5.58 7.369.5.5 0 0 1 -.477.522z"/><path d="m70.092 34.375a.5.5 0 0 1 -.5-.5v-.625a.5.5 0 0 1 1 0v.625a.5.5 0 0 1 -.5.5z"/><path d="m62.433 71.5h-50.866a5.165 5.165 0 0 1 -5.159-5.159v-34.741a5.165 5.165 0 0 1 5.159-5.159h50.866a5.165 5.165 0 0 1 5.159 5.159v34.741a5.165 5.165 0 0 1 -5.159 5.159zm-50.866-44.06a4.164 4.164 0 0 0 -4.159 4.16v34.741a4.164 4.164 0 0 0 4.159 4.159h50.866a4.164 4.164 0 0 0 4.159-4.159v-34.741a4.164 4.164 0 0 0 -4.159-4.159z"/><path d="m58.572 44.158h-43.144a2.044 2.044 0 0 1 -2.042-2.042v-8.953a2.044 2.044 0 0 1 2.042-2.042h43.144a2.044 2.044 0 0 1 2.042 2.042v8.953a2.044 2.044 0 0 1 -2.042 2.042zm-43.144-12.037a1.043 1.043 0 0 0 -1.042 1.042v8.953a1.044 1.044 0 0 0 1.042 1.042h43.144a1.044 1.044 0 0 0 1.042-1.042v-8.953a1.043 1.043 0 0 0 -1.042-1.042z"/></g><path d="m40.361 46.231a.594.594 0 0 1 .618-.568h.308a.581.581 0 0 1 .594.6 1.023 1.023 0 0 1 -.017.145.668.668 0 0 1 -.6.492h-.307a.652.652 0 0 1 -.596-.669z" fill="#fff"/><path d="m30.345 46.278a.621.621 0 0 1 .627-.611h7.662a.613.613 0 0 1 .586.628.706.706 0 0 1 -.025.138.63.63 0 0 1 -.61.472h-7.662a.6.6 0 0 1 -.578-.627z" fill="#fff"/></svg>