<svg id="color_line" height="512" viewBox="0 0 74 74" width="512" xmlns="http://www.w3.org/2000/svg" data-name="color line"><path d="m26.017 17.007 1.189-12.45a1.765 1.765 0 0 1 3.5 0l1.194 12.343" fill="#e1e6e9"/><path d="m26.017 17.507a.387.387 0 0 1 -.048 0 .5.5 0 0 1 -.45-.545l1.189-12.452a2.265 2.265 0 0 1 4.5-.007l1.192 12.348a.5.5 0 1 1 -1 .1l-1.187-12.346a1.254 1.254 0 0 0 -1.255-1.105 1.27 1.27 0 0 0 -1.258 1.118l-1.186 12.436a.5.5 0 0 1 -.497.453z" fill="#323c6b"/><path d="m28.219 16.922h17.562a7.313 7.313 0 0 1 7.313 7.313v44.7a2.063 2.063 0 0 1 -2.063 2.065h-28.062a2.063 2.063 0 0 1 -2.062-2.062v-44.7a7.313 7.313 0 0 1 7.312-7.316z" fill="#9297ab"/><path d="m53.09 24.23v44.71a2.057 2.057 0 0 1 -2.06 2.06h-28.06a2.057 2.057 0 0 1 -2.06-2.06v-1.44h26.62a2.063 2.063 0 0 0 2.06-2.06v-44.71a7.2 7.2 0 0 0 -.7-3.11 7.3 7.3 0 0 1 4.2 6.61z" fill="#84879c"/><path d="m25.155 25.277h23.689v16.618h-23.689z" fill="#89c5cd"/><g fill="#323c6b"><path d="m48.845 42.4h-23.69a.5.5 0 0 1 -.5-.5v-16.623a.5.5 0 0 1 .5-.5h23.69a.5.5 0 0 1 .5.5v16.623a.5.5 0 0 1 -.5.5zm-23.19-1h22.69v-15.623h-22.69z"/><path d="m28.888 47.492h-2.617a.5.5 0 0 1 0-1h2.617a.5.5 0 0 1 0 1z"/><path d="m38.309 47.492h-2.618a.5.5 0 0 1 0-1h2.618a.5.5 0 0 1 0 1z"/><path d="m47.729 47.492h-2.617a.5.5 0 0 1 0-1h2.617a.5.5 0 0 1 0 1z"/><path d="m28.888 53.547h-2.617a.5.5 0 0 1 0-1h2.617a.5.5 0 1 1 0 1z"/><path d="m38.309 53.547h-2.618a.5.5 0 0 1 0-1h2.618a.5.5 0 0 1 0 1z"/><path d="m47.729 53.547h-2.617a.5.5 0 1 1 0-1h2.617a.5.5 0 0 1 0 1z"/><path d="m28.888 59.6h-2.617a.5.5 0 1 1 0-1h2.617a.5.5 0 0 1 0 1z"/><path d="m38.309 59.6h-2.618a.5.5 0 0 1 0-1h2.618a.5.5 0 0 1 0 1z"/><path d="m47.729 59.6h-2.617a.5.5 0 0 1 0-1h2.617a.5.5 0 0 1 0 1z"/><path d="m28.888 65.657h-2.617a.5.5 0 0 1 0-1h2.617a.5.5 0 1 1 0 1z"/><path d="m38.309 65.657h-2.618a.5.5 0 0 1 0-1h2.618a.5.5 0 0 1 0 1z"/><path d="m47.729 65.657h-2.617a.5.5 0 0 1 0-1h2.617a.5.5 0 0 1 0 1z"/><path d="m40.505 21.564h-7.01a.5.5 0 0 1 0-1h7.01a.5.5 0 0 1 0 1z"/><path d="m17.906 65.458a.5.5 0 0 1 -.5-.5v-.645a.5.5 0 0 1 1 0v.645a.5.5 0 0 1 -.5.5z"/><path d="m17.906 62.667a.5.5 0 0 1 -.5-.5v-8.667a.5.5 0 0 1 1 0v8.667a.5.5 0 0 1 -.5.5z"/><path d="m55.156 20.458a.5.5 0 0 1 -.455-.291 9.864 9.864 0 0 0 -8.751-5.738.5.5 0 0 1 -.492-.509.539.539 0 0 1 .509-.491 10.868 10.868 0 0 1 9.643 6.321.5.5 0 0 1 -.454.708z"/><path d="m55.99 23.375a.5.5 0 0 1 -.5-.433c-.038-.28-.079-.56-.14-.833a.5.5 0 0 1 .976-.218c.067.3.113.608.155.917a.5.5 0 0 1 -.428.563.527.527 0 0 1 -.063.004z"/><path d="m51.031 71.5h-28.062a2.565 2.565 0 0 1 -2.563-2.562v-44.7a7.822 7.822 0 0 1 7.813-7.812h17.562a7.822 7.822 0 0 1 7.813 7.812v44.7a2.565 2.565 0 0 1 -2.563 2.562zm-22.812-54.078a6.82 6.82 0 0 0 -6.813 6.812v44.7a1.564 1.564 0 0 0 1.563 1.566h28.062a1.564 1.564 0 0 0 1.563-1.562v-44.7a6.82 6.82 0 0 0 -6.813-6.812z"/></g><path d="m36.288 44.257a.6.6 0 0 1 .618-.568h.307a.581.581 0 0 1 .595.6.884.884 0 0 1 -.018.145.664.664 0 0 1 -.6.492h-.308a.651.651 0 0 1 -.594-.669z" fill="#fff"/><path d="m26.272 44.305a.622.622 0 0 1 .627-.612h7.662a.614.614 0 0 1 .586.628.772.772 0 0 1 -.025.138.632.632 0 0 1 -.61.473h-7.662a.6.6 0 0 1 -.578-.627z" fill="#fff"/></svg>