<svg id="color_line" height="512" viewBox="0 0 74 74" width="512" xmlns="http://www.w3.org/2000/svg" data-name="color line"><path d="m47.3 46.776-3.27 3.27a4.21 4.21 0 0 1 -5.952 0l-15.626-15.625a4.21 4.21 0 0 1 0-5.952l3.27-3.27a4.273 4.273 0 0 0 0-6.042l-8.98-8.979a4.281 4.281 0 0 0 -6.225.194c-4.641 5.2-8.889 10.983-8.886 14.755-.008 15.267 30.482 45.757 45.748 45.748 3.772 0 9.559-4.242 14.758-8.88a4.282 4.282 0 0 0 .2-6.227l-8.992-8.992a4.273 4.273 0 0 0 -6.045 0z" fill="#27ccbc"/><path d="m62.14 61.99c-5.2 4.64-10.99 8.89-14.76 8.89-15.27 0-45.76-30.49-45.75-45.75a6.009 6.009 0 0 1 .09-1.01c4.58 16.04 31.14 41.36 45.05 41.36 3.78 0 9.56-4.25 14.76-8.89a3.848 3.848 0 0 0 .75-.87l.05.05a4.268 4.268 0 0 1 -.19 6.22z" fill="#21b3a9"/><path d="m38.591 5.333h31.485v21.438h-31.485z" fill="#fcd462"/><path d="m70.08 5.33v21.44h-31.49v-2.49h28.55v-18.95z" fill="#f7be56"/><g fill="#323c6b"><path d="m54.333 16.552a.5.5 0 0 1 -.281-.087l-15.742-10.718a.5.5 0 0 1 .281-.914h31.485a.5.5 0 0 1 .281.914l-15.742 10.718a.5.5 0 0 1 -.282.087zm-14.12-10.719 14.12 9.614 14.12-9.614z"/><path d="m36 71.047a.491.491 0 0 1 -.228-.055 62.8 62.8 0 0 1 -8.065-5.047.5.5 0 1 1 .586-.809 61.96 61.96 0 0 0 7.935 4.964.5.5 0 0 1 -.228.944z"/><path d="m25.666 64.316a.5.5 0 0 1 -.306-.105c-.173-.135-.343-.273-.513-.412l-.326-.263a.5.5 0 0 1 .625-.782l.333.27c.164.134.327.268.494.4a.5.5 0 0 1 -.307.9z"/><path d="m73.076 14.063a.5.5 0 0 1 -.5-.5v-.875a.5.5 0 0 1 1 0v.875a.5.5 0 0 1 -.5.5z"/><path d="m73.076 23.875a.5.5 0 0 1 -.5-.5v-7.437a.5.5 0 0 1 1 0v7.437a.5.5 0 0 1 -.5.5z"/><path d="m70.076 27.271h-31.485a.5.5 0 0 1 -.5-.5v-21.438a.5.5 0 0 1 .5-.5h31.485a.5.5 0 0 1 .5.5v21.438a.5.5 0 0 1 -.5.5zm-30.985-1h30.485v-20.438h-30.485z"/><path d="m47.384 71.375h-.012c-8.593 0-20.587-8.931-28.947-17.291s-17.299-20.362-17.294-28.957c0-3.312 3.029-8.388 9.013-15.087a4.768 4.768 0 0 1 3.456-1.608 4.7 4.7 0 0 1 3.5 1.392l8.98 8.98a4.777 4.777 0 0 1 0 6.749l-3.27 3.27a3.712 3.712 0 0 0 0 5.244l15.621 15.625a3.71 3.71 0 0 0 5.244 0l3.27-3.27a4.772 4.772 0 0 1 6.749 0l8.992 8.993a4.716 4.716 0 0 1 1.393 3.5 4.769 4.769 0 0 1 -1.609 3.452c-6.698 5.977-11.77 9.008-15.086 9.008zm-.005-1h.005c3.016 0 8-3.026 14.42-8.753a3.777 3.777 0 0 0 1.275-2.734 3.726 3.726 0 0 0 -1.1-2.766l-8.992-8.993a3.777 3.777 0 0 0 -5.335 0l-3.27 3.27a4.708 4.708 0 0 1 -6.658 0l-15.624-15.625a4.705 4.705 0 0 1 0-6.658l3.27-3.27a3.778 3.778 0 0 0 0-5.335l-8.98-8.98a3.782 3.782 0 0 0 -5.5.175c-5.733 6.418-8.762 11.405-8.759 14.421 0 6.831 6.67 17.919 17 28.25s21.411 17 28.241 17z"/></g><path d="m7.067 30.924a.652.652 0 0 1 -.605-.412c-.189-.479-.086-.055-.236-.519a.65.65 0 1 1 1.236-.4c.143.44.031-.008.209.445a.651.651 0 0 1 -.6.889z" fill="#fff"/><path d="m6.141 27.4a.65.65 0 0 1 -.645-.578 11.305 11.305 0 0 1 -.073-1.243c0-1.775.972-4.048 2.977-6.949a.65.65 0 1 1 1.07.74c-1.824 2.638-2.749 4.73-2.747 6.208a10.173 10.173 0 0 0 .065 1.1.65.65 0 0 1 -.574.718.606.606 0 0 1 -.073.004z" fill="#fff"/></svg>