<svg id="color_line" height="512" viewBox="0 0 74 74" width="512" xmlns="http://www.w3.org/2000/svg" data-name="color line"><rect fill="#9297ab" height="69" rx="4.417" width="43.342" x="15.329" y="2"/><path d="m58.67 6.42v60.16a4.42 4.42 0 0 1 -3.02 4.19c.01-.14.02-.29.02-.44v-60.16a4.421 4.421 0 0 0 -4.42-4.42h-34.5a4.326 4.326 0 0 0 -1.4.23 4.427 4.427 0 0 1 4.4-3.98h34.5a4.421 4.421 0 0 1 4.42 4.42z" fill="#84879c"/><path d="m13.91 17.432h46.18v32.468h-46.18z" fill="#eeefee" transform="matrix(0 1 -1 0 70.667 -3.333)"/><path d="m49.52 10.58h3.71v46.18h-3.71z" fill="#e1e6e9"/><path d="m33.286 6.884h-.686a.5.5 0 0 1 0-1h.689a.5.5 0 0 1 0 1z" fill="#323c6b"/><path d="m37.345 6.884h-.69a.5.5 0 0 1 0-1h.69a.5.5 0 0 1 0 1z" fill="#323c6b"/><path d="m41.4 6.884h-.689a.5.5 0 0 1 0-1h.689a.5.5 0 0 1 0 1z" fill="#323c6b"/><circle cx="37" cy="63.878" fill="#707583" r="2.68"/><path d="m37 67.059a3.181 3.181 0 1 1 3.181-3.181 3.184 3.184 0 0 1 -3.181 3.181zm0-5.359a2.181 2.181 0 1 0 2.181 2.18 2.183 2.183 0 0 0 -2.181-2.18z" fill="#323c6b"/><path d="m37 19.583a10.147 10.147 0 0 0 -10.147 10.148c0 5.604 10.147 19.019 10.147 19.019s10.147-13.415 10.147-19.019a10.147 10.147 0 0 0 -10.147-10.148z" fill="#fcd462"/><path d="m47.15 29.73c0 5.6-10.15 19.02-10.15 19.02s-.64-.84-1.6-2.19c2.48-3.43 9.25-13.23 9.25-17.8a10.143 10.143 0 0 0 -5.26-8.89 10.147 10.147 0 0 1 7.76 9.86z" fill="#f7be56"/><circle cx="37" cy="29.731" fill="#fff" r="5.814" transform="matrix(.707 -.707 .707 .707 -10.186 34.871)"/><g fill="#323c6b"><path d="m37 36.044a6.314 6.314 0 1 1 6.314-6.314 6.32 6.32 0 0 1 -6.314 6.314zm0-11.627a5.314 5.314 0 1 0 5.314 5.313 5.319 5.319 0 0 0 -5.314-5.313z"/><path d="m61.671 20.5a.5.5 0 0 1 -.5-.5v-9.75a.5.5 0 1 1 1 0v9.75a.5.5 0 0 1 -.5.5z"/><path d="m12.329 60.333a.5.5 0 0 1 -.5-.5v-1.083a.5.5 0 0 1 1 0v1.083a.5.5 0 0 1 -.5.5z"/><path d="m12.329 56.417a.5.5 0 0 1 -.5-.5v-9.917a.5.5 0 0 1 1 0v9.917a.5.5 0 0 1 -.5.5z"/><path d="m61.671 8.5a.5.5 0 0 1 -.5-.5v-1.062a.5.5 0 1 1 1 0v1.062a.5.5 0 0 1 -.5.5z"/><path d="m54.254 71.5h-34.508a4.923 4.923 0 0 1 -4.917-4.917v-60.166a4.923 4.923 0 0 1 4.917-4.917h34.508a4.923 4.923 0 0 1 4.917 4.917v60.166a4.923 4.923 0 0 1 -4.917 4.917zm-34.508-69a3.921 3.921 0 0 0 -3.917 3.917v60.166a3.921 3.921 0 0 0 3.917 3.917h34.508a3.921 3.921 0 0 0 3.917-3.917v-60.166a3.921 3.921 0 0 0 -3.917-3.917z"/><path d="m53.234 57.257h-32.468a.5.5 0 0 1 -.5-.5v-46.18a.5.5 0 0 1 .5-.5h32.468a.5.5 0 0 1 .5.5v46.18a.5.5 0 0 1 -.5.5zm-31.968-1h31.468v-45.18h-31.468z"/><path d="m37 49.25a.5.5 0 0 1 -.4-.2c-.417-.55-10.247-13.613-10.247-19.32a10.647 10.647 0 0 1 21.294 0c0 5.707-9.83 18.769-10.249 19.322a.5.5 0 0 1 -.398.198zm0-29.167a9.658 9.658 0 0 0 -9.647 9.647c0 4.753 7.779 15.636 9.647 18.181 1.867-2.544 9.647-13.429 9.647-18.181a9.658 9.658 0 0 0 -9.647-9.647z"/></g><path d="m51.275 59.69a.708.708 0 0 1 .736-.676h.366a.692.692 0 0 1 .707.715 1.12 1.12 0 0 1 -.021.173.8.8 0 0 1 -.716.586h-.365a.776.776 0 0 1 -.707-.798z" fill="#fff"/><path d="m40.462 59.746a.741.741 0 0 1 .746-.728h8.263a.73.73 0 0 1 .7.748.875.875 0 0 1 -.03.163.749.749 0 0 1 -.726.562h-8.263a.714.714 0 0 1 -.69-.745z" fill="#fff"/></svg>