<svg id="color_line" height="512" viewBox="0 0 74 74" width="512" xmlns="http://www.w3.org/2000/svg" data-name="color line"><path d="m19.441 60.08a16.444 16.444 0 0 1 -1.08-32.852 15.706 15.706 0 0 1 26.86-8.471 10.081 10.081 0 0 1 15.579 8.443 9.867 9.867 0 0 1 -.8 3.907 14.727 14.727 0 0 1 -3.738 28.973z" fill="#eeefee"/><path d="m71 45.36a14.706 14.706 0 0 1 -5.8 11.71 14.721 14.721 0 0 0 -8.2-22.88 9.791 9.791 0 0 0 .79-3.91 10.076 10.076 0 0 0 -15.57-8.44 15.679 15.679 0 0 0 -20.99-1.51 15.7 15.7 0 0 1 23.99-1.57 10.076 10.076 0 0 1 15.57 8.44 9.862 9.862 0 0 1 -.79 3.91 14.726 14.726 0 0 1 11 14.25z" fill="#e1e6e9"/><rect fill="#fcd462" height="17.419" rx="1.883" width="25.581" x="24.209" y="33.938"/><path d="m49.79 35.82v13.65a1.886 1.886 0 0 1 -1.88 1.89h-.57v-13.6a1.878 1.878 0 0 0 -1.88-1.88h-21.25v-.06a1.878 1.878 0 0 1 1.88-1.88h21.82a1.878 1.878 0 0 1 1.88 1.88z" fill="#f7be56"/><g fill="#323c6b"><path d="m24.882 51.181a.5.5 0 0 1 -.355-.853l9.669-9.7a.5.5 0 0 1 .709.706l-9.669 9.7a.5.5 0 0 1 -.354.147z"/><path d="m49.24 51.3a.5.5 0 0 1 -.354-.147l-9.786-9.821a.5.5 0 0 1 .709-.706l9.791 9.825a.5.5 0 0 1 -.355.853z"/><path d="m37.005 43.15a.488.488 0 0 1 -.281-.087l-12.124-8.255a.5.5 0 1 1 .562-.826l11.842 8.063 11.83-8.063a.5.5 0 1 1 .562.826l-12.11 8.255a.488.488 0 0 1 -.281.087z"/><path d="m65.834 60.75a.5.5 0 0 1 -.271-.92 17.4 17.4 0 0 0 6.937-8.747.5.5 0 0 1 .943.334 18.4 18.4 0 0 1 -7.337 9.253.5.5 0 0 1 -.272.08z"/><path d="m61.667 62.723a.5.5 0 0 1 -.153-.976c.437-.141.873-.289 1.295-.463a.5.5 0 0 1 .382.924c-.447.185-.908.342-1.371.491a.5.5 0 0 1 -.153.024z"/><path d="m22.625 15.173a.5.5 0 0 1 -.3-.9c.358-.269.717-.535 1.092-.777a.5.5 0 1 1 .543.839c-.355.23-.7.483-1.033.737a.5.5 0 0 1 -.302.101z"/><path d="m26.375 12.972a.5.5 0 0 1 -.2-.959 19.231 19.231 0 0 1 7.715-1.593 19.487 19.487 0 0 1 2.807.216.5.5 0 1 1 -.144.989 18.479 18.479 0 0 0 -2.663-.205 18.245 18.245 0 0 0 -7.316 1.51.5.5 0 0 1 -.199.042z"/><path d="m55.888 60.579h-36.822a16.944 16.944 0 0 1 -1.508-33.821 16.206 16.206 0 0 1 27.363-8.639 10.583 10.583 0 0 1 16 9.077 10.385 10.385 0 0 1 -.622 3.578 15.227 15.227 0 0 1 -4.41 29.805zm-22.373-46.16a15.138 15.138 0 0 0 -15.035 12.881.5.5 0 0 1 -.46.423 15.944 15.944 0 0 0 1.046 31.853h36.822a14.227 14.227 0 0 0 3.612-27.987.5.5 0 0 1 -.332-.682 9.347 9.347 0 0 0 .75-3.711 9.582 9.582 0 0 0 -14.8-8.022.5.5 0 0 1 -.634-.072 15.072 15.072 0 0 0 -10.969-4.683z"/><path d="m47.907 51.856h-21.814a2.386 2.386 0 0 1 -2.384-2.383v-13.652a2.386 2.386 0 0 1 2.384-2.383h21.814a2.386 2.386 0 0 1 2.384 2.383v13.652a2.386 2.386 0 0 1 -2.384 2.383zm-21.814-17.418a1.385 1.385 0 0 0 -1.384 1.383v13.652a1.386 1.386 0 0 0 1.384 1.383h21.814a1.386 1.386 0 0 0 1.384-1.383v-13.652a1.385 1.385 0 0 0 -1.384-1.383z"/></g><path d="m37.324 48.549a.552.552 0 0 1 .575-.528h.286a.54.54 0 0 1 .552.558.777.777 0 0 1 -.016.136.618.618 0 0 1 -.559.457h-.286a.607.607 0 0 1 -.552-.623z" fill="#fff"/><path d="m29.717 48.593a.579.579 0 0 1 .583-.569h5.614a.569.569 0 0 1 .544.584.62.62 0 0 1 -.023.128.586.586 0 0 1 -.567.439h-5.613a.558.558 0 0 1 -.538-.582z" fill="#fff"/></svg>