<svg id="color_line" height="512" viewBox="0 0 74 74" width="512" xmlns="http://www.w3.org/2000/svg" data-name="color line"><path d="m45.116 58.152h6.111a22.58 22.58 0 0 0 16.073-6.664l3.7 3.7a27.814 27.814 0 0 1 -19.773 8.189h-21.852" fill="#9297ab"/><path d="m71 55.19a27.825 27.825 0 0 1 -19.77 8.18h-21.86l8.72-2.89h11.41a27.8 27.8 0 0 0 19.18-7.61z" fill="#84879c"/><path d="m51.227 63.875h-21.852a.5.5 0 0 1 0-1h21.852a27.306 27.306 0 0 0 19.062-7.693l-2.989-2.991a23.074 23.074 0 0 1 -16.072 6.461h-6.112a.5.5 0 0 1 0-1h6.111a22.094 22.094 0 0 0 15.722-6.518.5.5 0 0 1 .354-.146.5.5 0 0 1 .353.146l3.7 3.7a.5.5 0 0 1 0 .708 28.316 28.316 0 0 1 -20.129 8.333z" fill="#323c6b"/><circle cx="29.374" cy="36.999" fill="#9297ab" r="26.374"/><path d="m55.75 37a26.234 26.234 0 0 1 -9.81 20.5 26.36 26.36 0 0 0 -36.44-37.83 26.373 26.373 0 0 1 46.25 17.33z" fill="#84879c"/><circle cx="29.374" cy="36.999" fill="#eeefee" r="19.091"/><path d="m29.374 56.589a19.591 19.591 0 1 1 19.59-19.589 19.612 19.612 0 0 1 -19.59 19.589zm0-38.181a18.591 18.591 0 1 0 18.59 18.592 18.612 18.612 0 0 0 -18.59-18.592z" fill="#323c6b"/><circle cx="29.374" cy="36.999" fill="#9297ab" r="2.363"/><path d="m29.374 39.861a2.863 2.863 0 1 1 2.862-2.861 2.866 2.866 0 0 1 -2.862 2.861zm0-4.725a1.863 1.863 0 1 0 1.862 1.864 1.865 1.865 0 0 0 -1.862-1.864z" fill="#323c6b"/><circle cx="30.529" cy="26.579" fill="#9297ab" r="3.769"/><path d="m30.538 30.848a4.518 4.518 0 0 1 -.478-.026 4.264 4.264 0 1 1 .478.026zm-.011-7.537a3.274 3.274 0 0 0 -3.246 2.908 3.268 3.268 0 1 0 3.609-2.888 3.192 3.192 0 0 0 -.363-.02z" fill="#323c6b"/><circle cx="19.821" cy="32.68" fill="#9297ab" r="3.769"/><path d="m19.819 36.951a4.279 4.279 0 1 1 1.509-.277 4.252 4.252 0 0 1 -1.509.277zm.007-7.539a3.267 3.267 0 1 0 1.342.29 3.272 3.272 0 0 0 -1.342-.29z" fill="#323c6b"/><circle cx="22.314" cy="44.749" fill="#9297ab" r="3.769"/><path d="m22.31 49.018a4.288 4.288 0 1 1 .2-.005c-.065.003-.132.005-.2.005zm.007-7.538c-.051 0-.1 0-.155 0a3.243 3.243 0 1 0 .155 0z" fill="#323c6b"/><circle cx="34.563" cy="46.107" fill="#9297ab" r="3.769"/><path d="m34.57 50.375a4.268 4.268 0 1 1 3.7-6.38 4.267 4.267 0 0 1 -3.7 6.38zm-.013-7.535a3.27 3.27 0 1 0 2.843 1.65 3.268 3.268 0 0 0 -2.843-1.65z" fill="#323c6b"/><circle cx="39.64" cy="34.878" fill="#9297ab" r="3.769"/><g fill="#323c6b"><path d="m39.632 39.148a4.271 4.271 0 1 1 .872-.089 4.316 4.316 0 0 1 -.872.089zm.01-7.539a3.269 3.269 0 1 0 3.2 2.608 3.266 3.266 0 0 0 -3.2-2.608z"/><path d="m14.083 12.45a.5.5 0 0 1 -.261-.927l.218-.134c.292-.18.584-.359.885-.526a.5.5 0 0 1 .484.875c-.287.159-.565.331-.845.5l-.22.135a.5.5 0 0 1 -.261.077z"/><path d="m17.833 10.491a.5.5 0 0 1 -.2-.96 29.623 29.623 0 0 1 11.7-2.405.5.5 0 0 1 0 1 28.644 28.644 0 0 0 -11.3 2.324.49.49 0 0 1 -.2.041z"/><path d="m29.374 63.872a26.874 26.874 0 1 1 26.873-26.872 26.9 26.9 0 0 1 -26.873 26.872zm0-52.747a25.874 25.874 0 1 0 25.873 25.875 25.9 25.9 0 0 0 -25.873-25.875z"/></g><path d="m22.986 59.37a.686.686 0 0 1 -.159-.02l-.146-.037c-.339-.085-.678-.171-1.009-.272a.65.65 0 1 1 .379-1.244c.311.1.63.175.947.255l.148.037a.651.651 0 0 1 -.16 1.281z" fill="#fff"/><path d="m19.122 57.926a.648.648 0 0 1 -.291-.069 23.961 23.961 0 0 1 -7.979-6.516.65.65 0 1 1 1.019-.806 22.7 22.7 0 0 0 7.544 6.165.65.65 0 0 1 -.293 1.23z" fill="#fff"/></svg>