<svg id="color_line" height="512" viewBox="0 0 74 74" width="512" xmlns="http://www.w3.org/2000/svg" data-name="color line"><ellipse cx="11.375" cy="49.771" fill="#9297ab" rx="5.042" ry="3.437"/><path d="m60.787 50.821a10.6 10.6 0 0 0 1.188 8.01c-4.975 7.99-13.828 12.005-26.407 12.169-2.09-3.974-2.336-9.035-1.885-14.505-2.95.656-8.379 1.434-11.616-.02a6.122 6.122 0 0 1 -2.356-1.639 2.706 2.706 0 0 1 -.655-1.659 9.077 9.077 0 0 0 1.229-3.094 3.414 3.414 0 0 0 -.943-2.827c-.225-.2-.491-.41-.471-.717 0-.287.308-.492.574-.615.287-.1.594-.2.717-.491a.706.706 0 0 0 -.287-.861 1.981 1.981 0 0 0 -.963-.307 2.83 2.83 0 0 0 1.5-1.885 2.92 2.92 0 0 0 -.349-2.417 25.912 25.912 0 0 1 -3.3-.574 1.99 1.99 0 0 1 -.9-.389 1.37 1.37 0 0 1 -.369-1.27 3.528 3.528 0 0 1 .533-1.25 28.371 28.371 0 0 1 5.873-7.191 7.567 7.567 0 0 1 -.41-6.822c.615-1.414 1.721-2.786 1.517-4.323-.164-1.393-1.312-2.417-2.008-3.6a5.936 5.936 0 0 1 -.287-5.286 7.28 7.28 0 0 1 4.179-3.647 58.7 58.7 0 0 1 16.984-2.6 46.316 46.316 0 0 1 12.968 1.7 19.041 19.041 0 0 1 10.776 6.9 19.778 19.778 0 0 1 3.281 11.655 44.464 44.464 0 0 1 -4.958 19.834 32.416 32.416 0 0 0 -3.155 7.721z" fill="#fcd462"/><path d="m60.79 50.82a10.543 10.543 0 0 0 1.19 8.01 23.066 23.066 0 0 1 -2.32 3.11c-1.48-2.37-3.33-5.91-2.79-8.37a32.308 32.308 0 0 1 3.15-7.72 44.5 44.5 0 0 0 4.96-19.83 19.764 19.764 0 0 0 -3.28-11.66 19.052 19.052 0 0 0 -10.78-6.9 46.2 46.2 0 0 0 -12.96-1.7 59.277 59.277 0 0 0 -16.66 2.5 7.446 7.446 0 0 1 3.59-2.65 58.323 58.323 0 0 1 16.99-2.6 46.313 46.313 0 0 1 12.97 1.7 19.01 19.01 0 0 1 10.77 6.9 19.764 19.764 0 0 1 3.28 11.66 44.4 44.4 0 0 1 -4.96 19.83 32.308 32.308 0 0 0 -3.15 7.72z" fill="#f7be56"/><path d="m21.116 50.7c-1.485 0-3.066-.057-4.753-.181a.5.5 0 1 1 .074-1c14.938 1.092 21.358-3.055 25.278-6.793a.5.5 0 1 1 .69.724c-3.622 3.456-9.278 7.25-21.289 7.25z" fill="#323c6b"/><ellipse cx="11.375" cy="49.771" fill="#9297ab" rx="5.042" ry="3.437"/><path d="m16.42 49.77c0 1.9-2.26 3.44-5.04 3.44-2.16 0-4.01-.93-4.72-2.23a6.733 6.733 0 0 0 2.84.6c2.78 0 5.04-1.54 5.04-3.43a2.451 2.451 0 0 0 -.34-1.23 3.339 3.339 0 0 1 2.22 2.85z" fill="#84879c"/><g fill="#323c6b"><path d="m47.666 72.91a.5.5 0 0 1 -.131-.982 31.128 31.128 0 0 0 5.829-2.2.5.5 0 1 1 .439.9 32.05 32.05 0 0 1 -6 2.263.5.5 0 0 1 -.137.019z"/><path d="m44.75 73.594a.5.5 0 0 1 -.1-.99l.915-.183a.5.5 0 1 1 .254.966l-.03.006h-.024l-.165.036-.059.008-.7.14a.539.539 0 0 1 -.091.017z"/><path d="m71.573 19.417a.5.5 0 0 1 -.491-.41c-.934-5.046-1.637-6.118-3.334-8.708a.5.5 0 1 1 .837-.548c1.723 2.63 2.51 3.831 3.48 9.075a.5.5 0 0 1 -.4.582.478.478 0 0 1 -.092.009z"/><path d="m71.881 23.083a.5.5 0 0 1 -.5-.49c-.006-.338 0-.46 0-.539 0-.109 0-.132-.027-.608a.5.5 0 1 1 1-.059c.032.533.031.559.029.681v.506a.5.5 0 0 1 -.49.509z"/><path d="m35.568 71.5a.5.5 0 0 1 -.443-.267c-1.8-3.421-2.435-7.917-1.992-14.109-2.68.543-7.937 1.3-11.271-.193a6.6 6.6 0 0 1 -2.539-1.78 3.174 3.174 0 0 1 -.767-1.958.5.5 0 0 1 .068-.268 8.4 8.4 0 0 0 1.164-2.895 2.916 2.916 0 0 0 -.788-2.411 1.39 1.39 0 0 1 -.627-1.113c0-.272.149-.7.863-1.035.23-.085.434-.158.468-.236a.247.247 0 0 0 -.112-.251 1.526 1.526 0 0 0 -.737-.223.5.5 0 0 1 -.161-.946 2.308 2.308 0 0 0 1.227-1.547 2.589 2.589 0 0 0 -.151-1.835 26.3 26.3 0 0 1 -3.127-.558 2.425 2.425 0 0 1 -1.12-.506 1.861 1.861 0 0 1 -.523-1.728 3.8 3.8 0 0 1 .564-1.363 29.311 29.311 0 0 1 5.707-7.1 8.067 8.067 0 0 1 -.233-6.916c.169-.389.375-.777.582-1.167a5.021 5.021 0 0 0 .895-2.887 5.06 5.06 0 0 0 -1.172-2.291 13.4 13.4 0 0 1 -.772-1.127 6.446 6.446 0 0 1 -.312-5.742 7.723 7.723 0 0 1 4.475-3.917 58.892 58.892 0 0 1 17.131-2.621 46.518 46.518 0 0 1 13.11 1.712 19.491 19.491 0 0 1 11.054 7.1c2.816 3.923 3.388 8.664 3.371 11.951a44.9 44.9 0 0 1 -5.013 20.056 32.177 32.177 0 0 0 -3.112 7.6 10 10 0 0 0 1.12 7.632.5.5 0 0 1 0 .537c-5.024 8.064-14.05 12.238-26.825 12.4zm-1.885-15.5a.5.5 0 0 1 .5.541c-.509 6.172.028 10.621 1.689 13.958 12.108-.221 20.689-4.145 25.514-11.666a11.084 11.084 0 0 1 -1.086-8.119 32.884 32.884 0 0 1 3.2-7.845 43.9 43.9 0 0 0 4.9-19.606c.016-3.138-.524-7.657-3.184-11.363a18.5 18.5 0 0 0 -10.5-6.711 45.7 45.7 0 0 0 -12.826-1.679 57.912 57.912 0 0 0 -16.838 2.571 6.788 6.788 0 0 0 -3.882 3.377 5.427 5.427 0 0 0 .265 4.831 12.283 12.283 0 0 0 .712 1.038 5.878 5.878 0 0 1 1.359 2.759 5.823 5.823 0 0 1 -1 3.481c-.2.366-.39.731-.55 1.1a7.043 7.043 0 0 0 .381 6.367.5.5 0 0 1 -.1.635 27.972 27.972 0 0 0 -5.775 7.065 3.2 3.2 0 0 0 -.469 1.064.9.9 0 0 0 .2.828 1.605 1.605 0 0 0 .692.279 25.425 25.425 0 0 0 3.233.562.5.5 0 0 1 .344.2 3.4 3.4 0 0 1 .434 2.838 3.307 3.307 0 0 1 -.871 1.572 1.6 1.6 0 0 1 .144.093 1.2 1.2 0 0 1 .43 1.515 1.459 1.459 0 0 1 -.958.705.666.666 0 0 0 -.274.19 1.633 1.633 0 0 0 .248.25 3.945 3.945 0 0 1 1.17 3.307 9.112 9.112 0 0 1 -1.221 3.163 2.238 2.238 0 0 0 .525 1.214 5.524 5.524 0 0 0 2.18 1.509c3.457 1.553 9.527.385 11.306-.011a.565.565 0 0 1 .108-.012z"/></g><path d="m41.88 3.252v21.181h8.472v-20.787a1.906 1.906 0 0 0 -1.613-1.9 43.306 43.306 0 0 0 -4.859-.42 1.93 1.93 0 0 0 -2 1.926z" fill="#9297ab"/><path d="m50.35 3.65v20.78h-2.37v-18.62a1.9 1.9 0 0 0 -1.62-1.89 37.646 37.646 0 0 0 -4.48-.4v-.27a1.932 1.932 0 0 1 2-1.92 44.264 44.264 0 0 1 4.86.42 1.9 1.9 0 0 1 1.61 1.9z" fill="#84879c"/><path d="m50.353 24.933h-8.473a.5.5 0 0 1 -.5-.5v-21.182a2.4 2.4 0 0 1 .732-1.731 2.48 2.48 0 0 1 1.788-.69 43.834 43.834 0 0 1 4.915.425 2.412 2.412 0 0 1 2.043 2.391v20.787a.5.5 0 0 1 -.505.5zm-7.973-1h7.473v-20.287a1.408 1.408 0 0 0 -1.185-1.4 43.015 43.015 0 0 0 -4.8-.415 1.445 1.445 0 0 0 -1.056.407 1.4 1.4 0 0 0 -.429 1.014z" fill="#323c6b"/><circle cx="46.116" cy="33.716" fill="#9297ab" r="10.216"/><path d="m56.33 33.72a10.208 10.208 0 0 1 -10.21 10.21 9.765 9.765 0 0 1 -1.44-.1 10.216 10.216 0 0 0 0-20.23 9.765 9.765 0 0 1 1.44-.1 10.211 10.211 0 0 1 10.21 10.22z" fill="#84879c"/><circle cx="46.116" cy="33.716" fill="#bbbbcd" r="5.8"/><path d="m46.116 40.016a6.3 6.3 0 1 1 6.3-6.3 6.307 6.307 0 0 1 -6.3 6.3zm0-11.6a5.3 5.3 0 1 0 5.3 5.3 5.306 5.306 0 0 0 -5.3-5.299z" fill="#323c6b"/><path d="m46.116 44.433a10.717 10.717 0 1 1 10.716-10.717 10.73 10.73 0 0 1 -10.716 10.717zm0-20.433a9.717 9.717 0 1 0 9.716 9.716 9.728 9.728 0 0 0 -9.716-9.716z" fill="#323c6b"/><path d="m11.375 53.708c-3.056 0-5.542-1.767-5.542-3.937s2.486-3.937 5.542-3.937 5.542 1.766 5.542 3.937-2.486 3.937-5.542 3.937zm0-6.874c-2.5 0-4.542 1.317-4.542 2.937s2.038 2.937 4.542 2.937 4.542-1.318 4.542-2.937-2.038-2.937-4.542-2.937z" fill="#323c6b"/><path d="m44.432 17.3a.7.7 0 0 1 .674.732v.366a.7.7 0 0 1 -.717.711 1.008 1.008 0 0 1 -.173-.02.786.786 0 0 1 -.584-.713v-.365a.785.785 0 0 1 .8-.711z" fill="#fff"/><path d="m44.388 8.029a.733.733 0 0 1 .726.742v6.716a.737.737 0 0 1 -.75.7.876.876 0 0 1 -.163-.029.743.743 0 0 1 -.56-.722v-6.715a.719.719 0 0 1 .747-.692z" fill="#fff"/></svg>