<svg id="color_line" height="512" viewBox="0 0 74 74" width="512" xmlns="http://www.w3.org/2000/svg" data-name="color line"><path d="m38.989 39.567c.088-2.485.431-6.894 1.636-9.48 1.332-2.831 6-4.662 9.373-5.5a5.794 5.794 0 0 0 1.216 1 6.988 6.988 0 0 0 7.363 0 5.775 5.775 0 0 0 1.217-1c3.369.843 8.041 2.674 9.373 5.5 1.2 2.586 1.547 7 1.635 9.48z" fill="#fcd462"/><path d="m48.115 13.3a6.612 6.612 0 0 1 7.24-6.583 6.739 6.739 0 0 1 5.978 6.773v2.526a6.738 6.738 0 0 1 -5.978 6.773 6.611 6.611 0 0 1 -7.24-6.583z" fill="#fcd462"/><path d="m3.2 68.192c.088-2.485.431-6.893 1.635-9.479 1.332-2.831 6-4.663 9.373-5.505a5.771 5.771 0 0 0 1.217 1 6.983 6.983 0 0 0 7.363 0 5.79 5.79 0 0 0 1.216-1c3.37.842 8.041 2.674 9.373 5.505 1.2 2.586 1.548 6.994 1.636 9.479z" fill="#fcd462"/><path d="m12.323 41.928a6.612 6.612 0 0 1 7.241-6.583 6.739 6.739 0 0 1 5.978 6.773v2.526a6.74 6.74 0 0 1 -5.978 6.773 6.612 6.612 0 0 1 -7.241-6.583z" fill="#fcd462"/><path d="m70.8 39.57h-31.81c.03-.77.08-1.73.18-2.75h27.74c-.09-2.49-.43-6.9-1.64-9.48a5.244 5.244 0 0 0 -.7-1.08c2.04.96 3.85 2.24 4.6 3.83 1.2 2.58 1.54 6.99 1.63 9.48z" fill="#f7be56"/><path d="m61.33 13.49v2.53a6.735 6.735 0 0 1 -5.97 6.77 6.621 6.621 0 0 1 -6.04-2.77 6.512 6.512 0 0 0 3.68.72 6.735 6.735 0 0 0 5.98-6.77v-2.53a6.983 6.983 0 0 0 -1.29-4.03 6.866 6.866 0 0 1 3.64 6.08z" fill="#f7be56"/><path d="m35.01 68.19h-31.81c.02-.77.08-1.72.17-2.75h27.75c-.09-2.48-.43-6.89-1.64-9.48a5.194 5.194 0 0 0 -.69-1.08c2.03.97 3.84 2.24 4.59 3.83 1.2 2.59 1.54 7 1.63 9.48z" fill="#f7be56"/><path d="m25.54 42.12v2.52a6.738 6.738 0 0 1 -5.98 6.78 6.587 6.587 0 0 1 -6.02-2.77 6.562 6.562 0 0 0 3.67.72 6.745 6.745 0 0 0 5.98-6.78v-2.52a6.983 6.983 0 0 0 -1.29-4.03 6.847 6.847 0 0 1 3.64 6.08z" fill="#f7be56"/><g fill="#323c6b"><path d="m8.241 24.575a.5.5 0 0 1 -.429-.756 38.228 38.228 0 0 1 24.788-16.152.5.5 0 1 1 .173.985 37.192 37.192 0 0 0 -24.102 15.678.5.5 0 0 1 -.43.245z"/><path d="m30.133 14.593a.5.5 0 0 1 -.448-.721l2.751-5.572-5.577-2.757a.5.5 0 0 1 .444-.9l6.024 2.977a.5.5 0 0 1 .227.67l-2.973 6.024a.5.5 0 0 1 -.448.279z"/><path d="m42.384 66.708a.5.5 0 0 1 -.118-.986 37.185 37.185 0 0 0 23.047-17.2.5.5 0 0 1 .891.455 38.223 38.223 0 0 1 -23.704 17.716.483.483 0 0 1 -.116.015z"/><path d="m48.178 69.405a.49.49 0 0 1 -.193-.039l-6.2-2.58a.5.5 0 0 1 -.269-.653l2.579-6.2a.5.5 0 0 1 .924.383l-2.388 5.742 5.742 2.388a.5.5 0 0 1 -.192.962z"/><path d="m65.759 43.067h-.592a.5.5 0 0 1 0-1h.592a.5.5 0 0 1 0 1z"/><path d="m63 43.067h-9.667a.5.5 0 0 1 0-1h9.667a.5.5 0 0 1 0 1z"/><path d="m1.112 60.771a.485.485 0 0 1 -.1-.01.5.5 0 0 1 -.391-.59l.053-.271c.031-.165.061-.33.1-.49a.5.5 0 1 1 .973.23c-.034.144-.061.293-.089.442l-.055.293a.5.5 0 0 1 -.491.396z"/><path d="m2.113 57.946a.506.506 0 0 1 -.213-.046.5.5 0 0 1 -.239-.666c.977-2.076 2.935-3.86 5.819-5.3a.5.5 0 0 1 .448.9c-2.679 1.339-4.484 2.966-5.363 4.834a.5.5 0 0 1 -.452.278z"/><path d="m70.8 40.067h-31.811a.5.5 0 0 1 -.5-.518c.087-2.45.421-6.966 1.683-9.674 1.659-3.525 7.848-5.313 9.705-5.777a.5.5 0 0 1 .492.149 5.269 5.269 0 0 0 1.11.908 6.465 6.465 0 0 0 6.833 0 5.287 5.287 0 0 0 1.111-.908.5.5 0 0 1 .492-.149c1.857.464 8.046 2.253 9.7 5.776 1.261 2.707 1.6 7.223 1.684 9.675a.5.5 0 0 1 -.5.518zm-31.293-1h30.774c-.1-2.149-.437-6.343-1.567-8.769-1.4-2.973-6.742-4.629-8.762-5.159a6.509 6.509 0 0 1 -1.109.861 7.467 7.467 0 0 1 -7.9 0 6.478 6.478 0 0 1 -1.108-.863c-2.02.529-7.362 2.185-8.763 5.161-1.126 2.429-1.463 6.621-1.562 8.769z"/><path d="m54.712 23.321a7.028 7.028 0 0 1 -4.773-1.852 7.133 7.133 0 0 1 -2.325-5.261v-2.908a7.133 7.133 0 0 1 2.325-5.26 7.055 7.055 0 0 1 5.461-1.819 7.267 7.267 0 0 1 6.431 7.272v2.525a7.266 7.266 0 0 1 -6.431 7.271c-.229.022-.46.032-.688.032zm0-16.132a6.045 6.045 0 0 0 -4.1 1.592 6.131 6.131 0 0 0 -2 4.521v2.906a6.13 6.13 0 0 0 2 4.521 6.046 6.046 0 0 0 4.7 1.564 6.259 6.259 0 0 0 5.524-6.275v-2.525a6.26 6.26 0 0 0 -5.524-6.276q-.303-.028-.597-.028z"/><path d="m35.011 68.692h-31.811a.5.5 0 0 1 -.5-.518c.088-2.451.423-6.968 1.683-9.672 1.659-3.526 7.848-5.314 9.705-5.779a.5.5 0 0 1 .492.15 5.318 5.318 0 0 0 1.111.908 6.465 6.465 0 0 0 6.833 0 5.3 5.3 0 0 0 1.11-.908.5.5 0 0 1 .492-.15c1.857.464 8.046 2.253 9.7 5.777 1.263 2.709 1.6 7.224 1.684 9.675a.5.5 0 0 1 -.5.517zm-31.292-1h30.771c-.1-2.147-.436-6.34-1.568-8.768-1.4-2.974-6.742-4.63-8.762-5.159a6.475 6.475 0 0 1 -1.108.862 7.463 7.463 0 0 1 -7.895 0 6.455 6.455 0 0 1 -1.109-.862c-2.02.529-7.362 2.185-8.763 5.161-1.129 2.424-1.467 6.618-1.566 8.766z"/><path d="m18.92 51.947a7.026 7.026 0 0 1 -4.772-1.847 7.135 7.135 0 0 1 -2.325-5.261v-2.911a7.133 7.133 0 0 1 2.325-5.261 7.061 7.061 0 0 1 5.462-1.82 7.266 7.266 0 0 1 6.432 7.271v2.526a7.266 7.266 0 0 1 -6.432 7.271c-.231.021-.462.032-.69.032zm0-16.132a6.036 6.036 0 0 0 -4.1 1.591 6.131 6.131 0 0 0 -2 4.522v2.906a6.133 6.133 0 0 0 2 4.521 6.05 6.05 0 0 0 4.7 1.563 6.258 6.258 0 0 0 5.525-6.274v-2.526a6.259 6.259 0 0 0 -5.525-6.275q-.303-.029-.598-.028z"/></g><path d="m42.9 33.225a.62.62 0 0 1 -.163-.022.6.6 0 0 1 -.416-.74 9.189 9.189 0 0 1 .479-1.363c.523-1.11 2.483-2.4 5.117-3.373a.6.6 0 0 1 .416 1.126c-2.617.965-4.14 2.105-4.446 2.756a7.689 7.689 0 0 0 -.413 1.177.6.6 0 0 1 -.574.439z" fill="#fff"/><path d="m42.192 35.6a.7.7 0 0 1 -.09-.007.6.6 0 0 1 -.5-.683l.093-.381a.6.6 0 0 1 1.184.2l-.089.361a.6.6 0 0 1 -.598.51z" fill="#fff"/></svg>