<svg id="color_line" height="512" viewBox="0 0 74 74" width="512" xmlns="http://www.w3.org/2000/svg" data-name="color line"><path d="m20 28.826a13.386 13.386 0 0 1 13.246-11.613 13.545 13.545 0 0 1 8.815 3.168 12.075 12.075 0 0 1 3.8 5.595l7.495 2.745-6.6 3.272-2.267 1.107 2.27-1.109c.049 5.957-1.3 17.831-12.242 23.38a21.7 21.7 0 0 1 -5.631 1.893c-23.146 4.55-25.886-22.948-25.886-22.948a25.309 25.309 0 0 0 2.586 2.692 8.055 8.055 0 0 0 7.39 2.006" fill="#fcd462"/><path d="m53.36 28.72-6.6 3.27c.05 5.96-1.3 17.83-12.24 23.38a21.864 21.864 0 0 1 -5.63 1.9c-6.88 1.35-11.95-.13-15.69-2.87a20.413 20.413 0 0 0 12.44.99 21.661 21.661 0 0 0 5.64-1.89c10.94-5.55 12.29-17.42 12.24-23.38l5.8-2.87z" fill="#f7be56"/><circle cx="37.493" cy="25.248" fill="#fff" r="1.66"/><path d="m37.493 27.408a2.16 2.16 0 1 1 2.16-2.16 2.162 2.162 0 0 1 -2.16 2.16zm0-3.32a1.16 1.16 0 1 0 1.16 1.16 1.161 1.161 0 0 0 -1.16-1.16z" fill="#323c6b"/><path d="m13.94 18.151s3.529 11.9 11.275 13.772c7.188 1.74.832 13.091-8.172 9.912-10.897-3.845-4.994-20.808-3.103-23.684z" fill="#fcd462"/><path d="m28.3 35.19c.27 3.76-4.82 8.91-11.26 6.65-4.51-1.59-6.14-5.44-6.37-9.6a.936.936 0 0 0 .04.16c-.02-.21-.04-.42-.05-.63a9.025 9.025 0 0 0 6 6.93c5.8 2.05 10.5-1.93 11.19-5.49a3.453 3.453 0 0 1 .45 1.98z" fill="#f7be56"/><path d="m31.241 66.621a.533.533 0 0 1 -.088-.008l-6.3-1.116a.5.5 0 0 1 -.412-.5l.073-7.263a.478.478 0 0 1 .5-.5.5.5 0 0 1 .5.505l-.069 6.839 5.88 1.042a.5.5 0 0 1 -.087.993z" fill="#323c6b"/><path d="m21.723 65.805a.5.5 0 0 1 -.047-1l3.214-.305a.489.489 0 0 1 .545.45.5.5 0 0 1 -.45.545l-3.214.308a.385.385 0 0 1 -.048.002z" fill="#323c6b"/><path d="m52.05 9.279v9.69a1.908 1.908 0 0 0 1.908 1.908h1.092v3.923l5.606-3.921h8.436a1.908 1.908 0 0 0 1.908-1.91v-9.69a1.908 1.908 0 0 0 -1.908-1.908h-15.134a1.908 1.908 0 0 0 -1.908 1.908z" fill="#27ccbc"/><path d="m71 9.28v9.69a1.91 1.91 0 0 1 -1.91 1.91h-.59v-9.15a1.91 1.91 0 0 0 -1.91-1.91h-14.54v-.54a1.91 1.91 0 0 1 1.91-1.91h15.13a1.91 1.91 0 0 1 1.91 1.91z" fill="#21b3a9"/><g fill="#323c6b"><path d="m66.657 12.108h-10.264a.5.5 0 0 1 0-1h10.264a.5.5 0 0 1 0 1z"/><path d="m63.91 17.016h-7.517a.5.5 0 0 1 0-1h7.517a.5.5 0 0 1 0 1z"/><path d="m38.211 57.188a.5.5 0 0 1 -.273-.92 22.846 22.846 0 0 0 6.289-6.055.5.5 0 0 1 .818.574 23.831 23.831 0 0 1 -6.562 6.32.5.5 0 0 1 -.272.081z"/><path d="m35.25 58.836a.5.5 0 0 1 -.212-.953l.248-.112c.122-.055.244-.109.362-.169l.185-.1a.5.5 0 1 1 .459.889l-.192.1c-.132.067-.269.128-.406.19l-.232.105a.5.5 0 0 1 -.212.05z"/><path d="m20.75 20.547a.5.5 0 0 1 -.381-.823q.462-.546.966-1.051a.5.5 0 1 1 .7.709q-.476.474-.909.988a.5.5 0 0 1 -.376.177z"/><path d="m23.813 17.741a.5.5 0 0 1 -.289-.908 16.829 16.829 0 0 1 9.211-3.1.523.523 0 0 1 .515.485.5.5 0 0 1 -.485.515 15.825 15.825 0 0 0 -8.665 2.917.5.5 0 0 1 -.287.091z"/><path d="m23.934 58.273a18.168 18.168 0 0 1 -11.112-3.533c-8.85-6.571-10.264-19.814-10.322-20.374a.5.5 0 0 1 .88-.372 24.726 24.726 0 0 0 2.535 2.639 7.552 7.552 0 0 0 6.946 1.894.5.5 0 1 1 .227.973 8.53 8.53 0 0 1 -7.843-2.125c-.492-.434-.989-.918-1.5-1.463.677 3.763 2.973 13.055 9.675 18.028 4.139 3.072 9.309 4.025 15.368 2.835a21.168 21.168 0 0 0 5.5-1.848c10.1-5.124 11.882-15.74 11.966-22.133l-1.549.757a.5.5 0 0 1 -.668-.23.494.494 0 0 1 -.051-.219.5.5 0 0 1 .281-.45l7.822-3.862-6.4-2.345a.5.5 0 0 1 -.307-.327 11.6 11.6 0 0 0 -3.645-5.356 13.006 13.006 0 0 0 -21.244 8.128.5.5 0 0 1 -.992-.128 14.006 14.006 0 0 1 22.883-8.762 12.641 12.641 0 0 1 3.879 5.591l7.266 2.661a.5.5 0 0 1 .051.917l-6.319 3.131c0 6.559-1.678 18.017-12.518 23.515a22.155 22.155 0 0 1 -5.761 1.938 26.154 26.154 0 0 1 -5.048.52z"/><path d="m20.185 42.886a9.946 9.946 0 0 1 -3.309-.579 9.338 9.338 0 0 1 -5.992-6.107c-2.356-7 1.453-16.522 2.639-18.325a.5.5 0 0 1 .9.133c.034.116 3.539 11.642 10.913 13.428a4.211 4.211 0 0 1 3.355 2.964c.5 1.928-.44 4.325-2.385 6.108a8.984 8.984 0 0 1 -6.121 2.378zm-6.356-23.492c-1.5 3.129-3.873 10.915-2 16.488a8.385 8.385 0 0 0 5.377 5.482 8.207 8.207 0 0 0 8.421-1.592c1.651-1.513 2.492-3.571 2.093-5.122a3.223 3.223 0 0 0 -2.62-2.241c-6.6-1.598-10.172-9.961-11.271-13.015z"/><path d="m55.05 25.3a.5.5 0 0 1 -.5-.5v-3.423h-.592a2.41 2.41 0 0 1 -2.408-2.408v-9.69a2.41 2.41 0 0 1 2.408-2.408h15.134a2.41 2.41 0 0 1 2.408 2.408v9.69a2.41 2.41 0 0 1 -2.408 2.408h-8.278l-5.477 3.831a.5.5 0 0 1 -.287.092zm-1.092-17.429a1.409 1.409 0 0 0 -1.408 1.408v9.69a1.41 1.41 0 0 0 1.408 1.408h1.092a.5.5 0 0 1 .5.5v2.961l4.82-3.371a.5.5 0 0 1 .286-.09h8.436a1.41 1.41 0 0 0 1.408-1.408v-9.69a1.409 1.409 0 0 0 -1.408-1.408z"/></g></svg>