<svg id="color_line" height="512" viewBox="0 0 74 74" width="512" xmlns="http://www.w3.org/2000/svg" data-name="color line"><path d="m56.024 34.2-2.093 32.451a3.036 3.036 0 0 1 -3.031 2.849h-27.8a3.036 3.036 0 0 1 -3.03-2.852l-2.094-32.448z" fill="#e7aa6c"/><path d="m58.867 20.629h-43.734a1.359 1.359 0 0 0 -1.348 1.537l1.435 10.849a1.361 1.361 0 0 0 1.348 1.185h40.864a1.361 1.361 0 0 0 1.348-1.181l1.435-10.849a1.359 1.359 0 0 0 -1.348-1.541z" fill="#e7aa6c"/><path d="m56.02 34.2-2.09 32.45a3.034 3.034 0 0 1 -3.03 2.85h-27.8a3.034 3.034 0 0 1 -3.03-2.85l-.04-.57h27.2a3.027 3.027 0 0 0 3.03-2.85l1.88-29.03z" fill="#d09865"/><path d="m60.21 22.17-1.43 10.84a1.368 1.368 0 0 1 -1.35 1.19h-3.66a1.358 1.358 0 0 0 1.34-1.19l1.44-10.84a1.36 1.36 0 0 0 -1.35-1.54h3.67a1.353 1.353 0 0 1 1.34 1.54z" fill="#d09865"/><path d="m19.383 21.128h-.052a.5.5 0 0 1 -.446-.549l1.053-10.131a3.141 3.141 0 0 1 1.727-2.5l3.36-1.684a.5.5 0 0 1 .448.894l-3.361 1.685a2.146 2.146 0 0 0 -1.179 1.706l-1.053 10.131a.5.5 0 0 1 -.497.448z" fill="#323c6b"/><rect fill="#9297ab" height="8.813" rx="2.25" transform="matrix(.455 .89 -.89 .455 20.13 -23.411)" width="4.533" x="26.93" y=".337"/><g fill="#323c6b"><path d="m27.286 8.491a2.761 2.761 0 0 1 -2.452-1.5 2.761 2.761 0 0 1 1.183-3.73l3.84-1.961a2.756 2.756 0 0 1 3.7 1.2l.015.029a2.75 2.75 0 0 1 -1.2 3.7l-3.84 1.963a2.727 2.727 0 0 1 -1.246.299zm3.819-6.491a1.75 1.75 0 0 0 -.793.191l-3.84 1.964a1.749 1.749 0 0 0 -.762 2.355 1.751 1.751 0 0 0 2.37.79l3.84-1.964a1.748 1.748 0 0 0 .762-2.354l-.015-.029a1.752 1.752 0 0 0 -1.562-.953z"/><path d="m50.9 73a.5.5 0 1 1 0-1 5.538 5.538 0 0 0 5.525-5.189l.049-.763a.5.5 0 1 1 1 .065l-.049.76a6.539 6.539 0 0 1 -6.525 6.127z"/><path d="m16.037 51.25a.5.5 0 0 1 -.5-.468l-.048-.75a.5.5 0 1 1 1-.064l.048.75a.5.5 0 0 1 -.467.531z"/><path d="m15.849 48.333a.5.5 0 0 1 -.5-.467l-.532-8.25a.5.5 0 1 1 1-.065l.532 8.25a.5.5 0 0 1 -.467.532z"/><path d="m57.109 64.5h-.033a.5.5 0 0 1 -.467-.531l.054-.834a.5.5 0 1 1 1 .065l-.054.833a.5.5 0 0 1 -.5.467z"/><path d="m50.9 70h-27.8a3.54 3.54 0 0 1 -3.529-3.321l-2.094-32.448a.5.5 0 0 1 .5-.532h38.047a.5.5 0 0 1 .5.532l-2.094 32.453a3.54 3.54 0 0 1 -3.53 3.316zm-32.391-35.3 2.059 31.92a2.539 2.539 0 0 0 2.532 2.38h27.8a2.539 2.539 0 0 0 2.531-2.382l2.06-31.918z"/><path d="m57.432 34.7h-40.864a1.864 1.864 0 0 1 -1.843-1.616l-1.435-10.853a1.86 1.86 0 0 1 1.843-2.1h43.734a1.86 1.86 0 0 1 1.843 2.1l-1.435 10.849a1.864 1.864 0 0 1 -1.843 1.62zm-42.3-13.568a.86.86 0 0 0 -.852.973l1.435 10.848a.862.862 0 0 0 .852.747h40.865a.862.862 0 0 0 .852-.747l1.435-10.853a.86.86 0 0 0 -.852-.973z"/></g><path d="m48.325 23.684a.624.624 0 0 1 .653-.6h.326a.623.623 0 0 1 .635.64.9.9 0 0 1 -.018.154.7.7 0 0 1 -.635.521h-.327a.7.7 0 0 1 -.634-.715z" fill="#fff"/><path d="m38.026 23.723a.654.654 0 0 1 .662-.647h8.075a.657.657 0 0 1 .626.669.706.706 0 0 1 -.026.145.661.661 0 0 1 -.644.5h-8.076a.642.642 0 0 1 -.617-.667z" fill="#fff"/></svg>