<svg id="color_line" height="512" viewBox="0 0 74 74" width="512" xmlns="http://www.w3.org/2000/svg" data-name="color line"><path d="m36.005 63.566 34.99-20.328-19.055-32.804-48.936 28.444 14.342 24.688z" fill="#fcd462"/><path d="m70.99 43.24-2.98 1.73-17.44-30.04-45.96 26.72-1.61-2.77 48.94-28.45z" fill="#f7be56"/><g fill="#323c6b"><path d="m38.162 43.557a.377.377 0 0 1 -.058 0l-35.163-4.186a.5.5 0 0 1 -.192-.929l48.939-28.442a.5.5 0 0 1 .712.627l-13.777 32.624a.5.5 0 0 1 -.461.306zm-33.617-5 33.3 3.961 13.055-30.897z"/><path d="m24.3 64.066a.507.507 0 0 1 -.133-.018.5.5 0 0 1 -.349-.615l5.931-21.449a.5.5 0 0 1 .963.267l-5.933 21.449a.5.5 0 0 1 -.479.366z"/><path d="m71 43.737a.524.524 0 0 1 -.123-.015l-29.727-7.539a.5.5 0 0 1 .246-.97l29.727 7.539a.5.5 0 0 1 -.123.985z"/><path d="m66.533 64.065h-1.716a.5.5 0 0 1 0-1h1.716a.5.5 0 1 1 0 1z"/><path d="m59.6 64.065h-51.41a.5.5 0 1 1 0-1h51.41a.5.5 0 0 1 0 1z"/><path d="m51.384 58.6a.5.5 0 0 1 -.251-.933l5.795-3.367a.5.5 0 0 1 .5.864l-5.8 3.367a.5.5 0 0 1 -.244.069z"/><path d="m49.19 59.875a.5.5 0 0 1 -.251-.932l.411-.238a.5.5 0 1 1 .5.864l-.411.238a.5.5 0 0 1 -.249.068z"/><path d="m62.277 22.758a.5.5 0 0 1 -.432-.249l-4.264-7.342a.5.5 0 0 1 .865-.5l4.264 7.341a.5.5 0 0 1 -.182.684.505.505 0 0 1 -.251.066z"/><path d="m63.821 25.417a.5.5 0 0 1 -.432-.25l-.334-.575a.5.5 0 1 1 .865-.5l.334.576a.5.5 0 0 1 -.433.751z"/><path d="m36.005 64.066h-18.658a.5.5 0 0 1 -.433-.249l-14.343-24.688a.5.5 0 0 1 .182-.683l48.936-28.446a.493.493 0 0 1 .379-.051.5.5 0 0 1 .3.232l19.054 32.8a.5.5 0 0 1 -.182.683l-34.984 20.336a.5.5 0 0 1 -.251.066zm-18.37-1h18.235l34.441-20.009-18.551-31.939-48.072 27.941z"/></g><path d="m28.613 39.119a.651.651 0 0 1 .755-.535l.337.046a.649.649 0 0 1 .57.746.876.876 0 0 1 -.038.157.73.73 0 0 1 -.726.454l-.337-.047a.729.729 0 0 1 -.561-.821z" fill="#fff"/><path d="m18.323 37.841a.682.682 0 0 1 .77-.582l7.986 1.026a.684.684 0 0 1 .559.773.805.805 0 0 1 -.046.148.692.692 0 0 1 -.733.431l-7.986-1.025a.67.67 0 0 1 -.55-.771z" fill="#fff"/></svg>