<svg id="color_line" height="512" viewBox="0 0 74 74" width="512" xmlns="http://www.w3.org/2000/svg" data-name="color line"><path d="m57.348 64.475h-40.7v-55.913c13.1-7.286 26.65-7.544 40.7 0z" fill="#fe7058"/><path d="m52.197 20.664v43.811h-30.394v-43.855z" fill="#bbbbcd"/><path d="m52.2 64.975h-30.4a.5.5 0 0 1 -.5-.5v-43.855a.5.5 0 0 1 .5-.5l30.394.045a.5.5 0 0 1 .5.5v43.81a.5.5 0 0 1 -.494.5zm-29.894-1h29.394v-42.811l-29.4-.043z" fill="#323c6b"/><path d="m26.955 30.51a.5.5 0 0 1 0-1h20.09a.5.5 0 0 1 0 1z" fill="#323c6b"/><path d="m26.955 38.864a.5.5 0 1 1 0-1h20.09a.5.5 0 0 1 0 1z" fill="#323c6b"/><path d="m26.955 47.217a.5.5 0 0 1 0-1h20.09a.5.5 0 0 1 0 1z" fill="#323c6b"/><path d="m26.955 55.571a.5.5 0 0 1 0-1h20.09a.5.5 0 0 1 0 1z" fill="#323c6b"/><path d="m12.015 64.475h49.969v6.525h-49.969z" fill="#fe7058"/><path d="m57.35 8.56v55.91h-3.5v-52.65c-12.8-6.87-25.19-7.26-37.2-1.77v-1.49c13.1-7.28 26.65-7.54 40.7 0z" fill="#ea6453"/><path d="m58.48 64.47h3.5v6.53h-3.5z" fill="#ea6453"/><g fill="#323c6b"><path d="m31.4 60.142a.5.5 0 0 1 -.5-.5l.043-34.2a.5.5 0 0 1 .5-.5.5.5 0 0 1 .5.5l-.043 34.2a.5.5 0 0 1 -.5.5z"/><path d="m42.561 60.157a.5.5 0 0 1 -.5-.5l.044-34.2a.5.5 0 0 1 .5-.5.5.5 0 0 1 .5.5l-.044 34.2a.5.5 0 0 1 -.5.5z"/><path d="m29.788 13.308a.5.5 0 0 1 -.5-.5v-1.908a.5.5 0 1 1 1 0v1.909a.5.5 0 0 1 -.5.499z"/><path d="m37 13.308a.5.5 0 0 1 -.5-.5v-1.908a.5.5 0 0 1 1 0v1.909a.5.5 0 0 1 -.5.499z"/><path d="m44.212 13.308a.5.5 0 0 1 -.5-.5v-1.908a.5.5 0 0 1 1 0v1.909a.5.5 0 0 1 -.5.499z"/><path d="m13.651 14.458a.5.5 0 0 1 -.5-.5v-.708a.5.5 0 0 1 1 0v.708a.5.5 0 0 1 -.5.5z"/><path d="m13.651 11.625a.5.5 0 0 1 -.5-.5v-4.325a.5.5 0 0 1 .257-.437l1.542-.863q1.118-.621 2.242-1.17a.5.5 0 1 1 .44.9q-1.1.54-2.2 1.147l-1.286.715v4.034a.5.5 0 0 1 -.495.499z"/><path d="m60.349 54a.5.5 0 0 1 -.5-.5v-8.281a.5.5 0 0 1 1 0v8.281a.5.5 0 0 1 -.5.5z"/><path d="m60.349 56.75a.5.5 0 0 1 -.5-.5v-.5a.5.5 0 0 1 1 0v.5a.5.5 0 0 1 -.5.5z"/><path d="m57.349 64.975h-40.7a.5.5 0 0 1 -.5-.5v-55.913a.5.5 0 0 1 .257-.437c13.429-7.466 27.283-7.467 41.179-.004a.5.5 0 0 1 .264.441v55.913a.5.5 0 0 1 -.5.5zm-40.2-1h39.7v-55.114c-13.4-7.1-26.753-7.106-39.7-.005z"/><path d="m61.984 71.5h-49.968a.5.5 0 0 1 -.5-.5v-6.525a.5.5 0 0 1 .5-.5h49.968a.5.5 0 0 1 .5.5v6.525a.5.5 0 0 1 -.5.5zm-49.468-1h48.968v-5.525h-48.968z"/></g><path d="m36.337 17.649a.658.658 0 0 1 .689-.631h.343a.655.655 0 0 1 .665.675.992.992 0 0 1 -.018.162.738.738 0 0 1 -.671.546l-.345-.001a.737.737 0 0 1 -.663-.751z" fill="#fff"/><path d="m25.871 17.661a.688.688 0 0 1 .7-.68l8.127.024a.692.692 0 0 1 .657.706.851.851 0 0 1 -.028.153.7.7 0 0 1 -.679.524l-8.128-.024a.675.675 0 0 1 -.649-.703z" fill="#fff"/></svg>