<svg id="color_line" height="512" viewBox="0 0 74 74" width="512" xmlns="http://www.w3.org/2000/svg" data-name="color line"><path d="m18.036 23.162h35.927v5h-35.927z" fill="#e1e6e9" transform="matrix(.898 -.441 .441 .898 -7.625 18.488)"/><path d="m20.975 36.321a.5.5 0 0 1 -.45-.28l-2.2-4.488a.511.511 0 0 1 -.024-.382.5.5 0 0 1 .253-.287l32.246-15.829a.5.5 0 0 1 .67.229l2.2 4.488a.511.511 0 0 1 .024.382.5.5 0 0 1 -.253.287l-32.241 15.829a.509.509 0 0 1 -.225.051zm-1.535-4.76 1.76 3.591 31.358-15.388-1.758-3.591z" fill="#323c6b"/><path d="m33.499 30.374h5v35.927h-5z" fill="#e1e6e9" transform="matrix(.441 -.898 .898 .441 -23.255 59.354)"/><path d="m51.023 59a.5.5 0 0 1 -.22-.051l-32.252-15.833a.5.5 0 0 1 -.253-.287.511.511 0 0 1 .024-.382l2.2-4.488a.5.5 0 0 1 .67-.229l32.255 15.829a.5.5 0 0 1 .253.287.511.511 0 0 1 -.024.382l-2.2 4.488a.5.5 0 0 1 -.453.284zm-31.583-16.561 31.36 15.388 1.763-3.591-31.363-15.388z" fill="#323c6b"/><circle cx="12.987" cy="37" fill="#27ccbc" r="9.987"/><circle cx="60.054" cy="16.44" fill="#05afd6" r="9.987"/><circle cx="60.054" cy="57.56" fill="#fcd462" r="9.987"/><path d="m22.97 37a9.956 9.956 0 0 1 -4.11 8.07 9.985 9.985 0 0 0 -8.87-14.56 9.9 9.9 0 0 0 -5.88 1.92 9.982 9.982 0 0 1 18.86 4.57z" fill="#21b3a9"/><path d="m70.04 16.44a9.956 9.956 0 0 1 -4.11 8.07 9.979 9.979 0 0 0 -14.75-12.64 9.982 9.982 0 0 1 18.86 4.57z" fill="#27a2db"/><path d="m70.04 57.56a9.956 9.956 0 0 1 -4.11 8.07 9.979 9.979 0 0 0 -14.75-12.64 9.982 9.982 0 0 1 18.86 4.57z" fill="#f7be56"/><g fill="#323c6b"><path d="m6.083 26.517a.5.5 0 0 1 -.267-.924c.2-.125.4-.249.606-.364a.5.5 0 0 1 .49.872c-.191.107-.377.222-.562.339a.5.5 0 0 1 -.267.077z"/><path d="m18.583 25.8a.512.512 0 0 1 -.217-.049 12.335 12.335 0 0 0 -8.891-.725.5.5 0 0 1 -.284-.959 13.341 13.341 0 0 1 9.609.782.5.5 0 0 1 -.217.951z"/><path d="m64.688 70.184a.5.5 0 0 1 -.18-.967 12.527 12.527 0 0 0 6.6-5.886.5.5 0 0 1 .887.463 13.526 13.526 0 0 1 -7.131 6.356.494.494 0 0 1 -.176.034z"/><path d="m61.312 70.974a.5.5 0 0 1 -.05-1l.134-.014c.137-.013.275-.026.41-.045a.5.5 0 1 1 .138.99c-.149.021-.3.036-.451.05l-.13.014z"/><path d="m12.465 47.487a10.487 10.487 0 1 1 10.487-10.487 10.5 10.5 0 0 1 -10.487 10.487zm0-19.974a9.487 9.487 0 1 0 9.487 9.487 9.5 9.5 0 0 0 -9.487-9.487z"/><path d="m59.533 26.927a10.487 10.487 0 1 1 10.487-10.487 10.5 10.5 0 0 1 -10.487 10.487zm0-19.973a9.487 9.487 0 1 0 9.487 9.486 9.5 9.5 0 0 0 -9.487-9.486z"/><path d="m59.533 68.046a10.487 10.487 0 1 1 10.487-10.486 10.5 10.5 0 0 1 -10.487 10.486zm0-19.973a9.487 9.487 0 1 0 9.487 9.487 9.5 9.5 0 0 0 -9.487-9.487z"/></g></svg>